G04 #@! TF.GenerationSoftware,KiCad,Pcbnew,5.1.5-52549c5~86~ubuntu18.04.1*
G04 #@! TF.CreationDate,2020-04-16T15:56:08+05:30*
G04 #@! TF.ProjectId,vga_controller,7667615f-636f-46e7-9472-6f6c6c65722e,rev?*
G04 #@! TF.SameCoordinates,Original*
G04 #@! TF.FileFunction,Soldermask,Top*
G04 #@! TF.FilePolarity,Negative*
%FSLAX46Y46*%
G04 Gerber Fmt 4.6, Leading zero omitted, Abs format (unit mm)*
G04 Created by KiCad (PCBNEW 5.1.5-52549c5~86~ubuntu18.04.1) date 2020-04-16 15:56:08*
%MOMM*%
%LPD*%
G04 APERTURE LIST*
%ADD10C,0.100000*%
G04 APERTURE END LIST*
D10*
G36*
X125724228Y-149549703D02*
G01*
X125879100Y-149613853D01*
X126018481Y-149706985D01*
X126137015Y-149825519D01*
X126230147Y-149964900D01*
X126294297Y-150119772D01*
X126327000Y-150284184D01*
X126327000Y-150451816D01*
X126294297Y-150616228D01*
X126230147Y-150771100D01*
X126137015Y-150910481D01*
X126018481Y-151029015D01*
X125879100Y-151122147D01*
X125724228Y-151186297D01*
X125559816Y-151219000D01*
X125392184Y-151219000D01*
X125227772Y-151186297D01*
X125072900Y-151122147D01*
X124933519Y-151029015D01*
X124814985Y-150910481D01*
X124721853Y-150771100D01*
X124657703Y-150616228D01*
X124625000Y-150451816D01*
X124625000Y-150284184D01*
X124657703Y-150119772D01*
X124721853Y-149964900D01*
X124814985Y-149825519D01*
X124933519Y-149706985D01*
X125072900Y-149613853D01*
X125227772Y-149549703D01*
X125392184Y-149517000D01*
X125559816Y-149517000D01*
X125724228Y-149549703D01*
G37*
G36*
X118104228Y-149549703D02*
G01*
X118259100Y-149613853D01*
X118398481Y-149706985D01*
X118517015Y-149825519D01*
X118610147Y-149964900D01*
X118674297Y-150119772D01*
X118707000Y-150284184D01*
X118707000Y-150451816D01*
X118674297Y-150616228D01*
X118610147Y-150771100D01*
X118517015Y-150910481D01*
X118398481Y-151029015D01*
X118259100Y-151122147D01*
X118104228Y-151186297D01*
X117939816Y-151219000D01*
X117772184Y-151219000D01*
X117607772Y-151186297D01*
X117452900Y-151122147D01*
X117313519Y-151029015D01*
X117194985Y-150910481D01*
X117101853Y-150771100D01*
X117037703Y-150616228D01*
X117005000Y-150451816D01*
X117005000Y-150284184D01*
X117037703Y-150119772D01*
X117101853Y-149964900D01*
X117194985Y-149825519D01*
X117313519Y-149706985D01*
X117452900Y-149613853D01*
X117607772Y-149549703D01*
X117772184Y-149517000D01*
X117939816Y-149517000D01*
X118104228Y-149549703D01*
G37*
G36*
X100843369Y-148242971D02*
G01*
X101005195Y-148310002D01*
X101150829Y-148407311D01*
X101274689Y-148531171D01*
X101371998Y-148676805D01*
X101439029Y-148838631D01*
X101473200Y-149010420D01*
X101473200Y-149185580D01*
X101439029Y-149357369D01*
X101371998Y-149519195D01*
X101274689Y-149664829D01*
X101150829Y-149788689D01*
X101005195Y-149885998D01*
X100843369Y-149953029D01*
X100671580Y-149987200D01*
X100496420Y-149987200D01*
X100324631Y-149953029D01*
X100162805Y-149885998D01*
X100017171Y-149788689D01*
X99893311Y-149664829D01*
X99796002Y-149519195D01*
X99728971Y-149357369D01*
X99694800Y-149185580D01*
X99694800Y-149010420D01*
X99728971Y-148838631D01*
X99796002Y-148676805D01*
X99893311Y-148531171D01*
X100017171Y-148407311D01*
X100162805Y-148310002D01*
X100324631Y-148242971D01*
X100496420Y-148208800D01*
X100671580Y-148208800D01*
X100843369Y-148242971D01*
G37*
G36*
X77983369Y-148242971D02*
G01*
X78145195Y-148310002D01*
X78290829Y-148407311D01*
X78414689Y-148531171D01*
X78511998Y-148676805D01*
X78579029Y-148838631D01*
X78613200Y-149010420D01*
X78613200Y-149185580D01*
X78579029Y-149357369D01*
X78511998Y-149519195D01*
X78414689Y-149664829D01*
X78290829Y-149788689D01*
X78145195Y-149885998D01*
X77983369Y-149953029D01*
X77811580Y-149987200D01*
X77636420Y-149987200D01*
X77464631Y-149953029D01*
X77302805Y-149885998D01*
X77157171Y-149788689D01*
X77033311Y-149664829D01*
X76936002Y-149519195D01*
X76868971Y-149357369D01*
X76834800Y-149185580D01*
X76834800Y-149010420D01*
X76868971Y-148838631D01*
X76936002Y-148676805D01*
X77033311Y-148531171D01*
X77157171Y-148407311D01*
X77302805Y-148310002D01*
X77464631Y-148242971D01*
X77636420Y-148208800D01*
X77811580Y-148208800D01*
X77983369Y-148242971D01*
G37*
G36*
X72903369Y-148242971D02*
G01*
X73065195Y-148310002D01*
X73210829Y-148407311D01*
X73334689Y-148531171D01*
X73431998Y-148676805D01*
X73499029Y-148838631D01*
X73533200Y-149010420D01*
X73533200Y-149185580D01*
X73499029Y-149357369D01*
X73431998Y-149519195D01*
X73334689Y-149664829D01*
X73210829Y-149788689D01*
X73065195Y-149885998D01*
X72903369Y-149953029D01*
X72731580Y-149987200D01*
X72556420Y-149987200D01*
X72384631Y-149953029D01*
X72222805Y-149885998D01*
X72077171Y-149788689D01*
X71953311Y-149664829D01*
X71856002Y-149519195D01*
X71788971Y-149357369D01*
X71754800Y-149185580D01*
X71754800Y-149010420D01*
X71788971Y-148838631D01*
X71856002Y-148676805D01*
X71953311Y-148531171D01*
X72077171Y-148407311D01*
X72222805Y-148310002D01*
X72384631Y-148242971D01*
X72556420Y-148208800D01*
X72731580Y-148208800D01*
X72903369Y-148242971D01*
G37*
G36*
X75443369Y-148242971D02*
G01*
X75605195Y-148310002D01*
X75750829Y-148407311D01*
X75874689Y-148531171D01*
X75971998Y-148676805D01*
X76039029Y-148838631D01*
X76073200Y-149010420D01*
X76073200Y-149185580D01*
X76039029Y-149357369D01*
X75971998Y-149519195D01*
X75874689Y-149664829D01*
X75750829Y-149788689D01*
X75605195Y-149885998D01*
X75443369Y-149953029D01*
X75271580Y-149987200D01*
X75096420Y-149987200D01*
X74924631Y-149953029D01*
X74762805Y-149885998D01*
X74617171Y-149788689D01*
X74493311Y-149664829D01*
X74396002Y-149519195D01*
X74328971Y-149357369D01*
X74294800Y-149185580D01*
X74294800Y-149010420D01*
X74328971Y-148838631D01*
X74396002Y-148676805D01*
X74493311Y-148531171D01*
X74617171Y-148407311D01*
X74762805Y-148310002D01*
X74924631Y-148242971D01*
X75096420Y-148208800D01*
X75271580Y-148208800D01*
X75443369Y-148242971D01*
G37*
G36*
X80523369Y-148242971D02*
G01*
X80685195Y-148310002D01*
X80830829Y-148407311D01*
X80954689Y-148531171D01*
X81051998Y-148676805D01*
X81119029Y-148838631D01*
X81153200Y-149010420D01*
X81153200Y-149185580D01*
X81119029Y-149357369D01*
X81051998Y-149519195D01*
X80954689Y-149664829D01*
X80830829Y-149788689D01*
X80685195Y-149885998D01*
X80523369Y-149953029D01*
X80351580Y-149987200D01*
X80176420Y-149987200D01*
X80004631Y-149953029D01*
X79842805Y-149885998D01*
X79697171Y-149788689D01*
X79573311Y-149664829D01*
X79476002Y-149519195D01*
X79408971Y-149357369D01*
X79374800Y-149185580D01*
X79374800Y-149010420D01*
X79408971Y-148838631D01*
X79476002Y-148676805D01*
X79573311Y-148531171D01*
X79697171Y-148407311D01*
X79842805Y-148310002D01*
X80004631Y-148242971D01*
X80176420Y-148208800D01*
X80351580Y-148208800D01*
X80523369Y-148242971D01*
G37*
G36*
X83063369Y-148242971D02*
G01*
X83225195Y-148310002D01*
X83370829Y-148407311D01*
X83494689Y-148531171D01*
X83591998Y-148676805D01*
X83659029Y-148838631D01*
X83693200Y-149010420D01*
X83693200Y-149185580D01*
X83659029Y-149357369D01*
X83591998Y-149519195D01*
X83494689Y-149664829D01*
X83370829Y-149788689D01*
X83225195Y-149885998D01*
X83063369Y-149953029D01*
X82891580Y-149987200D01*
X82716420Y-149987200D01*
X82544631Y-149953029D01*
X82382805Y-149885998D01*
X82237171Y-149788689D01*
X82113311Y-149664829D01*
X82016002Y-149519195D01*
X81948971Y-149357369D01*
X81914800Y-149185580D01*
X81914800Y-149010420D01*
X81948971Y-148838631D01*
X82016002Y-148676805D01*
X82113311Y-148531171D01*
X82237171Y-148407311D01*
X82382805Y-148310002D01*
X82544631Y-148242971D01*
X82716420Y-148208800D01*
X82891580Y-148208800D01*
X83063369Y-148242971D01*
G37*
G36*
X85603369Y-148242971D02*
G01*
X85765195Y-148310002D01*
X85910829Y-148407311D01*
X86034689Y-148531171D01*
X86131998Y-148676805D01*
X86199029Y-148838631D01*
X86233200Y-149010420D01*
X86233200Y-149185580D01*
X86199029Y-149357369D01*
X86131998Y-149519195D01*
X86034689Y-149664829D01*
X85910829Y-149788689D01*
X85765195Y-149885998D01*
X85603369Y-149953029D01*
X85431580Y-149987200D01*
X85256420Y-149987200D01*
X85084631Y-149953029D01*
X84922805Y-149885998D01*
X84777171Y-149788689D01*
X84653311Y-149664829D01*
X84556002Y-149519195D01*
X84488971Y-149357369D01*
X84454800Y-149185580D01*
X84454800Y-149010420D01*
X84488971Y-148838631D01*
X84556002Y-148676805D01*
X84653311Y-148531171D01*
X84777171Y-148407311D01*
X84922805Y-148310002D01*
X85084631Y-148242971D01*
X85256420Y-148208800D01*
X85431580Y-148208800D01*
X85603369Y-148242971D01*
G37*
G36*
X90683369Y-148242971D02*
G01*
X90845195Y-148310002D01*
X90990829Y-148407311D01*
X91114689Y-148531171D01*
X91211998Y-148676805D01*
X91279029Y-148838631D01*
X91313200Y-149010420D01*
X91313200Y-149185580D01*
X91279029Y-149357369D01*
X91211998Y-149519195D01*
X91114689Y-149664829D01*
X90990829Y-149788689D01*
X90845195Y-149885998D01*
X90683369Y-149953029D01*
X90511580Y-149987200D01*
X90336420Y-149987200D01*
X90164631Y-149953029D01*
X90002805Y-149885998D01*
X89857171Y-149788689D01*
X89733311Y-149664829D01*
X89636002Y-149519195D01*
X89568971Y-149357369D01*
X89534800Y-149185580D01*
X89534800Y-149010420D01*
X89568971Y-148838631D01*
X89636002Y-148676805D01*
X89733311Y-148531171D01*
X89857171Y-148407311D01*
X90002805Y-148310002D01*
X90164631Y-148242971D01*
X90336420Y-148208800D01*
X90511580Y-148208800D01*
X90683369Y-148242971D01*
G37*
G36*
X93223369Y-148242971D02*
G01*
X93385195Y-148310002D01*
X93530829Y-148407311D01*
X93654689Y-148531171D01*
X93751998Y-148676805D01*
X93819029Y-148838631D01*
X93853200Y-149010420D01*
X93853200Y-149185580D01*
X93819029Y-149357369D01*
X93751998Y-149519195D01*
X93654689Y-149664829D01*
X93530829Y-149788689D01*
X93385195Y-149885998D01*
X93223369Y-149953029D01*
X93051580Y-149987200D01*
X92876420Y-149987200D01*
X92704631Y-149953029D01*
X92542805Y-149885998D01*
X92397171Y-149788689D01*
X92273311Y-149664829D01*
X92176002Y-149519195D01*
X92108971Y-149357369D01*
X92074800Y-149185580D01*
X92074800Y-149010420D01*
X92108971Y-148838631D01*
X92176002Y-148676805D01*
X92273311Y-148531171D01*
X92397171Y-148407311D01*
X92542805Y-148310002D01*
X92704631Y-148242971D01*
X92876420Y-148208800D01*
X93051580Y-148208800D01*
X93223369Y-148242971D01*
G37*
G36*
X98303369Y-148242971D02*
G01*
X98465195Y-148310002D01*
X98610829Y-148407311D01*
X98734689Y-148531171D01*
X98831998Y-148676805D01*
X98899029Y-148838631D01*
X98933200Y-149010420D01*
X98933200Y-149185580D01*
X98899029Y-149357369D01*
X98831998Y-149519195D01*
X98734689Y-149664829D01*
X98610829Y-149788689D01*
X98465195Y-149885998D01*
X98303369Y-149953029D01*
X98131580Y-149987200D01*
X97956420Y-149987200D01*
X97784631Y-149953029D01*
X97622805Y-149885998D01*
X97477171Y-149788689D01*
X97353311Y-149664829D01*
X97256002Y-149519195D01*
X97188971Y-149357369D01*
X97154800Y-149185580D01*
X97154800Y-149010420D01*
X97188971Y-148838631D01*
X97256002Y-148676805D01*
X97353311Y-148531171D01*
X97477171Y-148407311D01*
X97622805Y-148310002D01*
X97784631Y-148242971D01*
X97956420Y-148208800D01*
X98131580Y-148208800D01*
X98303369Y-148242971D01*
G37*
G36*
X95763369Y-148242971D02*
G01*
X95925195Y-148310002D01*
X96070829Y-148407311D01*
X96194689Y-148531171D01*
X96291998Y-148676805D01*
X96359029Y-148838631D01*
X96393200Y-149010420D01*
X96393200Y-149185580D01*
X96359029Y-149357369D01*
X96291998Y-149519195D01*
X96194689Y-149664829D01*
X96070829Y-149788689D01*
X95925195Y-149885998D01*
X95763369Y-149953029D01*
X95591580Y-149987200D01*
X95416420Y-149987200D01*
X95244631Y-149953029D01*
X95082805Y-149885998D01*
X94937171Y-149788689D01*
X94813311Y-149664829D01*
X94716002Y-149519195D01*
X94648971Y-149357369D01*
X94614800Y-149185580D01*
X94614800Y-149010420D01*
X94648971Y-148838631D01*
X94716002Y-148676805D01*
X94813311Y-148531171D01*
X94937171Y-148407311D01*
X95082805Y-148310002D01*
X95244631Y-148242971D01*
X95416420Y-148208800D01*
X95591580Y-148208800D01*
X95763369Y-148242971D01*
G37*
G36*
X88143369Y-148242971D02*
G01*
X88305195Y-148310002D01*
X88450829Y-148407311D01*
X88574689Y-148531171D01*
X88671998Y-148676805D01*
X88739029Y-148838631D01*
X88773200Y-149010420D01*
X88773200Y-149185580D01*
X88739029Y-149357369D01*
X88671998Y-149519195D01*
X88574689Y-149664829D01*
X88450829Y-149788689D01*
X88305195Y-149885998D01*
X88143369Y-149953029D01*
X87971580Y-149987200D01*
X87796420Y-149987200D01*
X87624631Y-149953029D01*
X87462805Y-149885998D01*
X87317171Y-149788689D01*
X87193311Y-149664829D01*
X87096002Y-149519195D01*
X87028971Y-149357369D01*
X86994800Y-149185580D01*
X86994800Y-149010420D01*
X87028971Y-148838631D01*
X87096002Y-148676805D01*
X87193311Y-148531171D01*
X87317171Y-148407311D01*
X87462805Y-148310002D01*
X87624631Y-148242971D01*
X87796420Y-148208800D01*
X87971580Y-148208800D01*
X88143369Y-148242971D01*
G37*
G36*
X58255000Y-148933000D02*
G01*
X56553000Y-148933000D01*
X56553000Y-147231000D01*
X58255000Y-147231000D01*
X58255000Y-148933000D01*
G37*
G36*
X125724228Y-147009703D02*
G01*
X125879100Y-147073853D01*
X126018481Y-147166985D01*
X126137015Y-147285519D01*
X126230147Y-147424900D01*
X126294297Y-147579772D01*
X126327000Y-147744184D01*
X126327000Y-147911816D01*
X126294297Y-148076228D01*
X126230147Y-148231100D01*
X126137015Y-148370481D01*
X126018481Y-148489015D01*
X125879100Y-148582147D01*
X125724228Y-148646297D01*
X125559816Y-148679000D01*
X125392184Y-148679000D01*
X125227772Y-148646297D01*
X125072900Y-148582147D01*
X124933519Y-148489015D01*
X124814985Y-148370481D01*
X124721853Y-148231100D01*
X124657703Y-148076228D01*
X124625000Y-147911816D01*
X124625000Y-147744184D01*
X124657703Y-147579772D01*
X124721853Y-147424900D01*
X124814985Y-147285519D01*
X124933519Y-147166985D01*
X125072900Y-147073853D01*
X125227772Y-147009703D01*
X125392184Y-146977000D01*
X125559816Y-146977000D01*
X125724228Y-147009703D01*
G37*
G36*
X118104228Y-147009703D02*
G01*
X118259100Y-147073853D01*
X118398481Y-147166985D01*
X118517015Y-147285519D01*
X118610147Y-147424900D01*
X118674297Y-147579772D01*
X118707000Y-147744184D01*
X118707000Y-147911816D01*
X118674297Y-148076228D01*
X118610147Y-148231100D01*
X118517015Y-148370481D01*
X118398481Y-148489015D01*
X118259100Y-148582147D01*
X118104228Y-148646297D01*
X117939816Y-148679000D01*
X117772184Y-148679000D01*
X117607772Y-148646297D01*
X117452900Y-148582147D01*
X117313519Y-148489015D01*
X117194985Y-148370481D01*
X117101853Y-148231100D01*
X117037703Y-148076228D01*
X117005000Y-147911816D01*
X117005000Y-147744184D01*
X117037703Y-147579772D01*
X117101853Y-147424900D01*
X117194985Y-147285519D01*
X117313519Y-147166985D01*
X117452900Y-147073853D01*
X117607772Y-147009703D01*
X117772184Y-146977000D01*
X117939816Y-146977000D01*
X118104228Y-147009703D01*
G37*
G36*
X55112228Y-145878703D02*
G01*
X55267100Y-145942853D01*
X55406481Y-146035985D01*
X55525015Y-146154519D01*
X55618147Y-146293900D01*
X55682297Y-146448772D01*
X55715000Y-146613184D01*
X55715000Y-146780816D01*
X55682297Y-146945228D01*
X55618147Y-147100100D01*
X55525015Y-147239481D01*
X55406481Y-147358015D01*
X55267100Y-147451147D01*
X55112228Y-147515297D01*
X54947816Y-147548000D01*
X54780184Y-147548000D01*
X54615772Y-147515297D01*
X54460900Y-147451147D01*
X54321519Y-147358015D01*
X54202985Y-147239481D01*
X54109853Y-147100100D01*
X54045703Y-146945228D01*
X54013000Y-146780816D01*
X54013000Y-146613184D01*
X54045703Y-146448772D01*
X54109853Y-146293900D01*
X54202985Y-146154519D01*
X54321519Y-146035985D01*
X54460900Y-145942853D01*
X54615772Y-145878703D01*
X54780184Y-145846000D01*
X54947816Y-145846000D01*
X55112228Y-145878703D01*
G37*
G36*
X57652228Y-144493703D02*
G01*
X57807100Y-144557853D01*
X57946481Y-144650985D01*
X58065015Y-144769519D01*
X58158147Y-144908900D01*
X58222297Y-145063772D01*
X58255000Y-145228184D01*
X58255000Y-145395816D01*
X58222297Y-145560228D01*
X58158147Y-145715100D01*
X58065015Y-145854481D01*
X57946481Y-145973015D01*
X57807100Y-146066147D01*
X57652228Y-146130297D01*
X57487816Y-146163000D01*
X57320184Y-146163000D01*
X57155772Y-146130297D01*
X57000900Y-146066147D01*
X56861519Y-145973015D01*
X56742985Y-145854481D01*
X56649853Y-145715100D01*
X56585703Y-145560228D01*
X56553000Y-145395816D01*
X56553000Y-145228184D01*
X56585703Y-145063772D01*
X56649853Y-144908900D01*
X56742985Y-144769519D01*
X56861519Y-144650985D01*
X57000900Y-144557853D01*
X57155772Y-144493703D01*
X57320184Y-144461000D01*
X57487816Y-144461000D01*
X57652228Y-144493703D01*
G37*
G36*
X118104228Y-144469703D02*
G01*
X118259100Y-144533853D01*
X118398481Y-144626985D01*
X118517015Y-144745519D01*
X118610147Y-144884900D01*
X118674297Y-145039772D01*
X118707000Y-145204184D01*
X118707000Y-145371816D01*
X118674297Y-145536228D01*
X118610147Y-145691100D01*
X118517015Y-145830481D01*
X118398481Y-145949015D01*
X118259100Y-146042147D01*
X118104228Y-146106297D01*
X117939816Y-146139000D01*
X117772184Y-146139000D01*
X117607772Y-146106297D01*
X117452900Y-146042147D01*
X117313519Y-145949015D01*
X117194985Y-145830481D01*
X117101853Y-145691100D01*
X117037703Y-145536228D01*
X117005000Y-145371816D01*
X117005000Y-145204184D01*
X117037703Y-145039772D01*
X117101853Y-144884900D01*
X117194985Y-144745519D01*
X117313519Y-144626985D01*
X117452900Y-144533853D01*
X117607772Y-144469703D01*
X117772184Y-144437000D01*
X117939816Y-144437000D01*
X118104228Y-144469703D01*
G37*
G36*
X125724228Y-144469703D02*
G01*
X125879100Y-144533853D01*
X126018481Y-144626985D01*
X126137015Y-144745519D01*
X126230147Y-144884900D01*
X126294297Y-145039772D01*
X126327000Y-145204184D01*
X126327000Y-145371816D01*
X126294297Y-145536228D01*
X126230147Y-145691100D01*
X126137015Y-145830481D01*
X126018481Y-145949015D01*
X125879100Y-146042147D01*
X125724228Y-146106297D01*
X125559816Y-146139000D01*
X125392184Y-146139000D01*
X125227772Y-146106297D01*
X125072900Y-146042147D01*
X124933519Y-145949015D01*
X124814985Y-145830481D01*
X124721853Y-145691100D01*
X124657703Y-145536228D01*
X124625000Y-145371816D01*
X124625000Y-145204184D01*
X124657703Y-145039772D01*
X124721853Y-144884900D01*
X124814985Y-144745519D01*
X124933519Y-144626985D01*
X125072900Y-144533853D01*
X125227772Y-144469703D01*
X125392184Y-144437000D01*
X125559816Y-144437000D01*
X125724228Y-144469703D01*
G37*
G36*
X55112228Y-143108703D02*
G01*
X55267100Y-143172853D01*
X55406481Y-143265985D01*
X55525015Y-143384519D01*
X55618147Y-143523900D01*
X55682297Y-143678772D01*
X55715000Y-143843184D01*
X55715000Y-144010816D01*
X55682297Y-144175228D01*
X55618147Y-144330100D01*
X55525015Y-144469481D01*
X55406481Y-144588015D01*
X55267100Y-144681147D01*
X55112228Y-144745297D01*
X54947816Y-144778000D01*
X54780184Y-144778000D01*
X54615772Y-144745297D01*
X54460900Y-144681147D01*
X54321519Y-144588015D01*
X54202985Y-144469481D01*
X54109853Y-144330100D01*
X54045703Y-144175228D01*
X54013000Y-144010816D01*
X54013000Y-143843184D01*
X54045703Y-143678772D01*
X54109853Y-143523900D01*
X54202985Y-143384519D01*
X54321519Y-143265985D01*
X54460900Y-143172853D01*
X54615772Y-143108703D01*
X54780184Y-143076000D01*
X54947816Y-143076000D01*
X55112228Y-143108703D01*
G37*
G36*
X118104228Y-141929703D02*
G01*
X118259100Y-141993853D01*
X118398481Y-142086985D01*
X118517015Y-142205519D01*
X118610147Y-142344900D01*
X118674297Y-142499772D01*
X118707000Y-142664184D01*
X118707000Y-142831816D01*
X118674297Y-142996228D01*
X118610147Y-143151100D01*
X118517015Y-143290481D01*
X118398481Y-143409015D01*
X118259100Y-143502147D01*
X118104228Y-143566297D01*
X117939816Y-143599000D01*
X117772184Y-143599000D01*
X117607772Y-143566297D01*
X117452900Y-143502147D01*
X117313519Y-143409015D01*
X117194985Y-143290481D01*
X117101853Y-143151100D01*
X117037703Y-142996228D01*
X117005000Y-142831816D01*
X117005000Y-142664184D01*
X117037703Y-142499772D01*
X117101853Y-142344900D01*
X117194985Y-142205519D01*
X117313519Y-142086985D01*
X117452900Y-141993853D01*
X117607772Y-141929703D01*
X117772184Y-141897000D01*
X117939816Y-141897000D01*
X118104228Y-141929703D01*
G37*
G36*
X125724228Y-141929703D02*
G01*
X125879100Y-141993853D01*
X126018481Y-142086985D01*
X126137015Y-142205519D01*
X126230147Y-142344900D01*
X126294297Y-142499772D01*
X126327000Y-142664184D01*
X126327000Y-142831816D01*
X126294297Y-142996228D01*
X126230147Y-143151100D01*
X126137015Y-143290481D01*
X126018481Y-143409015D01*
X125879100Y-143502147D01*
X125724228Y-143566297D01*
X125559816Y-143599000D01*
X125392184Y-143599000D01*
X125227772Y-143566297D01*
X125072900Y-143502147D01*
X124933519Y-143409015D01*
X124814985Y-143290481D01*
X124721853Y-143151100D01*
X124657703Y-142996228D01*
X124625000Y-142831816D01*
X124625000Y-142664184D01*
X124657703Y-142499772D01*
X124721853Y-142344900D01*
X124814985Y-142205519D01*
X124933519Y-142086985D01*
X125072900Y-141993853D01*
X125227772Y-141929703D01*
X125392184Y-141897000D01*
X125559816Y-141897000D01*
X125724228Y-141929703D01*
G37*
G36*
X57652228Y-141723703D02*
G01*
X57807100Y-141787853D01*
X57946481Y-141880985D01*
X58065015Y-141999519D01*
X58158147Y-142138900D01*
X58222297Y-142293772D01*
X58255000Y-142458184D01*
X58255000Y-142625816D01*
X58222297Y-142790228D01*
X58158147Y-142945100D01*
X58065015Y-143084481D01*
X57946481Y-143203015D01*
X57807100Y-143296147D01*
X57652228Y-143360297D01*
X57487816Y-143393000D01*
X57320184Y-143393000D01*
X57155772Y-143360297D01*
X57000900Y-143296147D01*
X56861519Y-143203015D01*
X56742985Y-143084481D01*
X56649853Y-142945100D01*
X56585703Y-142790228D01*
X56553000Y-142625816D01*
X56553000Y-142458184D01*
X56585703Y-142293772D01*
X56649853Y-142138900D01*
X56742985Y-141999519D01*
X56861519Y-141880985D01*
X57000900Y-141787853D01*
X57155772Y-141723703D01*
X57320184Y-141691000D01*
X57487816Y-141691000D01*
X57652228Y-141723703D01*
G37*
G36*
X55112228Y-140338703D02*
G01*
X55267100Y-140402853D01*
X55406481Y-140495985D01*
X55525015Y-140614519D01*
X55618147Y-140753900D01*
X55682297Y-140908772D01*
X55715000Y-141073184D01*
X55715000Y-141240816D01*
X55682297Y-141405228D01*
X55618147Y-141560100D01*
X55525015Y-141699481D01*
X55406481Y-141818015D01*
X55267100Y-141911147D01*
X55112228Y-141975297D01*
X54947816Y-142008000D01*
X54780184Y-142008000D01*
X54615772Y-141975297D01*
X54460900Y-141911147D01*
X54321519Y-141818015D01*
X54202985Y-141699481D01*
X54109853Y-141560100D01*
X54045703Y-141405228D01*
X54013000Y-141240816D01*
X54013000Y-141073184D01*
X54045703Y-140908772D01*
X54109853Y-140753900D01*
X54202985Y-140614519D01*
X54321519Y-140495985D01*
X54460900Y-140402853D01*
X54615772Y-140338703D01*
X54780184Y-140306000D01*
X54947816Y-140306000D01*
X55112228Y-140338703D01*
G37*
G36*
X118104228Y-139389703D02*
G01*
X118259100Y-139453853D01*
X118398481Y-139546985D01*
X118517015Y-139665519D01*
X118610147Y-139804900D01*
X118674297Y-139959772D01*
X118707000Y-140124184D01*
X118707000Y-140291816D01*
X118674297Y-140456228D01*
X118610147Y-140611100D01*
X118517015Y-140750481D01*
X118398481Y-140869015D01*
X118259100Y-140962147D01*
X118104228Y-141026297D01*
X117939816Y-141059000D01*
X117772184Y-141059000D01*
X117607772Y-141026297D01*
X117452900Y-140962147D01*
X117313519Y-140869015D01*
X117194985Y-140750481D01*
X117101853Y-140611100D01*
X117037703Y-140456228D01*
X117005000Y-140291816D01*
X117005000Y-140124184D01*
X117037703Y-139959772D01*
X117101853Y-139804900D01*
X117194985Y-139665519D01*
X117313519Y-139546985D01*
X117452900Y-139453853D01*
X117607772Y-139389703D01*
X117772184Y-139357000D01*
X117939816Y-139357000D01*
X118104228Y-139389703D01*
G37*
G36*
X125724228Y-139389703D02*
G01*
X125879100Y-139453853D01*
X126018481Y-139546985D01*
X126137015Y-139665519D01*
X126230147Y-139804900D01*
X126294297Y-139959772D01*
X126327000Y-140124184D01*
X126327000Y-140291816D01*
X126294297Y-140456228D01*
X126230147Y-140611100D01*
X126137015Y-140750481D01*
X126018481Y-140869015D01*
X125879100Y-140962147D01*
X125724228Y-141026297D01*
X125559816Y-141059000D01*
X125392184Y-141059000D01*
X125227772Y-141026297D01*
X125072900Y-140962147D01*
X124933519Y-140869015D01*
X124814985Y-140750481D01*
X124721853Y-140611100D01*
X124657703Y-140456228D01*
X124625000Y-140291816D01*
X124625000Y-140124184D01*
X124657703Y-139959772D01*
X124721853Y-139804900D01*
X124814985Y-139665519D01*
X124933519Y-139546985D01*
X125072900Y-139453853D01*
X125227772Y-139389703D01*
X125392184Y-139357000D01*
X125559816Y-139357000D01*
X125724228Y-139389703D01*
G37*
G36*
X57652228Y-138953703D02*
G01*
X57807100Y-139017853D01*
X57946481Y-139110985D01*
X58065015Y-139229519D01*
X58158147Y-139368900D01*
X58222297Y-139523772D01*
X58255000Y-139688184D01*
X58255000Y-139855816D01*
X58222297Y-140020228D01*
X58158147Y-140175100D01*
X58065015Y-140314481D01*
X57946481Y-140433015D01*
X57807100Y-140526147D01*
X57652228Y-140590297D01*
X57487816Y-140623000D01*
X57320184Y-140623000D01*
X57155772Y-140590297D01*
X57000900Y-140526147D01*
X56861519Y-140433015D01*
X56742985Y-140314481D01*
X56649853Y-140175100D01*
X56585703Y-140020228D01*
X56553000Y-139855816D01*
X56553000Y-139688184D01*
X56585703Y-139523772D01*
X56649853Y-139368900D01*
X56742985Y-139229519D01*
X56861519Y-139110985D01*
X57000900Y-139017853D01*
X57155772Y-138953703D01*
X57320184Y-138921000D01*
X57487816Y-138921000D01*
X57652228Y-138953703D01*
G37*
G36*
X55112228Y-137568703D02*
G01*
X55267100Y-137632853D01*
X55406481Y-137725985D01*
X55525015Y-137844519D01*
X55618147Y-137983900D01*
X55682297Y-138138772D01*
X55715000Y-138303184D01*
X55715000Y-138470816D01*
X55682297Y-138635228D01*
X55618147Y-138790100D01*
X55525015Y-138929481D01*
X55406481Y-139048015D01*
X55267100Y-139141147D01*
X55112228Y-139205297D01*
X54947816Y-139238000D01*
X54780184Y-139238000D01*
X54615772Y-139205297D01*
X54460900Y-139141147D01*
X54321519Y-139048015D01*
X54202985Y-138929481D01*
X54109853Y-138790100D01*
X54045703Y-138635228D01*
X54013000Y-138470816D01*
X54013000Y-138303184D01*
X54045703Y-138138772D01*
X54109853Y-137983900D01*
X54202985Y-137844519D01*
X54321519Y-137725985D01*
X54460900Y-137632853D01*
X54615772Y-137568703D01*
X54780184Y-137536000D01*
X54947816Y-137536000D01*
X55112228Y-137568703D01*
G37*
G36*
X125724228Y-136849703D02*
G01*
X125879100Y-136913853D01*
X126018481Y-137006985D01*
X126137015Y-137125519D01*
X126230147Y-137264900D01*
X126294297Y-137419772D01*
X126327000Y-137584184D01*
X126327000Y-137751816D01*
X126294297Y-137916228D01*
X126230147Y-138071100D01*
X126137015Y-138210481D01*
X126018481Y-138329015D01*
X125879100Y-138422147D01*
X125724228Y-138486297D01*
X125559816Y-138519000D01*
X125392184Y-138519000D01*
X125227772Y-138486297D01*
X125072900Y-138422147D01*
X124933519Y-138329015D01*
X124814985Y-138210481D01*
X124721853Y-138071100D01*
X124657703Y-137916228D01*
X124625000Y-137751816D01*
X124625000Y-137584184D01*
X124657703Y-137419772D01*
X124721853Y-137264900D01*
X124814985Y-137125519D01*
X124933519Y-137006985D01*
X125072900Y-136913853D01*
X125227772Y-136849703D01*
X125392184Y-136817000D01*
X125559816Y-136817000D01*
X125724228Y-136849703D01*
G37*
G36*
X118104228Y-136849703D02*
G01*
X118259100Y-136913853D01*
X118398481Y-137006985D01*
X118517015Y-137125519D01*
X118610147Y-137264900D01*
X118674297Y-137419772D01*
X118707000Y-137584184D01*
X118707000Y-137751816D01*
X118674297Y-137916228D01*
X118610147Y-138071100D01*
X118517015Y-138210481D01*
X118398481Y-138329015D01*
X118259100Y-138422147D01*
X118104228Y-138486297D01*
X117939816Y-138519000D01*
X117772184Y-138519000D01*
X117607772Y-138486297D01*
X117452900Y-138422147D01*
X117313519Y-138329015D01*
X117194985Y-138210481D01*
X117101853Y-138071100D01*
X117037703Y-137916228D01*
X117005000Y-137751816D01*
X117005000Y-137584184D01*
X117037703Y-137419772D01*
X117101853Y-137264900D01*
X117194985Y-137125519D01*
X117313519Y-137006985D01*
X117452900Y-136913853D01*
X117607772Y-136849703D01*
X117772184Y-136817000D01*
X117939816Y-136817000D01*
X118104228Y-136849703D01*
G37*
G36*
X57652228Y-136183703D02*
G01*
X57807100Y-136247853D01*
X57946481Y-136340985D01*
X58065015Y-136459519D01*
X58158147Y-136598900D01*
X58222297Y-136753772D01*
X58255000Y-136918184D01*
X58255000Y-137085816D01*
X58222297Y-137250228D01*
X58158147Y-137405100D01*
X58065015Y-137544481D01*
X57946481Y-137663015D01*
X57807100Y-137756147D01*
X57652228Y-137820297D01*
X57487816Y-137853000D01*
X57320184Y-137853000D01*
X57155772Y-137820297D01*
X57000900Y-137756147D01*
X56861519Y-137663015D01*
X56742985Y-137544481D01*
X56649853Y-137405100D01*
X56585703Y-137250228D01*
X56553000Y-137085816D01*
X56553000Y-136918184D01*
X56585703Y-136753772D01*
X56649853Y-136598900D01*
X56742985Y-136459519D01*
X56861519Y-136340985D01*
X57000900Y-136247853D01*
X57155772Y-136183703D01*
X57320184Y-136151000D01*
X57487816Y-136151000D01*
X57652228Y-136183703D01*
G37*
G36*
X55112228Y-134798703D02*
G01*
X55267100Y-134862853D01*
X55406481Y-134955985D01*
X55525015Y-135074519D01*
X55618147Y-135213900D01*
X55682297Y-135368772D01*
X55715000Y-135533184D01*
X55715000Y-135700816D01*
X55682297Y-135865228D01*
X55618147Y-136020100D01*
X55525015Y-136159481D01*
X55406481Y-136278015D01*
X55267100Y-136371147D01*
X55112228Y-136435297D01*
X54947816Y-136468000D01*
X54780184Y-136468000D01*
X54615772Y-136435297D01*
X54460900Y-136371147D01*
X54321519Y-136278015D01*
X54202985Y-136159481D01*
X54109853Y-136020100D01*
X54045703Y-135865228D01*
X54013000Y-135700816D01*
X54013000Y-135533184D01*
X54045703Y-135368772D01*
X54109853Y-135213900D01*
X54202985Y-135074519D01*
X54321519Y-134955985D01*
X54460900Y-134862853D01*
X54615772Y-134798703D01*
X54780184Y-134766000D01*
X54947816Y-134766000D01*
X55112228Y-134798703D01*
G37*
G36*
X118707000Y-135979000D02*
G01*
X117005000Y-135979000D01*
X117005000Y-134277000D01*
X118707000Y-134277000D01*
X118707000Y-135979000D01*
G37*
G36*
X125724228Y-134309703D02*
G01*
X125879100Y-134373853D01*
X126018481Y-134466985D01*
X126137015Y-134585519D01*
X126230147Y-134724900D01*
X126294297Y-134879772D01*
X126327000Y-135044184D01*
X126327000Y-135211816D01*
X126294297Y-135376228D01*
X126230147Y-135531100D01*
X126137015Y-135670481D01*
X126018481Y-135789015D01*
X125879100Y-135882147D01*
X125724228Y-135946297D01*
X125559816Y-135979000D01*
X125392184Y-135979000D01*
X125227772Y-135946297D01*
X125072900Y-135882147D01*
X124933519Y-135789015D01*
X124814985Y-135670481D01*
X124721853Y-135531100D01*
X124657703Y-135376228D01*
X124625000Y-135211816D01*
X124625000Y-135044184D01*
X124657703Y-134879772D01*
X124721853Y-134724900D01*
X124814985Y-134585519D01*
X124933519Y-134466985D01*
X125072900Y-134373853D01*
X125227772Y-134309703D01*
X125392184Y-134277000D01*
X125559816Y-134277000D01*
X125724228Y-134309703D01*
G37*
G36*
X57652228Y-133413703D02*
G01*
X57807100Y-133477853D01*
X57946481Y-133570985D01*
X58065015Y-133689519D01*
X58158147Y-133828900D01*
X58222297Y-133983772D01*
X58255000Y-134148184D01*
X58255000Y-134315816D01*
X58222297Y-134480228D01*
X58158147Y-134635100D01*
X58065015Y-134774481D01*
X57946481Y-134893015D01*
X57807100Y-134986147D01*
X57652228Y-135050297D01*
X57487816Y-135083000D01*
X57320184Y-135083000D01*
X57155772Y-135050297D01*
X57000900Y-134986147D01*
X56861519Y-134893015D01*
X56742985Y-134774481D01*
X56649853Y-134635100D01*
X56585703Y-134480228D01*
X56553000Y-134315816D01*
X56553000Y-134148184D01*
X56585703Y-133983772D01*
X56649853Y-133828900D01*
X56742985Y-133689519D01*
X56861519Y-133570985D01*
X57000900Y-133477853D01*
X57155772Y-133413703D01*
X57320184Y-133381000D01*
X57487816Y-133381000D01*
X57652228Y-133413703D01*
G37*
G36*
X98303369Y-133002971D02*
G01*
X98465195Y-133070002D01*
X98610829Y-133167311D01*
X98734689Y-133291171D01*
X98831998Y-133436805D01*
X98899029Y-133598631D01*
X98933200Y-133770420D01*
X98933200Y-133945580D01*
X98899029Y-134117369D01*
X98831998Y-134279195D01*
X98734689Y-134424829D01*
X98610829Y-134548689D01*
X98465195Y-134645998D01*
X98303369Y-134713029D01*
X98131580Y-134747200D01*
X97956420Y-134747200D01*
X97784631Y-134713029D01*
X97622805Y-134645998D01*
X97477171Y-134548689D01*
X97353311Y-134424829D01*
X97256002Y-134279195D01*
X97188971Y-134117369D01*
X97154800Y-133945580D01*
X97154800Y-133770420D01*
X97188971Y-133598631D01*
X97256002Y-133436805D01*
X97353311Y-133291171D01*
X97477171Y-133167311D01*
X97622805Y-133070002D01*
X97784631Y-133002971D01*
X97956420Y-132968800D01*
X98131580Y-132968800D01*
X98303369Y-133002971D01*
G37*
G36*
X101473200Y-134747200D02*
G01*
X99694800Y-134747200D01*
X99694800Y-132968800D01*
X101473200Y-132968800D01*
X101473200Y-134747200D01*
G37*
G36*
X95763369Y-133002971D02*
G01*
X95925195Y-133070002D01*
X96070829Y-133167311D01*
X96194689Y-133291171D01*
X96291998Y-133436805D01*
X96359029Y-133598631D01*
X96393200Y-133770420D01*
X96393200Y-133945580D01*
X96359029Y-134117369D01*
X96291998Y-134279195D01*
X96194689Y-134424829D01*
X96070829Y-134548689D01*
X95925195Y-134645998D01*
X95763369Y-134713029D01*
X95591580Y-134747200D01*
X95416420Y-134747200D01*
X95244631Y-134713029D01*
X95082805Y-134645998D01*
X94937171Y-134548689D01*
X94813311Y-134424829D01*
X94716002Y-134279195D01*
X94648971Y-134117369D01*
X94614800Y-133945580D01*
X94614800Y-133770420D01*
X94648971Y-133598631D01*
X94716002Y-133436805D01*
X94813311Y-133291171D01*
X94937171Y-133167311D01*
X95082805Y-133070002D01*
X95244631Y-133002971D01*
X95416420Y-132968800D01*
X95591580Y-132968800D01*
X95763369Y-133002971D01*
G37*
G36*
X93223369Y-133002971D02*
G01*
X93385195Y-133070002D01*
X93530829Y-133167311D01*
X93654689Y-133291171D01*
X93751998Y-133436805D01*
X93819029Y-133598631D01*
X93853200Y-133770420D01*
X93853200Y-133945580D01*
X93819029Y-134117369D01*
X93751998Y-134279195D01*
X93654689Y-134424829D01*
X93530829Y-134548689D01*
X93385195Y-134645998D01*
X93223369Y-134713029D01*
X93051580Y-134747200D01*
X92876420Y-134747200D01*
X92704631Y-134713029D01*
X92542805Y-134645998D01*
X92397171Y-134548689D01*
X92273311Y-134424829D01*
X92176002Y-134279195D01*
X92108971Y-134117369D01*
X92074800Y-133945580D01*
X92074800Y-133770420D01*
X92108971Y-133598631D01*
X92176002Y-133436805D01*
X92273311Y-133291171D01*
X92397171Y-133167311D01*
X92542805Y-133070002D01*
X92704631Y-133002971D01*
X92876420Y-132968800D01*
X93051580Y-132968800D01*
X93223369Y-133002971D01*
G37*
G36*
X72903369Y-133002971D02*
G01*
X73065195Y-133070002D01*
X73210829Y-133167311D01*
X73334689Y-133291171D01*
X73431998Y-133436805D01*
X73499029Y-133598631D01*
X73533200Y-133770420D01*
X73533200Y-133945580D01*
X73499029Y-134117369D01*
X73431998Y-134279195D01*
X73334689Y-134424829D01*
X73210829Y-134548689D01*
X73065195Y-134645998D01*
X72903369Y-134713029D01*
X72731580Y-134747200D01*
X72556420Y-134747200D01*
X72384631Y-134713029D01*
X72222805Y-134645998D01*
X72077171Y-134548689D01*
X71953311Y-134424829D01*
X71856002Y-134279195D01*
X71788971Y-134117369D01*
X71754800Y-133945580D01*
X71754800Y-133770420D01*
X71788971Y-133598631D01*
X71856002Y-133436805D01*
X71953311Y-133291171D01*
X72077171Y-133167311D01*
X72222805Y-133070002D01*
X72384631Y-133002971D01*
X72556420Y-132968800D01*
X72731580Y-132968800D01*
X72903369Y-133002971D01*
G37*
G36*
X75443369Y-133002971D02*
G01*
X75605195Y-133070002D01*
X75750829Y-133167311D01*
X75874689Y-133291171D01*
X75971998Y-133436805D01*
X76039029Y-133598631D01*
X76073200Y-133770420D01*
X76073200Y-133945580D01*
X76039029Y-134117369D01*
X75971998Y-134279195D01*
X75874689Y-134424829D01*
X75750829Y-134548689D01*
X75605195Y-134645998D01*
X75443369Y-134713029D01*
X75271580Y-134747200D01*
X75096420Y-134747200D01*
X74924631Y-134713029D01*
X74762805Y-134645998D01*
X74617171Y-134548689D01*
X74493311Y-134424829D01*
X74396002Y-134279195D01*
X74328971Y-134117369D01*
X74294800Y-133945580D01*
X74294800Y-133770420D01*
X74328971Y-133598631D01*
X74396002Y-133436805D01*
X74493311Y-133291171D01*
X74617171Y-133167311D01*
X74762805Y-133070002D01*
X74924631Y-133002971D01*
X75096420Y-132968800D01*
X75271580Y-132968800D01*
X75443369Y-133002971D01*
G37*
G36*
X90683369Y-133002971D02*
G01*
X90845195Y-133070002D01*
X90990829Y-133167311D01*
X91114689Y-133291171D01*
X91211998Y-133436805D01*
X91279029Y-133598631D01*
X91313200Y-133770420D01*
X91313200Y-133945580D01*
X91279029Y-134117369D01*
X91211998Y-134279195D01*
X91114689Y-134424829D01*
X90990829Y-134548689D01*
X90845195Y-134645998D01*
X90683369Y-134713029D01*
X90511580Y-134747200D01*
X90336420Y-134747200D01*
X90164631Y-134713029D01*
X90002805Y-134645998D01*
X89857171Y-134548689D01*
X89733311Y-134424829D01*
X89636002Y-134279195D01*
X89568971Y-134117369D01*
X89534800Y-133945580D01*
X89534800Y-133770420D01*
X89568971Y-133598631D01*
X89636002Y-133436805D01*
X89733311Y-133291171D01*
X89857171Y-133167311D01*
X90002805Y-133070002D01*
X90164631Y-133002971D01*
X90336420Y-132968800D01*
X90511580Y-132968800D01*
X90683369Y-133002971D01*
G37*
G36*
X80523369Y-133002971D02*
G01*
X80685195Y-133070002D01*
X80830829Y-133167311D01*
X80954689Y-133291171D01*
X81051998Y-133436805D01*
X81119029Y-133598631D01*
X81153200Y-133770420D01*
X81153200Y-133945580D01*
X81119029Y-134117369D01*
X81051998Y-134279195D01*
X80954689Y-134424829D01*
X80830829Y-134548689D01*
X80685195Y-134645998D01*
X80523369Y-134713029D01*
X80351580Y-134747200D01*
X80176420Y-134747200D01*
X80004631Y-134713029D01*
X79842805Y-134645998D01*
X79697171Y-134548689D01*
X79573311Y-134424829D01*
X79476002Y-134279195D01*
X79408971Y-134117369D01*
X79374800Y-133945580D01*
X79374800Y-133770420D01*
X79408971Y-133598631D01*
X79476002Y-133436805D01*
X79573311Y-133291171D01*
X79697171Y-133167311D01*
X79842805Y-133070002D01*
X80004631Y-133002971D01*
X80176420Y-132968800D01*
X80351580Y-132968800D01*
X80523369Y-133002971D01*
G37*
G36*
X83063369Y-133002971D02*
G01*
X83225195Y-133070002D01*
X83370829Y-133167311D01*
X83494689Y-133291171D01*
X83591998Y-133436805D01*
X83659029Y-133598631D01*
X83693200Y-133770420D01*
X83693200Y-133945580D01*
X83659029Y-134117369D01*
X83591998Y-134279195D01*
X83494689Y-134424829D01*
X83370829Y-134548689D01*
X83225195Y-134645998D01*
X83063369Y-134713029D01*
X82891580Y-134747200D01*
X82716420Y-134747200D01*
X82544631Y-134713029D01*
X82382805Y-134645998D01*
X82237171Y-134548689D01*
X82113311Y-134424829D01*
X82016002Y-134279195D01*
X81948971Y-134117369D01*
X81914800Y-133945580D01*
X81914800Y-133770420D01*
X81948971Y-133598631D01*
X82016002Y-133436805D01*
X82113311Y-133291171D01*
X82237171Y-133167311D01*
X82382805Y-133070002D01*
X82544631Y-133002971D01*
X82716420Y-132968800D01*
X82891580Y-132968800D01*
X83063369Y-133002971D01*
G37*
G36*
X85603369Y-133002971D02*
G01*
X85765195Y-133070002D01*
X85910829Y-133167311D01*
X86034689Y-133291171D01*
X86131998Y-133436805D01*
X86199029Y-133598631D01*
X86233200Y-133770420D01*
X86233200Y-133945580D01*
X86199029Y-134117369D01*
X86131998Y-134279195D01*
X86034689Y-134424829D01*
X85910829Y-134548689D01*
X85765195Y-134645998D01*
X85603369Y-134713029D01*
X85431580Y-134747200D01*
X85256420Y-134747200D01*
X85084631Y-134713029D01*
X84922805Y-134645998D01*
X84777171Y-134548689D01*
X84653311Y-134424829D01*
X84556002Y-134279195D01*
X84488971Y-134117369D01*
X84454800Y-133945580D01*
X84454800Y-133770420D01*
X84488971Y-133598631D01*
X84556002Y-133436805D01*
X84653311Y-133291171D01*
X84777171Y-133167311D01*
X84922805Y-133070002D01*
X85084631Y-133002971D01*
X85256420Y-132968800D01*
X85431580Y-132968800D01*
X85603369Y-133002971D01*
G37*
G36*
X88143369Y-133002971D02*
G01*
X88305195Y-133070002D01*
X88450829Y-133167311D01*
X88574689Y-133291171D01*
X88671998Y-133436805D01*
X88739029Y-133598631D01*
X88773200Y-133770420D01*
X88773200Y-133945580D01*
X88739029Y-134117369D01*
X88671998Y-134279195D01*
X88574689Y-134424829D01*
X88450829Y-134548689D01*
X88305195Y-134645998D01*
X88143369Y-134713029D01*
X87971580Y-134747200D01*
X87796420Y-134747200D01*
X87624631Y-134713029D01*
X87462805Y-134645998D01*
X87317171Y-134548689D01*
X87193311Y-134424829D01*
X87096002Y-134279195D01*
X87028971Y-134117369D01*
X86994800Y-133945580D01*
X86994800Y-133770420D01*
X87028971Y-133598631D01*
X87096002Y-133436805D01*
X87193311Y-133291171D01*
X87317171Y-133167311D01*
X87462805Y-133070002D01*
X87624631Y-133002971D01*
X87796420Y-132968800D01*
X87971580Y-132968800D01*
X88143369Y-133002971D01*
G37*
G36*
X77983369Y-133002971D02*
G01*
X78145195Y-133070002D01*
X78290829Y-133167311D01*
X78414689Y-133291171D01*
X78511998Y-133436805D01*
X78579029Y-133598631D01*
X78613200Y-133770420D01*
X78613200Y-133945580D01*
X78579029Y-134117369D01*
X78511998Y-134279195D01*
X78414689Y-134424829D01*
X78290829Y-134548689D01*
X78145195Y-134645998D01*
X77983369Y-134713029D01*
X77811580Y-134747200D01*
X77636420Y-134747200D01*
X77464631Y-134713029D01*
X77302805Y-134645998D01*
X77157171Y-134548689D01*
X77033311Y-134424829D01*
X76936002Y-134279195D01*
X76868971Y-134117369D01*
X76834800Y-133945580D01*
X76834800Y-133770420D01*
X76868971Y-133598631D01*
X76936002Y-133436805D01*
X77033311Y-133291171D01*
X77157171Y-133167311D01*
X77302805Y-133070002D01*
X77464631Y-133002971D01*
X77636420Y-132968800D01*
X77811580Y-132968800D01*
X77983369Y-133002971D01*
G37*
G36*
X55112228Y-132028703D02*
G01*
X55267100Y-132092853D01*
X55406481Y-132185985D01*
X55525015Y-132304519D01*
X55618147Y-132443900D01*
X55682297Y-132598772D01*
X55715000Y-132763184D01*
X55715000Y-132930816D01*
X55682297Y-133095228D01*
X55618147Y-133250100D01*
X55525015Y-133389481D01*
X55406481Y-133508015D01*
X55267100Y-133601147D01*
X55112228Y-133665297D01*
X54947816Y-133698000D01*
X54780184Y-133698000D01*
X54615772Y-133665297D01*
X54460900Y-133601147D01*
X54321519Y-133508015D01*
X54202985Y-133389481D01*
X54109853Y-133250100D01*
X54045703Y-133095228D01*
X54013000Y-132930816D01*
X54013000Y-132763184D01*
X54045703Y-132598772D01*
X54109853Y-132443900D01*
X54202985Y-132304519D01*
X54321519Y-132185985D01*
X54460900Y-132092853D01*
X54615772Y-132028703D01*
X54780184Y-131996000D01*
X54947816Y-131996000D01*
X55112228Y-132028703D01*
G37*
G36*
X57652228Y-130643703D02*
G01*
X57807100Y-130707853D01*
X57946481Y-130800985D01*
X58065015Y-130919519D01*
X58158147Y-131058900D01*
X58222297Y-131213772D01*
X58255000Y-131378184D01*
X58255000Y-131545816D01*
X58222297Y-131710228D01*
X58158147Y-131865100D01*
X58065015Y-132004481D01*
X57946481Y-132123015D01*
X57807100Y-132216147D01*
X57652228Y-132280297D01*
X57487816Y-132313000D01*
X57320184Y-132313000D01*
X57155772Y-132280297D01*
X57000900Y-132216147D01*
X56861519Y-132123015D01*
X56742985Y-132004481D01*
X56649853Y-131865100D01*
X56585703Y-131710228D01*
X56553000Y-131545816D01*
X56553000Y-131378184D01*
X56585703Y-131213772D01*
X56649853Y-131058900D01*
X56742985Y-130919519D01*
X56861519Y-130800985D01*
X57000900Y-130707853D01*
X57155772Y-130643703D01*
X57320184Y-130611000D01*
X57487816Y-130611000D01*
X57652228Y-130643703D01*
G37*
G36*
X55112228Y-129258703D02*
G01*
X55267100Y-129322853D01*
X55406481Y-129415985D01*
X55525015Y-129534519D01*
X55618147Y-129673900D01*
X55682297Y-129828772D01*
X55715000Y-129993184D01*
X55715000Y-130160816D01*
X55682297Y-130325228D01*
X55618147Y-130480100D01*
X55525015Y-130619481D01*
X55406481Y-130738015D01*
X55267100Y-130831147D01*
X55112228Y-130895297D01*
X54947816Y-130928000D01*
X54780184Y-130928000D01*
X54615772Y-130895297D01*
X54460900Y-130831147D01*
X54321519Y-130738015D01*
X54202985Y-130619481D01*
X54109853Y-130480100D01*
X54045703Y-130325228D01*
X54013000Y-130160816D01*
X54013000Y-129993184D01*
X54045703Y-129828772D01*
X54109853Y-129673900D01*
X54202985Y-129534519D01*
X54321519Y-129415985D01*
X54460900Y-129322853D01*
X54615772Y-129258703D01*
X54780184Y-129226000D01*
X54947816Y-129226000D01*
X55112228Y-129258703D01*
G37*
G36*
X57652228Y-127873703D02*
G01*
X57807100Y-127937853D01*
X57946481Y-128030985D01*
X58065015Y-128149519D01*
X58158147Y-128288900D01*
X58222297Y-128443772D01*
X58255000Y-128608184D01*
X58255000Y-128775816D01*
X58222297Y-128940228D01*
X58158147Y-129095100D01*
X58065015Y-129234481D01*
X57946481Y-129353015D01*
X57807100Y-129446147D01*
X57652228Y-129510297D01*
X57487816Y-129543000D01*
X57320184Y-129543000D01*
X57155772Y-129510297D01*
X57000900Y-129446147D01*
X56861519Y-129353015D01*
X56742985Y-129234481D01*
X56649853Y-129095100D01*
X56585703Y-128940228D01*
X56553000Y-128775816D01*
X56553000Y-128608184D01*
X56585703Y-128443772D01*
X56649853Y-128288900D01*
X56742985Y-128149519D01*
X56861519Y-128030985D01*
X57000900Y-127937853D01*
X57155772Y-127873703D01*
X57320184Y-127841000D01*
X57487816Y-127841000D01*
X57652228Y-127873703D01*
G37*
G36*
X90418228Y-125419703D02*
G01*
X90573100Y-125483853D01*
X90712481Y-125576985D01*
X90831015Y-125695519D01*
X90924147Y-125834900D01*
X90988297Y-125989772D01*
X91021000Y-126154184D01*
X91021000Y-126321816D01*
X90988297Y-126486228D01*
X90924147Y-126641100D01*
X90831015Y-126780481D01*
X90712481Y-126899015D01*
X90573100Y-126992147D01*
X90418228Y-127056297D01*
X90253816Y-127089000D01*
X90086184Y-127089000D01*
X89921772Y-127056297D01*
X89766900Y-126992147D01*
X89627519Y-126899015D01*
X89508985Y-126780481D01*
X89415853Y-126641100D01*
X89351703Y-126486228D01*
X89319000Y-126321816D01*
X89319000Y-126154184D01*
X89351703Y-125989772D01*
X89415853Y-125834900D01*
X89508985Y-125695519D01*
X89627519Y-125576985D01*
X89766900Y-125483853D01*
X89921772Y-125419703D01*
X90086184Y-125387000D01*
X90253816Y-125387000D01*
X90418228Y-125419703D01*
G37*
G36*
X98038228Y-125419703D02*
G01*
X98193100Y-125483853D01*
X98332481Y-125576985D01*
X98451015Y-125695519D01*
X98544147Y-125834900D01*
X98608297Y-125989772D01*
X98641000Y-126154184D01*
X98641000Y-126321816D01*
X98608297Y-126486228D01*
X98544147Y-126641100D01*
X98451015Y-126780481D01*
X98332481Y-126899015D01*
X98193100Y-126992147D01*
X98038228Y-127056297D01*
X97873816Y-127089000D01*
X97706184Y-127089000D01*
X97541772Y-127056297D01*
X97386900Y-126992147D01*
X97247519Y-126899015D01*
X97128985Y-126780481D01*
X97035853Y-126641100D01*
X96971703Y-126486228D01*
X96939000Y-126321816D01*
X96939000Y-126154184D01*
X96971703Y-125989772D01*
X97035853Y-125834900D01*
X97128985Y-125695519D01*
X97247519Y-125576985D01*
X97386900Y-125483853D01*
X97541772Y-125419703D01*
X97706184Y-125387000D01*
X97873816Y-125387000D01*
X98038228Y-125419703D01*
G37*
G36*
X80258228Y-125419703D02*
G01*
X80413100Y-125483853D01*
X80552481Y-125576985D01*
X80671015Y-125695519D01*
X80764147Y-125834900D01*
X80828297Y-125989772D01*
X80861000Y-126154184D01*
X80861000Y-126321816D01*
X80828297Y-126486228D01*
X80764147Y-126641100D01*
X80671015Y-126780481D01*
X80552481Y-126899015D01*
X80413100Y-126992147D01*
X80258228Y-127056297D01*
X80093816Y-127089000D01*
X79926184Y-127089000D01*
X79761772Y-127056297D01*
X79606900Y-126992147D01*
X79467519Y-126899015D01*
X79348985Y-126780481D01*
X79255853Y-126641100D01*
X79191703Y-126486228D01*
X79159000Y-126321816D01*
X79159000Y-126154184D01*
X79191703Y-125989772D01*
X79255853Y-125834900D01*
X79348985Y-125695519D01*
X79467519Y-125576985D01*
X79606900Y-125483853D01*
X79761772Y-125419703D01*
X79926184Y-125387000D01*
X80093816Y-125387000D01*
X80258228Y-125419703D01*
G37*
G36*
X72638228Y-125419703D02*
G01*
X72793100Y-125483853D01*
X72932481Y-125576985D01*
X73051015Y-125695519D01*
X73144147Y-125834900D01*
X73208297Y-125989772D01*
X73241000Y-126154184D01*
X73241000Y-126321816D01*
X73208297Y-126486228D01*
X73144147Y-126641100D01*
X73051015Y-126780481D01*
X72932481Y-126899015D01*
X72793100Y-126992147D01*
X72638228Y-127056297D01*
X72473816Y-127089000D01*
X72306184Y-127089000D01*
X72141772Y-127056297D01*
X71986900Y-126992147D01*
X71847519Y-126899015D01*
X71728985Y-126780481D01*
X71635853Y-126641100D01*
X71571703Y-126486228D01*
X71539000Y-126321816D01*
X71539000Y-126154184D01*
X71571703Y-125989772D01*
X71635853Y-125834900D01*
X71728985Y-125695519D01*
X71847519Y-125576985D01*
X71986900Y-125483853D01*
X72141772Y-125419703D01*
X72306184Y-125387000D01*
X72473816Y-125387000D01*
X72638228Y-125419703D01*
G37*
G36*
X103372228Y-125419703D02*
G01*
X103527100Y-125483853D01*
X103666481Y-125576985D01*
X103785015Y-125695519D01*
X103878147Y-125834900D01*
X103942297Y-125989772D01*
X103975000Y-126154184D01*
X103975000Y-126321816D01*
X103942297Y-126486228D01*
X103878147Y-126641100D01*
X103785015Y-126780481D01*
X103666481Y-126899015D01*
X103527100Y-126992147D01*
X103372228Y-127056297D01*
X103207816Y-127089000D01*
X103040184Y-127089000D01*
X102875772Y-127056297D01*
X102720900Y-126992147D01*
X102581519Y-126899015D01*
X102462985Y-126780481D01*
X102369853Y-126641100D01*
X102305703Y-126486228D01*
X102273000Y-126321816D01*
X102273000Y-126154184D01*
X102305703Y-125989772D01*
X102369853Y-125834900D01*
X102462985Y-125695519D01*
X102581519Y-125576985D01*
X102720900Y-125483853D01*
X102875772Y-125419703D01*
X103040184Y-125387000D01*
X103207816Y-125387000D01*
X103372228Y-125419703D01*
G37*
G36*
X110992228Y-125419703D02*
G01*
X111147100Y-125483853D01*
X111286481Y-125576985D01*
X111405015Y-125695519D01*
X111498147Y-125834900D01*
X111562297Y-125989772D01*
X111595000Y-126154184D01*
X111595000Y-126321816D01*
X111562297Y-126486228D01*
X111498147Y-126641100D01*
X111405015Y-126780481D01*
X111286481Y-126899015D01*
X111147100Y-126992147D01*
X110992228Y-127056297D01*
X110827816Y-127089000D01*
X110660184Y-127089000D01*
X110495772Y-127056297D01*
X110340900Y-126992147D01*
X110201519Y-126899015D01*
X110082985Y-126780481D01*
X109989853Y-126641100D01*
X109925703Y-126486228D01*
X109893000Y-126321816D01*
X109893000Y-126154184D01*
X109925703Y-125989772D01*
X109989853Y-125834900D01*
X110082985Y-125695519D01*
X110201519Y-125576985D01*
X110340900Y-125483853D01*
X110495772Y-125419703D01*
X110660184Y-125387000D01*
X110827816Y-125387000D01*
X110992228Y-125419703D01*
G37*
G36*
X110992228Y-122879703D02*
G01*
X111147100Y-122943853D01*
X111286481Y-123036985D01*
X111405015Y-123155519D01*
X111498147Y-123294900D01*
X111562297Y-123449772D01*
X111595000Y-123614184D01*
X111595000Y-123781816D01*
X111562297Y-123946228D01*
X111498147Y-124101100D01*
X111405015Y-124240481D01*
X111286481Y-124359015D01*
X111147100Y-124452147D01*
X110992228Y-124516297D01*
X110827816Y-124549000D01*
X110660184Y-124549000D01*
X110495772Y-124516297D01*
X110340900Y-124452147D01*
X110201519Y-124359015D01*
X110082985Y-124240481D01*
X109989853Y-124101100D01*
X109925703Y-123946228D01*
X109893000Y-123781816D01*
X109893000Y-123614184D01*
X109925703Y-123449772D01*
X109989853Y-123294900D01*
X110082985Y-123155519D01*
X110201519Y-123036985D01*
X110340900Y-122943853D01*
X110495772Y-122879703D01*
X110660184Y-122847000D01*
X110827816Y-122847000D01*
X110992228Y-122879703D01*
G37*
G36*
X72638228Y-122879703D02*
G01*
X72793100Y-122943853D01*
X72932481Y-123036985D01*
X73051015Y-123155519D01*
X73144147Y-123294900D01*
X73208297Y-123449772D01*
X73241000Y-123614184D01*
X73241000Y-123781816D01*
X73208297Y-123946228D01*
X73144147Y-124101100D01*
X73051015Y-124240481D01*
X72932481Y-124359015D01*
X72793100Y-124452147D01*
X72638228Y-124516297D01*
X72473816Y-124549000D01*
X72306184Y-124549000D01*
X72141772Y-124516297D01*
X71986900Y-124452147D01*
X71847519Y-124359015D01*
X71728985Y-124240481D01*
X71635853Y-124101100D01*
X71571703Y-123946228D01*
X71539000Y-123781816D01*
X71539000Y-123614184D01*
X71571703Y-123449772D01*
X71635853Y-123294900D01*
X71728985Y-123155519D01*
X71847519Y-123036985D01*
X71986900Y-122943853D01*
X72141772Y-122879703D01*
X72306184Y-122847000D01*
X72473816Y-122847000D01*
X72638228Y-122879703D01*
G37*
G36*
X80258228Y-122879703D02*
G01*
X80413100Y-122943853D01*
X80552481Y-123036985D01*
X80671015Y-123155519D01*
X80764147Y-123294900D01*
X80828297Y-123449772D01*
X80861000Y-123614184D01*
X80861000Y-123781816D01*
X80828297Y-123946228D01*
X80764147Y-124101100D01*
X80671015Y-124240481D01*
X80552481Y-124359015D01*
X80413100Y-124452147D01*
X80258228Y-124516297D01*
X80093816Y-124549000D01*
X79926184Y-124549000D01*
X79761772Y-124516297D01*
X79606900Y-124452147D01*
X79467519Y-124359015D01*
X79348985Y-124240481D01*
X79255853Y-124101100D01*
X79191703Y-123946228D01*
X79159000Y-123781816D01*
X79159000Y-123614184D01*
X79191703Y-123449772D01*
X79255853Y-123294900D01*
X79348985Y-123155519D01*
X79467519Y-123036985D01*
X79606900Y-122943853D01*
X79761772Y-122879703D01*
X79926184Y-122847000D01*
X80093816Y-122847000D01*
X80258228Y-122879703D01*
G37*
G36*
X90418228Y-122879703D02*
G01*
X90573100Y-122943853D01*
X90712481Y-123036985D01*
X90831015Y-123155519D01*
X90924147Y-123294900D01*
X90988297Y-123449772D01*
X91021000Y-123614184D01*
X91021000Y-123781816D01*
X90988297Y-123946228D01*
X90924147Y-124101100D01*
X90831015Y-124240481D01*
X90712481Y-124359015D01*
X90573100Y-124452147D01*
X90418228Y-124516297D01*
X90253816Y-124549000D01*
X90086184Y-124549000D01*
X89921772Y-124516297D01*
X89766900Y-124452147D01*
X89627519Y-124359015D01*
X89508985Y-124240481D01*
X89415853Y-124101100D01*
X89351703Y-123946228D01*
X89319000Y-123781816D01*
X89319000Y-123614184D01*
X89351703Y-123449772D01*
X89415853Y-123294900D01*
X89508985Y-123155519D01*
X89627519Y-123036985D01*
X89766900Y-122943853D01*
X89921772Y-122879703D01*
X90086184Y-122847000D01*
X90253816Y-122847000D01*
X90418228Y-122879703D01*
G37*
G36*
X103372228Y-122879703D02*
G01*
X103527100Y-122943853D01*
X103666481Y-123036985D01*
X103785015Y-123155519D01*
X103878147Y-123294900D01*
X103942297Y-123449772D01*
X103975000Y-123614184D01*
X103975000Y-123781816D01*
X103942297Y-123946228D01*
X103878147Y-124101100D01*
X103785015Y-124240481D01*
X103666481Y-124359015D01*
X103527100Y-124452147D01*
X103372228Y-124516297D01*
X103207816Y-124549000D01*
X103040184Y-124549000D01*
X102875772Y-124516297D01*
X102720900Y-124452147D01*
X102581519Y-124359015D01*
X102462985Y-124240481D01*
X102369853Y-124101100D01*
X102305703Y-123946228D01*
X102273000Y-123781816D01*
X102273000Y-123614184D01*
X102305703Y-123449772D01*
X102369853Y-123294900D01*
X102462985Y-123155519D01*
X102581519Y-123036985D01*
X102720900Y-122943853D01*
X102875772Y-122879703D01*
X103040184Y-122847000D01*
X103207816Y-122847000D01*
X103372228Y-122879703D01*
G37*
G36*
X98038228Y-122879703D02*
G01*
X98193100Y-122943853D01*
X98332481Y-123036985D01*
X98451015Y-123155519D01*
X98544147Y-123294900D01*
X98608297Y-123449772D01*
X98641000Y-123614184D01*
X98641000Y-123781816D01*
X98608297Y-123946228D01*
X98544147Y-124101100D01*
X98451015Y-124240481D01*
X98332481Y-124359015D01*
X98193100Y-124452147D01*
X98038228Y-124516297D01*
X97873816Y-124549000D01*
X97706184Y-124549000D01*
X97541772Y-124516297D01*
X97386900Y-124452147D01*
X97247519Y-124359015D01*
X97128985Y-124240481D01*
X97035853Y-124101100D01*
X96971703Y-123946228D01*
X96939000Y-123781816D01*
X96939000Y-123614184D01*
X96971703Y-123449772D01*
X97035853Y-123294900D01*
X97128985Y-123155519D01*
X97247519Y-123036985D01*
X97386900Y-122943853D01*
X97541772Y-122879703D01*
X97706184Y-122847000D01*
X97873816Y-122847000D01*
X98038228Y-122879703D01*
G37*
G36*
X80258228Y-120339703D02*
G01*
X80413100Y-120403853D01*
X80552481Y-120496985D01*
X80671015Y-120615519D01*
X80764147Y-120754900D01*
X80828297Y-120909772D01*
X80861000Y-121074184D01*
X80861000Y-121241816D01*
X80828297Y-121406228D01*
X80764147Y-121561100D01*
X80671015Y-121700481D01*
X80552481Y-121819015D01*
X80413100Y-121912147D01*
X80258228Y-121976297D01*
X80093816Y-122009000D01*
X79926184Y-122009000D01*
X79761772Y-121976297D01*
X79606900Y-121912147D01*
X79467519Y-121819015D01*
X79348985Y-121700481D01*
X79255853Y-121561100D01*
X79191703Y-121406228D01*
X79159000Y-121241816D01*
X79159000Y-121074184D01*
X79191703Y-120909772D01*
X79255853Y-120754900D01*
X79348985Y-120615519D01*
X79467519Y-120496985D01*
X79606900Y-120403853D01*
X79761772Y-120339703D01*
X79926184Y-120307000D01*
X80093816Y-120307000D01*
X80258228Y-120339703D01*
G37*
G36*
X90418228Y-120339703D02*
G01*
X90573100Y-120403853D01*
X90712481Y-120496985D01*
X90831015Y-120615519D01*
X90924147Y-120754900D01*
X90988297Y-120909772D01*
X91021000Y-121074184D01*
X91021000Y-121241816D01*
X90988297Y-121406228D01*
X90924147Y-121561100D01*
X90831015Y-121700481D01*
X90712481Y-121819015D01*
X90573100Y-121912147D01*
X90418228Y-121976297D01*
X90253816Y-122009000D01*
X90086184Y-122009000D01*
X89921772Y-121976297D01*
X89766900Y-121912147D01*
X89627519Y-121819015D01*
X89508985Y-121700481D01*
X89415853Y-121561100D01*
X89351703Y-121406228D01*
X89319000Y-121241816D01*
X89319000Y-121074184D01*
X89351703Y-120909772D01*
X89415853Y-120754900D01*
X89508985Y-120615519D01*
X89627519Y-120496985D01*
X89766900Y-120403853D01*
X89921772Y-120339703D01*
X90086184Y-120307000D01*
X90253816Y-120307000D01*
X90418228Y-120339703D01*
G37*
G36*
X98038228Y-120339703D02*
G01*
X98193100Y-120403853D01*
X98332481Y-120496985D01*
X98451015Y-120615519D01*
X98544147Y-120754900D01*
X98608297Y-120909772D01*
X98641000Y-121074184D01*
X98641000Y-121241816D01*
X98608297Y-121406228D01*
X98544147Y-121561100D01*
X98451015Y-121700481D01*
X98332481Y-121819015D01*
X98193100Y-121912147D01*
X98038228Y-121976297D01*
X97873816Y-122009000D01*
X97706184Y-122009000D01*
X97541772Y-121976297D01*
X97386900Y-121912147D01*
X97247519Y-121819015D01*
X97128985Y-121700481D01*
X97035853Y-121561100D01*
X96971703Y-121406228D01*
X96939000Y-121241816D01*
X96939000Y-121074184D01*
X96971703Y-120909772D01*
X97035853Y-120754900D01*
X97128985Y-120615519D01*
X97247519Y-120496985D01*
X97386900Y-120403853D01*
X97541772Y-120339703D01*
X97706184Y-120307000D01*
X97873816Y-120307000D01*
X98038228Y-120339703D01*
G37*
G36*
X110992228Y-120339703D02*
G01*
X111147100Y-120403853D01*
X111286481Y-120496985D01*
X111405015Y-120615519D01*
X111498147Y-120754900D01*
X111562297Y-120909772D01*
X111595000Y-121074184D01*
X111595000Y-121241816D01*
X111562297Y-121406228D01*
X111498147Y-121561100D01*
X111405015Y-121700481D01*
X111286481Y-121819015D01*
X111147100Y-121912147D01*
X110992228Y-121976297D01*
X110827816Y-122009000D01*
X110660184Y-122009000D01*
X110495772Y-121976297D01*
X110340900Y-121912147D01*
X110201519Y-121819015D01*
X110082985Y-121700481D01*
X109989853Y-121561100D01*
X109925703Y-121406228D01*
X109893000Y-121241816D01*
X109893000Y-121074184D01*
X109925703Y-120909772D01*
X109989853Y-120754900D01*
X110082985Y-120615519D01*
X110201519Y-120496985D01*
X110340900Y-120403853D01*
X110495772Y-120339703D01*
X110660184Y-120307000D01*
X110827816Y-120307000D01*
X110992228Y-120339703D01*
G37*
G36*
X103372228Y-120339703D02*
G01*
X103527100Y-120403853D01*
X103666481Y-120496985D01*
X103785015Y-120615519D01*
X103878147Y-120754900D01*
X103942297Y-120909772D01*
X103975000Y-121074184D01*
X103975000Y-121241816D01*
X103942297Y-121406228D01*
X103878147Y-121561100D01*
X103785015Y-121700481D01*
X103666481Y-121819015D01*
X103527100Y-121912147D01*
X103372228Y-121976297D01*
X103207816Y-122009000D01*
X103040184Y-122009000D01*
X102875772Y-121976297D01*
X102720900Y-121912147D01*
X102581519Y-121819015D01*
X102462985Y-121700481D01*
X102369853Y-121561100D01*
X102305703Y-121406228D01*
X102273000Y-121241816D01*
X102273000Y-121074184D01*
X102305703Y-120909772D01*
X102369853Y-120754900D01*
X102462985Y-120615519D01*
X102581519Y-120496985D01*
X102720900Y-120403853D01*
X102875772Y-120339703D01*
X103040184Y-120307000D01*
X103207816Y-120307000D01*
X103372228Y-120339703D01*
G37*
G36*
X72638228Y-120339703D02*
G01*
X72793100Y-120403853D01*
X72932481Y-120496985D01*
X73051015Y-120615519D01*
X73144147Y-120754900D01*
X73208297Y-120909772D01*
X73241000Y-121074184D01*
X73241000Y-121241816D01*
X73208297Y-121406228D01*
X73144147Y-121561100D01*
X73051015Y-121700481D01*
X72932481Y-121819015D01*
X72793100Y-121912147D01*
X72638228Y-121976297D01*
X72473816Y-122009000D01*
X72306184Y-122009000D01*
X72141772Y-121976297D01*
X71986900Y-121912147D01*
X71847519Y-121819015D01*
X71728985Y-121700481D01*
X71635853Y-121561100D01*
X71571703Y-121406228D01*
X71539000Y-121241816D01*
X71539000Y-121074184D01*
X71571703Y-120909772D01*
X71635853Y-120754900D01*
X71728985Y-120615519D01*
X71847519Y-120496985D01*
X71986900Y-120403853D01*
X72141772Y-120339703D01*
X72306184Y-120307000D01*
X72473816Y-120307000D01*
X72638228Y-120339703D01*
G37*
G36*
X72638228Y-117799703D02*
G01*
X72793100Y-117863853D01*
X72932481Y-117956985D01*
X73051015Y-118075519D01*
X73144147Y-118214900D01*
X73208297Y-118369772D01*
X73241000Y-118534184D01*
X73241000Y-118701816D01*
X73208297Y-118866228D01*
X73144147Y-119021100D01*
X73051015Y-119160481D01*
X72932481Y-119279015D01*
X72793100Y-119372147D01*
X72638228Y-119436297D01*
X72473816Y-119469000D01*
X72306184Y-119469000D01*
X72141772Y-119436297D01*
X71986900Y-119372147D01*
X71847519Y-119279015D01*
X71728985Y-119160481D01*
X71635853Y-119021100D01*
X71571703Y-118866228D01*
X71539000Y-118701816D01*
X71539000Y-118534184D01*
X71571703Y-118369772D01*
X71635853Y-118214900D01*
X71728985Y-118075519D01*
X71847519Y-117956985D01*
X71986900Y-117863853D01*
X72141772Y-117799703D01*
X72306184Y-117767000D01*
X72473816Y-117767000D01*
X72638228Y-117799703D01*
G37*
G36*
X110992228Y-117799703D02*
G01*
X111147100Y-117863853D01*
X111286481Y-117956985D01*
X111405015Y-118075519D01*
X111498147Y-118214900D01*
X111562297Y-118369772D01*
X111595000Y-118534184D01*
X111595000Y-118701816D01*
X111562297Y-118866228D01*
X111498147Y-119021100D01*
X111405015Y-119160481D01*
X111286481Y-119279015D01*
X111147100Y-119372147D01*
X110992228Y-119436297D01*
X110827816Y-119469000D01*
X110660184Y-119469000D01*
X110495772Y-119436297D01*
X110340900Y-119372147D01*
X110201519Y-119279015D01*
X110082985Y-119160481D01*
X109989853Y-119021100D01*
X109925703Y-118866228D01*
X109893000Y-118701816D01*
X109893000Y-118534184D01*
X109925703Y-118369772D01*
X109989853Y-118214900D01*
X110082985Y-118075519D01*
X110201519Y-117956985D01*
X110340900Y-117863853D01*
X110495772Y-117799703D01*
X110660184Y-117767000D01*
X110827816Y-117767000D01*
X110992228Y-117799703D01*
G37*
G36*
X103372228Y-117799703D02*
G01*
X103527100Y-117863853D01*
X103666481Y-117956985D01*
X103785015Y-118075519D01*
X103878147Y-118214900D01*
X103942297Y-118369772D01*
X103975000Y-118534184D01*
X103975000Y-118701816D01*
X103942297Y-118866228D01*
X103878147Y-119021100D01*
X103785015Y-119160481D01*
X103666481Y-119279015D01*
X103527100Y-119372147D01*
X103372228Y-119436297D01*
X103207816Y-119469000D01*
X103040184Y-119469000D01*
X102875772Y-119436297D01*
X102720900Y-119372147D01*
X102581519Y-119279015D01*
X102462985Y-119160481D01*
X102369853Y-119021100D01*
X102305703Y-118866228D01*
X102273000Y-118701816D01*
X102273000Y-118534184D01*
X102305703Y-118369772D01*
X102369853Y-118214900D01*
X102462985Y-118075519D01*
X102581519Y-117956985D01*
X102720900Y-117863853D01*
X102875772Y-117799703D01*
X103040184Y-117767000D01*
X103207816Y-117767000D01*
X103372228Y-117799703D01*
G37*
G36*
X90418228Y-117799703D02*
G01*
X90573100Y-117863853D01*
X90712481Y-117956985D01*
X90831015Y-118075519D01*
X90924147Y-118214900D01*
X90988297Y-118369772D01*
X91021000Y-118534184D01*
X91021000Y-118701816D01*
X90988297Y-118866228D01*
X90924147Y-119021100D01*
X90831015Y-119160481D01*
X90712481Y-119279015D01*
X90573100Y-119372147D01*
X90418228Y-119436297D01*
X90253816Y-119469000D01*
X90086184Y-119469000D01*
X89921772Y-119436297D01*
X89766900Y-119372147D01*
X89627519Y-119279015D01*
X89508985Y-119160481D01*
X89415853Y-119021100D01*
X89351703Y-118866228D01*
X89319000Y-118701816D01*
X89319000Y-118534184D01*
X89351703Y-118369772D01*
X89415853Y-118214900D01*
X89508985Y-118075519D01*
X89627519Y-117956985D01*
X89766900Y-117863853D01*
X89921772Y-117799703D01*
X90086184Y-117767000D01*
X90253816Y-117767000D01*
X90418228Y-117799703D01*
G37*
G36*
X80258228Y-117799703D02*
G01*
X80413100Y-117863853D01*
X80552481Y-117956985D01*
X80671015Y-118075519D01*
X80764147Y-118214900D01*
X80828297Y-118369772D01*
X80861000Y-118534184D01*
X80861000Y-118701816D01*
X80828297Y-118866228D01*
X80764147Y-119021100D01*
X80671015Y-119160481D01*
X80552481Y-119279015D01*
X80413100Y-119372147D01*
X80258228Y-119436297D01*
X80093816Y-119469000D01*
X79926184Y-119469000D01*
X79761772Y-119436297D01*
X79606900Y-119372147D01*
X79467519Y-119279015D01*
X79348985Y-119160481D01*
X79255853Y-119021100D01*
X79191703Y-118866228D01*
X79159000Y-118701816D01*
X79159000Y-118534184D01*
X79191703Y-118369772D01*
X79255853Y-118214900D01*
X79348985Y-118075519D01*
X79467519Y-117956985D01*
X79606900Y-117863853D01*
X79761772Y-117799703D01*
X79926184Y-117767000D01*
X80093816Y-117767000D01*
X80258228Y-117799703D01*
G37*
G36*
X98038228Y-117799703D02*
G01*
X98193100Y-117863853D01*
X98332481Y-117956985D01*
X98451015Y-118075519D01*
X98544147Y-118214900D01*
X98608297Y-118369772D01*
X98641000Y-118534184D01*
X98641000Y-118701816D01*
X98608297Y-118866228D01*
X98544147Y-119021100D01*
X98451015Y-119160481D01*
X98332481Y-119279015D01*
X98193100Y-119372147D01*
X98038228Y-119436297D01*
X97873816Y-119469000D01*
X97706184Y-119469000D01*
X97541772Y-119436297D01*
X97386900Y-119372147D01*
X97247519Y-119279015D01*
X97128985Y-119160481D01*
X97035853Y-119021100D01*
X96971703Y-118866228D01*
X96939000Y-118701816D01*
X96939000Y-118534184D01*
X96971703Y-118369772D01*
X97035853Y-118214900D01*
X97128985Y-118075519D01*
X97247519Y-117956985D01*
X97386900Y-117863853D01*
X97541772Y-117799703D01*
X97706184Y-117767000D01*
X97873816Y-117767000D01*
X98038228Y-117799703D01*
G37*
G36*
X80258228Y-115259703D02*
G01*
X80413100Y-115323853D01*
X80552481Y-115416985D01*
X80671015Y-115535519D01*
X80764147Y-115674900D01*
X80828297Y-115829772D01*
X80861000Y-115994184D01*
X80861000Y-116161816D01*
X80828297Y-116326228D01*
X80764147Y-116481100D01*
X80671015Y-116620481D01*
X80552481Y-116739015D01*
X80413100Y-116832147D01*
X80258228Y-116896297D01*
X80093816Y-116929000D01*
X79926184Y-116929000D01*
X79761772Y-116896297D01*
X79606900Y-116832147D01*
X79467519Y-116739015D01*
X79348985Y-116620481D01*
X79255853Y-116481100D01*
X79191703Y-116326228D01*
X79159000Y-116161816D01*
X79159000Y-115994184D01*
X79191703Y-115829772D01*
X79255853Y-115674900D01*
X79348985Y-115535519D01*
X79467519Y-115416985D01*
X79606900Y-115323853D01*
X79761772Y-115259703D01*
X79926184Y-115227000D01*
X80093816Y-115227000D01*
X80258228Y-115259703D01*
G37*
G36*
X103372228Y-115259703D02*
G01*
X103527100Y-115323853D01*
X103666481Y-115416985D01*
X103785015Y-115535519D01*
X103878147Y-115674900D01*
X103942297Y-115829772D01*
X103975000Y-115994184D01*
X103975000Y-116161816D01*
X103942297Y-116326228D01*
X103878147Y-116481100D01*
X103785015Y-116620481D01*
X103666481Y-116739015D01*
X103527100Y-116832147D01*
X103372228Y-116896297D01*
X103207816Y-116929000D01*
X103040184Y-116929000D01*
X102875772Y-116896297D01*
X102720900Y-116832147D01*
X102581519Y-116739015D01*
X102462985Y-116620481D01*
X102369853Y-116481100D01*
X102305703Y-116326228D01*
X102273000Y-116161816D01*
X102273000Y-115994184D01*
X102305703Y-115829772D01*
X102369853Y-115674900D01*
X102462985Y-115535519D01*
X102581519Y-115416985D01*
X102720900Y-115323853D01*
X102875772Y-115259703D01*
X103040184Y-115227000D01*
X103207816Y-115227000D01*
X103372228Y-115259703D01*
G37*
G36*
X110992228Y-115259703D02*
G01*
X111147100Y-115323853D01*
X111286481Y-115416985D01*
X111405015Y-115535519D01*
X111498147Y-115674900D01*
X111562297Y-115829772D01*
X111595000Y-115994184D01*
X111595000Y-116161816D01*
X111562297Y-116326228D01*
X111498147Y-116481100D01*
X111405015Y-116620481D01*
X111286481Y-116739015D01*
X111147100Y-116832147D01*
X110992228Y-116896297D01*
X110827816Y-116929000D01*
X110660184Y-116929000D01*
X110495772Y-116896297D01*
X110340900Y-116832147D01*
X110201519Y-116739015D01*
X110082985Y-116620481D01*
X109989853Y-116481100D01*
X109925703Y-116326228D01*
X109893000Y-116161816D01*
X109893000Y-115994184D01*
X109925703Y-115829772D01*
X109989853Y-115674900D01*
X110082985Y-115535519D01*
X110201519Y-115416985D01*
X110340900Y-115323853D01*
X110495772Y-115259703D01*
X110660184Y-115227000D01*
X110827816Y-115227000D01*
X110992228Y-115259703D01*
G37*
G36*
X72638228Y-115259703D02*
G01*
X72793100Y-115323853D01*
X72932481Y-115416985D01*
X73051015Y-115535519D01*
X73144147Y-115674900D01*
X73208297Y-115829772D01*
X73241000Y-115994184D01*
X73241000Y-116161816D01*
X73208297Y-116326228D01*
X73144147Y-116481100D01*
X73051015Y-116620481D01*
X72932481Y-116739015D01*
X72793100Y-116832147D01*
X72638228Y-116896297D01*
X72473816Y-116929000D01*
X72306184Y-116929000D01*
X72141772Y-116896297D01*
X71986900Y-116832147D01*
X71847519Y-116739015D01*
X71728985Y-116620481D01*
X71635853Y-116481100D01*
X71571703Y-116326228D01*
X71539000Y-116161816D01*
X71539000Y-115994184D01*
X71571703Y-115829772D01*
X71635853Y-115674900D01*
X71728985Y-115535519D01*
X71847519Y-115416985D01*
X71986900Y-115323853D01*
X72141772Y-115259703D01*
X72306184Y-115227000D01*
X72473816Y-115227000D01*
X72638228Y-115259703D01*
G37*
G36*
X90418228Y-115259703D02*
G01*
X90573100Y-115323853D01*
X90712481Y-115416985D01*
X90831015Y-115535519D01*
X90924147Y-115674900D01*
X90988297Y-115829772D01*
X91021000Y-115994184D01*
X91021000Y-116161816D01*
X90988297Y-116326228D01*
X90924147Y-116481100D01*
X90831015Y-116620481D01*
X90712481Y-116739015D01*
X90573100Y-116832147D01*
X90418228Y-116896297D01*
X90253816Y-116929000D01*
X90086184Y-116929000D01*
X89921772Y-116896297D01*
X89766900Y-116832147D01*
X89627519Y-116739015D01*
X89508985Y-116620481D01*
X89415853Y-116481100D01*
X89351703Y-116326228D01*
X89319000Y-116161816D01*
X89319000Y-115994184D01*
X89351703Y-115829772D01*
X89415853Y-115674900D01*
X89508985Y-115535519D01*
X89627519Y-115416985D01*
X89766900Y-115323853D01*
X89921772Y-115259703D01*
X90086184Y-115227000D01*
X90253816Y-115227000D01*
X90418228Y-115259703D01*
G37*
G36*
X98038228Y-115259703D02*
G01*
X98193100Y-115323853D01*
X98332481Y-115416985D01*
X98451015Y-115535519D01*
X98544147Y-115674900D01*
X98608297Y-115829772D01*
X98641000Y-115994184D01*
X98641000Y-116161816D01*
X98608297Y-116326228D01*
X98544147Y-116481100D01*
X98451015Y-116620481D01*
X98332481Y-116739015D01*
X98193100Y-116832147D01*
X98038228Y-116896297D01*
X97873816Y-116929000D01*
X97706184Y-116929000D01*
X97541772Y-116896297D01*
X97386900Y-116832147D01*
X97247519Y-116739015D01*
X97128985Y-116620481D01*
X97035853Y-116481100D01*
X96971703Y-116326228D01*
X96939000Y-116161816D01*
X96939000Y-115994184D01*
X96971703Y-115829772D01*
X97035853Y-115674900D01*
X97128985Y-115535519D01*
X97247519Y-115416985D01*
X97386900Y-115323853D01*
X97541772Y-115259703D01*
X97706184Y-115227000D01*
X97873816Y-115227000D01*
X98038228Y-115259703D01*
G37*
G36*
X80258228Y-112719703D02*
G01*
X80413100Y-112783853D01*
X80552481Y-112876985D01*
X80671015Y-112995519D01*
X80764147Y-113134900D01*
X80828297Y-113289772D01*
X80861000Y-113454184D01*
X80861000Y-113621816D01*
X80828297Y-113786228D01*
X80764147Y-113941100D01*
X80671015Y-114080481D01*
X80552481Y-114199015D01*
X80413100Y-114292147D01*
X80258228Y-114356297D01*
X80093816Y-114389000D01*
X79926184Y-114389000D01*
X79761772Y-114356297D01*
X79606900Y-114292147D01*
X79467519Y-114199015D01*
X79348985Y-114080481D01*
X79255853Y-113941100D01*
X79191703Y-113786228D01*
X79159000Y-113621816D01*
X79159000Y-113454184D01*
X79191703Y-113289772D01*
X79255853Y-113134900D01*
X79348985Y-112995519D01*
X79467519Y-112876985D01*
X79606900Y-112783853D01*
X79761772Y-112719703D01*
X79926184Y-112687000D01*
X80093816Y-112687000D01*
X80258228Y-112719703D01*
G37*
G36*
X110992228Y-112719703D02*
G01*
X111147100Y-112783853D01*
X111286481Y-112876985D01*
X111405015Y-112995519D01*
X111498147Y-113134900D01*
X111562297Y-113289772D01*
X111595000Y-113454184D01*
X111595000Y-113621816D01*
X111562297Y-113786228D01*
X111498147Y-113941100D01*
X111405015Y-114080481D01*
X111286481Y-114199015D01*
X111147100Y-114292147D01*
X110992228Y-114356297D01*
X110827816Y-114389000D01*
X110660184Y-114389000D01*
X110495772Y-114356297D01*
X110340900Y-114292147D01*
X110201519Y-114199015D01*
X110082985Y-114080481D01*
X109989853Y-113941100D01*
X109925703Y-113786228D01*
X109893000Y-113621816D01*
X109893000Y-113454184D01*
X109925703Y-113289772D01*
X109989853Y-113134900D01*
X110082985Y-112995519D01*
X110201519Y-112876985D01*
X110340900Y-112783853D01*
X110495772Y-112719703D01*
X110660184Y-112687000D01*
X110827816Y-112687000D01*
X110992228Y-112719703D01*
G37*
G36*
X72638228Y-112719703D02*
G01*
X72793100Y-112783853D01*
X72932481Y-112876985D01*
X73051015Y-112995519D01*
X73144147Y-113134900D01*
X73208297Y-113289772D01*
X73241000Y-113454184D01*
X73241000Y-113621816D01*
X73208297Y-113786228D01*
X73144147Y-113941100D01*
X73051015Y-114080481D01*
X72932481Y-114199015D01*
X72793100Y-114292147D01*
X72638228Y-114356297D01*
X72473816Y-114389000D01*
X72306184Y-114389000D01*
X72141772Y-114356297D01*
X71986900Y-114292147D01*
X71847519Y-114199015D01*
X71728985Y-114080481D01*
X71635853Y-113941100D01*
X71571703Y-113786228D01*
X71539000Y-113621816D01*
X71539000Y-113454184D01*
X71571703Y-113289772D01*
X71635853Y-113134900D01*
X71728985Y-112995519D01*
X71847519Y-112876985D01*
X71986900Y-112783853D01*
X72141772Y-112719703D01*
X72306184Y-112687000D01*
X72473816Y-112687000D01*
X72638228Y-112719703D01*
G37*
G36*
X98038228Y-112719703D02*
G01*
X98193100Y-112783853D01*
X98332481Y-112876985D01*
X98451015Y-112995519D01*
X98544147Y-113134900D01*
X98608297Y-113289772D01*
X98641000Y-113454184D01*
X98641000Y-113621816D01*
X98608297Y-113786228D01*
X98544147Y-113941100D01*
X98451015Y-114080481D01*
X98332481Y-114199015D01*
X98193100Y-114292147D01*
X98038228Y-114356297D01*
X97873816Y-114389000D01*
X97706184Y-114389000D01*
X97541772Y-114356297D01*
X97386900Y-114292147D01*
X97247519Y-114199015D01*
X97128985Y-114080481D01*
X97035853Y-113941100D01*
X96971703Y-113786228D01*
X96939000Y-113621816D01*
X96939000Y-113454184D01*
X96971703Y-113289772D01*
X97035853Y-113134900D01*
X97128985Y-112995519D01*
X97247519Y-112876985D01*
X97386900Y-112783853D01*
X97541772Y-112719703D01*
X97706184Y-112687000D01*
X97873816Y-112687000D01*
X98038228Y-112719703D01*
G37*
G36*
X90418228Y-112719703D02*
G01*
X90573100Y-112783853D01*
X90712481Y-112876985D01*
X90831015Y-112995519D01*
X90924147Y-113134900D01*
X90988297Y-113289772D01*
X91021000Y-113454184D01*
X91021000Y-113621816D01*
X90988297Y-113786228D01*
X90924147Y-113941100D01*
X90831015Y-114080481D01*
X90712481Y-114199015D01*
X90573100Y-114292147D01*
X90418228Y-114356297D01*
X90253816Y-114389000D01*
X90086184Y-114389000D01*
X89921772Y-114356297D01*
X89766900Y-114292147D01*
X89627519Y-114199015D01*
X89508985Y-114080481D01*
X89415853Y-113941100D01*
X89351703Y-113786228D01*
X89319000Y-113621816D01*
X89319000Y-113454184D01*
X89351703Y-113289772D01*
X89415853Y-113134900D01*
X89508985Y-112995519D01*
X89627519Y-112876985D01*
X89766900Y-112783853D01*
X89921772Y-112719703D01*
X90086184Y-112687000D01*
X90253816Y-112687000D01*
X90418228Y-112719703D01*
G37*
G36*
X103372228Y-112719703D02*
G01*
X103527100Y-112783853D01*
X103666481Y-112876985D01*
X103785015Y-112995519D01*
X103878147Y-113134900D01*
X103942297Y-113289772D01*
X103975000Y-113454184D01*
X103975000Y-113621816D01*
X103942297Y-113786228D01*
X103878147Y-113941100D01*
X103785015Y-114080481D01*
X103666481Y-114199015D01*
X103527100Y-114292147D01*
X103372228Y-114356297D01*
X103207816Y-114389000D01*
X103040184Y-114389000D01*
X102875772Y-114356297D01*
X102720900Y-114292147D01*
X102581519Y-114199015D01*
X102462985Y-114080481D01*
X102369853Y-113941100D01*
X102305703Y-113786228D01*
X102273000Y-113621816D01*
X102273000Y-113454184D01*
X102305703Y-113289772D01*
X102369853Y-113134900D01*
X102462985Y-112995519D01*
X102581519Y-112876985D01*
X102720900Y-112783853D01*
X102875772Y-112719703D01*
X103040184Y-112687000D01*
X103207816Y-112687000D01*
X103372228Y-112719703D01*
G37*
G36*
X110992228Y-110179703D02*
G01*
X111147100Y-110243853D01*
X111286481Y-110336985D01*
X111405015Y-110455519D01*
X111498147Y-110594900D01*
X111562297Y-110749772D01*
X111595000Y-110914184D01*
X111595000Y-111081816D01*
X111562297Y-111246228D01*
X111498147Y-111401100D01*
X111405015Y-111540481D01*
X111286481Y-111659015D01*
X111147100Y-111752147D01*
X110992228Y-111816297D01*
X110827816Y-111849000D01*
X110660184Y-111849000D01*
X110495772Y-111816297D01*
X110340900Y-111752147D01*
X110201519Y-111659015D01*
X110082985Y-111540481D01*
X109989853Y-111401100D01*
X109925703Y-111246228D01*
X109893000Y-111081816D01*
X109893000Y-110914184D01*
X109925703Y-110749772D01*
X109989853Y-110594900D01*
X110082985Y-110455519D01*
X110201519Y-110336985D01*
X110340900Y-110243853D01*
X110495772Y-110179703D01*
X110660184Y-110147000D01*
X110827816Y-110147000D01*
X110992228Y-110179703D01*
G37*
G36*
X80258228Y-110179703D02*
G01*
X80413100Y-110243853D01*
X80552481Y-110336985D01*
X80671015Y-110455519D01*
X80764147Y-110594900D01*
X80828297Y-110749772D01*
X80861000Y-110914184D01*
X80861000Y-111081816D01*
X80828297Y-111246228D01*
X80764147Y-111401100D01*
X80671015Y-111540481D01*
X80552481Y-111659015D01*
X80413100Y-111752147D01*
X80258228Y-111816297D01*
X80093816Y-111849000D01*
X79926184Y-111849000D01*
X79761772Y-111816297D01*
X79606900Y-111752147D01*
X79467519Y-111659015D01*
X79348985Y-111540481D01*
X79255853Y-111401100D01*
X79191703Y-111246228D01*
X79159000Y-111081816D01*
X79159000Y-110914184D01*
X79191703Y-110749772D01*
X79255853Y-110594900D01*
X79348985Y-110455519D01*
X79467519Y-110336985D01*
X79606900Y-110243853D01*
X79761772Y-110179703D01*
X79926184Y-110147000D01*
X80093816Y-110147000D01*
X80258228Y-110179703D01*
G37*
G36*
X103372228Y-110179703D02*
G01*
X103527100Y-110243853D01*
X103666481Y-110336985D01*
X103785015Y-110455519D01*
X103878147Y-110594900D01*
X103942297Y-110749772D01*
X103975000Y-110914184D01*
X103975000Y-111081816D01*
X103942297Y-111246228D01*
X103878147Y-111401100D01*
X103785015Y-111540481D01*
X103666481Y-111659015D01*
X103527100Y-111752147D01*
X103372228Y-111816297D01*
X103207816Y-111849000D01*
X103040184Y-111849000D01*
X102875772Y-111816297D01*
X102720900Y-111752147D01*
X102581519Y-111659015D01*
X102462985Y-111540481D01*
X102369853Y-111401100D01*
X102305703Y-111246228D01*
X102273000Y-111081816D01*
X102273000Y-110914184D01*
X102305703Y-110749772D01*
X102369853Y-110594900D01*
X102462985Y-110455519D01*
X102581519Y-110336985D01*
X102720900Y-110243853D01*
X102875772Y-110179703D01*
X103040184Y-110147000D01*
X103207816Y-110147000D01*
X103372228Y-110179703D01*
G37*
G36*
X72638228Y-110179703D02*
G01*
X72793100Y-110243853D01*
X72932481Y-110336985D01*
X73051015Y-110455519D01*
X73144147Y-110594900D01*
X73208297Y-110749772D01*
X73241000Y-110914184D01*
X73241000Y-111081816D01*
X73208297Y-111246228D01*
X73144147Y-111401100D01*
X73051015Y-111540481D01*
X72932481Y-111659015D01*
X72793100Y-111752147D01*
X72638228Y-111816297D01*
X72473816Y-111849000D01*
X72306184Y-111849000D01*
X72141772Y-111816297D01*
X71986900Y-111752147D01*
X71847519Y-111659015D01*
X71728985Y-111540481D01*
X71635853Y-111401100D01*
X71571703Y-111246228D01*
X71539000Y-111081816D01*
X71539000Y-110914184D01*
X71571703Y-110749772D01*
X71635853Y-110594900D01*
X71728985Y-110455519D01*
X71847519Y-110336985D01*
X71986900Y-110243853D01*
X72141772Y-110179703D01*
X72306184Y-110147000D01*
X72473816Y-110147000D01*
X72638228Y-110179703D01*
G37*
G36*
X90418228Y-110179703D02*
G01*
X90573100Y-110243853D01*
X90712481Y-110336985D01*
X90831015Y-110455519D01*
X90924147Y-110594900D01*
X90988297Y-110749772D01*
X91021000Y-110914184D01*
X91021000Y-111081816D01*
X90988297Y-111246228D01*
X90924147Y-111401100D01*
X90831015Y-111540481D01*
X90712481Y-111659015D01*
X90573100Y-111752147D01*
X90418228Y-111816297D01*
X90253816Y-111849000D01*
X90086184Y-111849000D01*
X89921772Y-111816297D01*
X89766900Y-111752147D01*
X89627519Y-111659015D01*
X89508985Y-111540481D01*
X89415853Y-111401100D01*
X89351703Y-111246228D01*
X89319000Y-111081816D01*
X89319000Y-110914184D01*
X89351703Y-110749772D01*
X89415853Y-110594900D01*
X89508985Y-110455519D01*
X89627519Y-110336985D01*
X89766900Y-110243853D01*
X89921772Y-110179703D01*
X90086184Y-110147000D01*
X90253816Y-110147000D01*
X90418228Y-110179703D01*
G37*
G36*
X98038228Y-110179703D02*
G01*
X98193100Y-110243853D01*
X98332481Y-110336985D01*
X98451015Y-110455519D01*
X98544147Y-110594900D01*
X98608297Y-110749772D01*
X98641000Y-110914184D01*
X98641000Y-111081816D01*
X98608297Y-111246228D01*
X98544147Y-111401100D01*
X98451015Y-111540481D01*
X98332481Y-111659015D01*
X98193100Y-111752147D01*
X98038228Y-111816297D01*
X97873816Y-111849000D01*
X97706184Y-111849000D01*
X97541772Y-111816297D01*
X97386900Y-111752147D01*
X97247519Y-111659015D01*
X97128985Y-111540481D01*
X97035853Y-111401100D01*
X96971703Y-111246228D01*
X96939000Y-111081816D01*
X96939000Y-110914184D01*
X96971703Y-110749772D01*
X97035853Y-110594900D01*
X97128985Y-110455519D01*
X97247519Y-110336985D01*
X97386900Y-110243853D01*
X97541772Y-110179703D01*
X97706184Y-110147000D01*
X97873816Y-110147000D01*
X98038228Y-110179703D01*
G37*
G36*
X55620228Y-109163703D02*
G01*
X55775100Y-109227853D01*
X55914481Y-109320985D01*
X56033015Y-109439519D01*
X56126147Y-109578900D01*
X56190297Y-109733772D01*
X56223000Y-109898184D01*
X56223000Y-110065816D01*
X56190297Y-110230228D01*
X56126147Y-110385100D01*
X56033015Y-110524481D01*
X55914481Y-110643015D01*
X55775100Y-110736147D01*
X55620228Y-110800297D01*
X55455816Y-110833000D01*
X55288184Y-110833000D01*
X55123772Y-110800297D01*
X54968900Y-110736147D01*
X54829519Y-110643015D01*
X54710985Y-110524481D01*
X54617853Y-110385100D01*
X54553703Y-110230228D01*
X54521000Y-110065816D01*
X54521000Y-109898184D01*
X54553703Y-109733772D01*
X54617853Y-109578900D01*
X54710985Y-109439519D01*
X54829519Y-109320985D01*
X54968900Y-109227853D01*
X55123772Y-109163703D01*
X55288184Y-109131000D01*
X55455816Y-109131000D01*
X55620228Y-109163703D01*
G37*
G36*
X63843000Y-110833000D02*
G01*
X62141000Y-110833000D01*
X62141000Y-109131000D01*
X63843000Y-109131000D01*
X63843000Y-110833000D01*
G37*
G36*
X73241000Y-109309000D02*
G01*
X71539000Y-109309000D01*
X71539000Y-107607000D01*
X73241000Y-107607000D01*
X73241000Y-109309000D01*
G37*
G36*
X80258228Y-107639703D02*
G01*
X80413100Y-107703853D01*
X80552481Y-107796985D01*
X80671015Y-107915519D01*
X80764147Y-108054900D01*
X80828297Y-108209772D01*
X80861000Y-108374184D01*
X80861000Y-108541816D01*
X80828297Y-108706228D01*
X80764147Y-108861100D01*
X80671015Y-109000481D01*
X80552481Y-109119015D01*
X80413100Y-109212147D01*
X80258228Y-109276297D01*
X80093816Y-109309000D01*
X79926184Y-109309000D01*
X79761772Y-109276297D01*
X79606900Y-109212147D01*
X79467519Y-109119015D01*
X79348985Y-109000481D01*
X79255853Y-108861100D01*
X79191703Y-108706228D01*
X79159000Y-108541816D01*
X79159000Y-108374184D01*
X79191703Y-108209772D01*
X79255853Y-108054900D01*
X79348985Y-107915519D01*
X79467519Y-107796985D01*
X79606900Y-107703853D01*
X79761772Y-107639703D01*
X79926184Y-107607000D01*
X80093816Y-107607000D01*
X80258228Y-107639703D01*
G37*
G36*
X91021000Y-109309000D02*
G01*
X89319000Y-109309000D01*
X89319000Y-107607000D01*
X91021000Y-107607000D01*
X91021000Y-109309000D01*
G37*
G36*
X98038228Y-107639703D02*
G01*
X98193100Y-107703853D01*
X98332481Y-107796985D01*
X98451015Y-107915519D01*
X98544147Y-108054900D01*
X98608297Y-108209772D01*
X98641000Y-108374184D01*
X98641000Y-108541816D01*
X98608297Y-108706228D01*
X98544147Y-108861100D01*
X98451015Y-109000481D01*
X98332481Y-109119015D01*
X98193100Y-109212147D01*
X98038228Y-109276297D01*
X97873816Y-109309000D01*
X97706184Y-109309000D01*
X97541772Y-109276297D01*
X97386900Y-109212147D01*
X97247519Y-109119015D01*
X97128985Y-109000481D01*
X97035853Y-108861100D01*
X96971703Y-108706228D01*
X96939000Y-108541816D01*
X96939000Y-108374184D01*
X96971703Y-108209772D01*
X97035853Y-108054900D01*
X97128985Y-107915519D01*
X97247519Y-107796985D01*
X97386900Y-107703853D01*
X97541772Y-107639703D01*
X97706184Y-107607000D01*
X97873816Y-107607000D01*
X98038228Y-107639703D01*
G37*
G36*
X103975000Y-109309000D02*
G01*
X102273000Y-109309000D01*
X102273000Y-107607000D01*
X103975000Y-107607000D01*
X103975000Y-109309000D01*
G37*
G36*
X110992228Y-107639703D02*
G01*
X111147100Y-107703853D01*
X111286481Y-107796985D01*
X111405015Y-107915519D01*
X111498147Y-108054900D01*
X111562297Y-108209772D01*
X111595000Y-108374184D01*
X111595000Y-108541816D01*
X111562297Y-108706228D01*
X111498147Y-108861100D01*
X111405015Y-109000481D01*
X111286481Y-109119015D01*
X111147100Y-109212147D01*
X110992228Y-109276297D01*
X110827816Y-109309000D01*
X110660184Y-109309000D01*
X110495772Y-109276297D01*
X110340900Y-109212147D01*
X110201519Y-109119015D01*
X110082985Y-109000481D01*
X109989853Y-108861100D01*
X109925703Y-108706228D01*
X109893000Y-108541816D01*
X109893000Y-108374184D01*
X109925703Y-108209772D01*
X109989853Y-108054900D01*
X110082985Y-107915519D01*
X110201519Y-107796985D01*
X110340900Y-107703853D01*
X110495772Y-107639703D01*
X110660184Y-107607000D01*
X110827816Y-107607000D01*
X110992228Y-107639703D01*
G37*
G36*
X55620228Y-106623703D02*
G01*
X55775100Y-106687853D01*
X55914481Y-106780985D01*
X56033015Y-106899519D01*
X56126147Y-107038900D01*
X56190297Y-107193772D01*
X56223000Y-107358184D01*
X56223000Y-107525816D01*
X56190297Y-107690228D01*
X56126147Y-107845100D01*
X56033015Y-107984481D01*
X55914481Y-108103015D01*
X55775100Y-108196147D01*
X55620228Y-108260297D01*
X55455816Y-108293000D01*
X55288184Y-108293000D01*
X55123772Y-108260297D01*
X54968900Y-108196147D01*
X54829519Y-108103015D01*
X54710985Y-107984481D01*
X54617853Y-107845100D01*
X54553703Y-107690228D01*
X54521000Y-107525816D01*
X54521000Y-107358184D01*
X54553703Y-107193772D01*
X54617853Y-107038900D01*
X54710985Y-106899519D01*
X54829519Y-106780985D01*
X54968900Y-106687853D01*
X55123772Y-106623703D01*
X55288184Y-106591000D01*
X55455816Y-106591000D01*
X55620228Y-106623703D01*
G37*
G36*
X63240228Y-106623703D02*
G01*
X63395100Y-106687853D01*
X63534481Y-106780985D01*
X63653015Y-106899519D01*
X63746147Y-107038900D01*
X63810297Y-107193772D01*
X63843000Y-107358184D01*
X63843000Y-107525816D01*
X63810297Y-107690228D01*
X63746147Y-107845100D01*
X63653015Y-107984481D01*
X63534481Y-108103015D01*
X63395100Y-108196147D01*
X63240228Y-108260297D01*
X63075816Y-108293000D01*
X62908184Y-108293000D01*
X62743772Y-108260297D01*
X62588900Y-108196147D01*
X62449519Y-108103015D01*
X62330985Y-107984481D01*
X62237853Y-107845100D01*
X62173703Y-107690228D01*
X62141000Y-107525816D01*
X62141000Y-107358184D01*
X62173703Y-107193772D01*
X62237853Y-107038900D01*
X62330985Y-106899519D01*
X62449519Y-106780985D01*
X62588900Y-106687853D01*
X62743772Y-106623703D01*
X62908184Y-106591000D01*
X63075816Y-106591000D01*
X63240228Y-106623703D01*
G37*
G36*
X63240228Y-104083703D02*
G01*
X63395100Y-104147853D01*
X63534481Y-104240985D01*
X63653015Y-104359519D01*
X63746147Y-104498900D01*
X63810297Y-104653772D01*
X63843000Y-104818184D01*
X63843000Y-104985816D01*
X63810297Y-105150228D01*
X63746147Y-105305100D01*
X63653015Y-105444481D01*
X63534481Y-105563015D01*
X63395100Y-105656147D01*
X63240228Y-105720297D01*
X63075816Y-105753000D01*
X62908184Y-105753000D01*
X62743772Y-105720297D01*
X62588900Y-105656147D01*
X62449519Y-105563015D01*
X62330985Y-105444481D01*
X62237853Y-105305100D01*
X62173703Y-105150228D01*
X62141000Y-104985816D01*
X62141000Y-104818184D01*
X62173703Y-104653772D01*
X62237853Y-104498900D01*
X62330985Y-104359519D01*
X62449519Y-104240985D01*
X62588900Y-104147853D01*
X62743772Y-104083703D01*
X62908184Y-104051000D01*
X63075816Y-104051000D01*
X63240228Y-104083703D01*
G37*
G36*
X55620228Y-104083703D02*
G01*
X55775100Y-104147853D01*
X55914481Y-104240985D01*
X56033015Y-104359519D01*
X56126147Y-104498900D01*
X56190297Y-104653772D01*
X56223000Y-104818184D01*
X56223000Y-104985816D01*
X56190297Y-105150228D01*
X56126147Y-105305100D01*
X56033015Y-105444481D01*
X55914481Y-105563015D01*
X55775100Y-105656147D01*
X55620228Y-105720297D01*
X55455816Y-105753000D01*
X55288184Y-105753000D01*
X55123772Y-105720297D01*
X54968900Y-105656147D01*
X54829519Y-105563015D01*
X54710985Y-105444481D01*
X54617853Y-105305100D01*
X54553703Y-105150228D01*
X54521000Y-104985816D01*
X54521000Y-104818184D01*
X54553703Y-104653772D01*
X54617853Y-104498900D01*
X54710985Y-104359519D01*
X54829519Y-104240985D01*
X54968900Y-104147853D01*
X55123772Y-104083703D01*
X55288184Y-104051000D01*
X55455816Y-104051000D01*
X55620228Y-104083703D01*
G37*
G36*
X63240228Y-101543703D02*
G01*
X63395100Y-101607853D01*
X63534481Y-101700985D01*
X63653015Y-101819519D01*
X63746147Y-101958900D01*
X63810297Y-102113772D01*
X63843000Y-102278184D01*
X63843000Y-102445816D01*
X63810297Y-102610228D01*
X63746147Y-102765100D01*
X63653015Y-102904481D01*
X63534481Y-103023015D01*
X63395100Y-103116147D01*
X63240228Y-103180297D01*
X63075816Y-103213000D01*
X62908184Y-103213000D01*
X62743772Y-103180297D01*
X62588900Y-103116147D01*
X62449519Y-103023015D01*
X62330985Y-102904481D01*
X62237853Y-102765100D01*
X62173703Y-102610228D01*
X62141000Y-102445816D01*
X62141000Y-102278184D01*
X62173703Y-102113772D01*
X62237853Y-101958900D01*
X62330985Y-101819519D01*
X62449519Y-101700985D01*
X62588900Y-101607853D01*
X62743772Y-101543703D01*
X62908184Y-101511000D01*
X63075816Y-101511000D01*
X63240228Y-101543703D01*
G37*
G36*
X55620228Y-101543703D02*
G01*
X55775100Y-101607853D01*
X55914481Y-101700985D01*
X56033015Y-101819519D01*
X56126147Y-101958900D01*
X56190297Y-102113772D01*
X56223000Y-102278184D01*
X56223000Y-102445816D01*
X56190297Y-102610228D01*
X56126147Y-102765100D01*
X56033015Y-102904481D01*
X55914481Y-103023015D01*
X55775100Y-103116147D01*
X55620228Y-103180297D01*
X55455816Y-103213000D01*
X55288184Y-103213000D01*
X55123772Y-103180297D01*
X54968900Y-103116147D01*
X54829519Y-103023015D01*
X54710985Y-102904481D01*
X54617853Y-102765100D01*
X54553703Y-102610228D01*
X54521000Y-102445816D01*
X54521000Y-102278184D01*
X54553703Y-102113772D01*
X54617853Y-101958900D01*
X54710985Y-101819519D01*
X54829519Y-101700985D01*
X54968900Y-101607853D01*
X55123772Y-101543703D01*
X55288184Y-101511000D01*
X55455816Y-101511000D01*
X55620228Y-101543703D01*
G37*
G36*
X100165000Y-102451000D02*
G01*
X98463000Y-102451000D01*
X98463000Y-100749000D01*
X100165000Y-100749000D01*
X100165000Y-102451000D01*
G37*
G36*
X91942228Y-100781703D02*
G01*
X92097100Y-100845853D01*
X92236481Y-100938985D01*
X92355015Y-101057519D01*
X92448147Y-101196900D01*
X92512297Y-101351772D01*
X92545000Y-101516184D01*
X92545000Y-101683816D01*
X92512297Y-101848228D01*
X92448147Y-102003100D01*
X92355015Y-102142481D01*
X92236481Y-102261015D01*
X92097100Y-102354147D01*
X91942228Y-102418297D01*
X91777816Y-102451000D01*
X91610184Y-102451000D01*
X91445772Y-102418297D01*
X91290900Y-102354147D01*
X91151519Y-102261015D01*
X91032985Y-102142481D01*
X90939853Y-102003100D01*
X90875703Y-101848228D01*
X90843000Y-101683816D01*
X90843000Y-101516184D01*
X90875703Y-101351772D01*
X90939853Y-101196900D01*
X91032985Y-101057519D01*
X91151519Y-100938985D01*
X91290900Y-100845853D01*
X91445772Y-100781703D01*
X91610184Y-100749000D01*
X91777816Y-100749000D01*
X91942228Y-100781703D01*
G37*
G36*
X106166228Y-100273703D02*
G01*
X106321100Y-100337853D01*
X106460481Y-100430985D01*
X106579015Y-100549519D01*
X106672147Y-100688900D01*
X106736297Y-100843772D01*
X106769000Y-101008184D01*
X106769000Y-101175816D01*
X106736297Y-101340228D01*
X106672147Y-101495100D01*
X106579015Y-101634481D01*
X106460481Y-101753015D01*
X106321100Y-101846147D01*
X106166228Y-101910297D01*
X106001816Y-101943000D01*
X105834184Y-101943000D01*
X105669772Y-101910297D01*
X105514900Y-101846147D01*
X105375519Y-101753015D01*
X105256985Y-101634481D01*
X105163853Y-101495100D01*
X105099703Y-101340228D01*
X105067000Y-101175816D01*
X105067000Y-101008184D01*
X105099703Y-100843772D01*
X105163853Y-100688900D01*
X105256985Y-100549519D01*
X105375519Y-100430985D01*
X105514900Y-100337853D01*
X105669772Y-100273703D01*
X105834184Y-100241000D01*
X106001816Y-100241000D01*
X106166228Y-100273703D01*
G37*
G36*
X113786228Y-100273703D02*
G01*
X113941100Y-100337853D01*
X114080481Y-100430985D01*
X114199015Y-100549519D01*
X114292147Y-100688900D01*
X114356297Y-100843772D01*
X114389000Y-101008184D01*
X114389000Y-101175816D01*
X114356297Y-101340228D01*
X114292147Y-101495100D01*
X114199015Y-101634481D01*
X114080481Y-101753015D01*
X113941100Y-101846147D01*
X113786228Y-101910297D01*
X113621816Y-101943000D01*
X113454184Y-101943000D01*
X113289772Y-101910297D01*
X113134900Y-101846147D01*
X112995519Y-101753015D01*
X112876985Y-101634481D01*
X112783853Y-101495100D01*
X112719703Y-101340228D01*
X112687000Y-101175816D01*
X112687000Y-101008184D01*
X112719703Y-100843772D01*
X112783853Y-100688900D01*
X112876985Y-100549519D01*
X112995519Y-100430985D01*
X113134900Y-100337853D01*
X113289772Y-100273703D01*
X113454184Y-100241000D01*
X113621816Y-100241000D01*
X113786228Y-100273703D01*
G37*
G36*
X55620228Y-99003703D02*
G01*
X55775100Y-99067853D01*
X55914481Y-99160985D01*
X56033015Y-99279519D01*
X56126147Y-99418900D01*
X56190297Y-99573772D01*
X56223000Y-99738184D01*
X56223000Y-99905816D01*
X56190297Y-100070228D01*
X56126147Y-100225100D01*
X56033015Y-100364481D01*
X55914481Y-100483015D01*
X55775100Y-100576147D01*
X55620228Y-100640297D01*
X55455816Y-100673000D01*
X55288184Y-100673000D01*
X55123772Y-100640297D01*
X54968900Y-100576147D01*
X54829519Y-100483015D01*
X54710985Y-100364481D01*
X54617853Y-100225100D01*
X54553703Y-100070228D01*
X54521000Y-99905816D01*
X54521000Y-99738184D01*
X54553703Y-99573772D01*
X54617853Y-99418900D01*
X54710985Y-99279519D01*
X54829519Y-99160985D01*
X54968900Y-99067853D01*
X55123772Y-99003703D01*
X55288184Y-98971000D01*
X55455816Y-98971000D01*
X55620228Y-99003703D01*
G37*
G36*
X63240228Y-99003703D02*
G01*
X63395100Y-99067853D01*
X63534481Y-99160985D01*
X63653015Y-99279519D01*
X63746147Y-99418900D01*
X63810297Y-99573772D01*
X63843000Y-99738184D01*
X63843000Y-99905816D01*
X63810297Y-100070228D01*
X63746147Y-100225100D01*
X63653015Y-100364481D01*
X63534481Y-100483015D01*
X63395100Y-100576147D01*
X63240228Y-100640297D01*
X63075816Y-100673000D01*
X62908184Y-100673000D01*
X62743772Y-100640297D01*
X62588900Y-100576147D01*
X62449519Y-100483015D01*
X62330985Y-100364481D01*
X62237853Y-100225100D01*
X62173703Y-100070228D01*
X62141000Y-99905816D01*
X62141000Y-99738184D01*
X62173703Y-99573772D01*
X62237853Y-99418900D01*
X62330985Y-99279519D01*
X62449519Y-99160985D01*
X62588900Y-99067853D01*
X62743772Y-99003703D01*
X62908184Y-98971000D01*
X63075816Y-98971000D01*
X63240228Y-99003703D01*
G37*
G36*
X113786228Y-97733703D02*
G01*
X113941100Y-97797853D01*
X114080481Y-97890985D01*
X114199015Y-98009519D01*
X114292147Y-98148900D01*
X114356297Y-98303772D01*
X114389000Y-98468184D01*
X114389000Y-98635816D01*
X114356297Y-98800228D01*
X114292147Y-98955100D01*
X114199015Y-99094481D01*
X114080481Y-99213015D01*
X113941100Y-99306147D01*
X113786228Y-99370297D01*
X113621816Y-99403000D01*
X113454184Y-99403000D01*
X113289772Y-99370297D01*
X113134900Y-99306147D01*
X112995519Y-99213015D01*
X112876985Y-99094481D01*
X112783853Y-98955100D01*
X112719703Y-98800228D01*
X112687000Y-98635816D01*
X112687000Y-98468184D01*
X112719703Y-98303772D01*
X112783853Y-98148900D01*
X112876985Y-98009519D01*
X112995519Y-97890985D01*
X113134900Y-97797853D01*
X113289772Y-97733703D01*
X113454184Y-97701000D01*
X113621816Y-97701000D01*
X113786228Y-97733703D01*
G37*
G36*
X106166228Y-97733703D02*
G01*
X106321100Y-97797853D01*
X106460481Y-97890985D01*
X106579015Y-98009519D01*
X106672147Y-98148900D01*
X106736297Y-98303772D01*
X106769000Y-98468184D01*
X106769000Y-98635816D01*
X106736297Y-98800228D01*
X106672147Y-98955100D01*
X106579015Y-99094481D01*
X106460481Y-99213015D01*
X106321100Y-99306147D01*
X106166228Y-99370297D01*
X106001816Y-99403000D01*
X105834184Y-99403000D01*
X105669772Y-99370297D01*
X105514900Y-99306147D01*
X105375519Y-99213015D01*
X105256985Y-99094481D01*
X105163853Y-98955100D01*
X105099703Y-98800228D01*
X105067000Y-98635816D01*
X105067000Y-98468184D01*
X105099703Y-98303772D01*
X105163853Y-98148900D01*
X105256985Y-98009519D01*
X105375519Y-97890985D01*
X105514900Y-97797853D01*
X105669772Y-97733703D01*
X105834184Y-97701000D01*
X106001816Y-97701000D01*
X106166228Y-97733703D01*
G37*
G36*
X63240228Y-96463703D02*
G01*
X63395100Y-96527853D01*
X63534481Y-96620985D01*
X63653015Y-96739519D01*
X63746147Y-96878900D01*
X63810297Y-97033772D01*
X63843000Y-97198184D01*
X63843000Y-97365816D01*
X63810297Y-97530228D01*
X63746147Y-97685100D01*
X63653015Y-97824481D01*
X63534481Y-97943015D01*
X63395100Y-98036147D01*
X63240228Y-98100297D01*
X63075816Y-98133000D01*
X62908184Y-98133000D01*
X62743772Y-98100297D01*
X62588900Y-98036147D01*
X62449519Y-97943015D01*
X62330985Y-97824481D01*
X62237853Y-97685100D01*
X62173703Y-97530228D01*
X62141000Y-97365816D01*
X62141000Y-97198184D01*
X62173703Y-97033772D01*
X62237853Y-96878900D01*
X62330985Y-96739519D01*
X62449519Y-96620985D01*
X62588900Y-96527853D01*
X62743772Y-96463703D01*
X62908184Y-96431000D01*
X63075816Y-96431000D01*
X63240228Y-96463703D01*
G37*
G36*
X55620228Y-96463703D02*
G01*
X55775100Y-96527853D01*
X55914481Y-96620985D01*
X56033015Y-96739519D01*
X56126147Y-96878900D01*
X56190297Y-97033772D01*
X56223000Y-97198184D01*
X56223000Y-97365816D01*
X56190297Y-97530228D01*
X56126147Y-97685100D01*
X56033015Y-97824481D01*
X55914481Y-97943015D01*
X55775100Y-98036147D01*
X55620228Y-98100297D01*
X55455816Y-98133000D01*
X55288184Y-98133000D01*
X55123772Y-98100297D01*
X54968900Y-98036147D01*
X54829519Y-97943015D01*
X54710985Y-97824481D01*
X54617853Y-97685100D01*
X54553703Y-97530228D01*
X54521000Y-97365816D01*
X54521000Y-97198184D01*
X54553703Y-97033772D01*
X54617853Y-96878900D01*
X54710985Y-96739519D01*
X54829519Y-96620985D01*
X54968900Y-96527853D01*
X55123772Y-96463703D01*
X55288184Y-96431000D01*
X55455816Y-96431000D01*
X55620228Y-96463703D01*
G37*
G36*
X113786228Y-95193703D02*
G01*
X113941100Y-95257853D01*
X114080481Y-95350985D01*
X114199015Y-95469519D01*
X114292147Y-95608900D01*
X114356297Y-95763772D01*
X114389000Y-95928184D01*
X114389000Y-96095816D01*
X114356297Y-96260228D01*
X114292147Y-96415100D01*
X114199015Y-96554481D01*
X114080481Y-96673015D01*
X113941100Y-96766147D01*
X113786228Y-96830297D01*
X113621816Y-96863000D01*
X113454184Y-96863000D01*
X113289772Y-96830297D01*
X113134900Y-96766147D01*
X112995519Y-96673015D01*
X112876985Y-96554481D01*
X112783853Y-96415100D01*
X112719703Y-96260228D01*
X112687000Y-96095816D01*
X112687000Y-95928184D01*
X112719703Y-95763772D01*
X112783853Y-95608900D01*
X112876985Y-95469519D01*
X112995519Y-95350985D01*
X113134900Y-95257853D01*
X113289772Y-95193703D01*
X113454184Y-95161000D01*
X113621816Y-95161000D01*
X113786228Y-95193703D01*
G37*
G36*
X106166228Y-95193703D02*
G01*
X106321100Y-95257853D01*
X106460481Y-95350985D01*
X106579015Y-95469519D01*
X106672147Y-95608900D01*
X106736297Y-95763772D01*
X106769000Y-95928184D01*
X106769000Y-96095816D01*
X106736297Y-96260228D01*
X106672147Y-96415100D01*
X106579015Y-96554481D01*
X106460481Y-96673015D01*
X106321100Y-96766147D01*
X106166228Y-96830297D01*
X106001816Y-96863000D01*
X105834184Y-96863000D01*
X105669772Y-96830297D01*
X105514900Y-96766147D01*
X105375519Y-96673015D01*
X105256985Y-96554481D01*
X105163853Y-96415100D01*
X105099703Y-96260228D01*
X105067000Y-96095816D01*
X105067000Y-95928184D01*
X105099703Y-95763772D01*
X105163853Y-95608900D01*
X105256985Y-95469519D01*
X105375519Y-95350985D01*
X105514900Y-95257853D01*
X105669772Y-95193703D01*
X105834184Y-95161000D01*
X106001816Y-95161000D01*
X106166228Y-95193703D01*
G37*
G36*
X63240228Y-93923703D02*
G01*
X63395100Y-93987853D01*
X63534481Y-94080985D01*
X63653015Y-94199519D01*
X63746147Y-94338900D01*
X63810297Y-94493772D01*
X63843000Y-94658184D01*
X63843000Y-94825816D01*
X63810297Y-94990228D01*
X63746147Y-95145100D01*
X63653015Y-95284481D01*
X63534481Y-95403015D01*
X63395100Y-95496147D01*
X63240228Y-95560297D01*
X63075816Y-95593000D01*
X62908184Y-95593000D01*
X62743772Y-95560297D01*
X62588900Y-95496147D01*
X62449519Y-95403015D01*
X62330985Y-95284481D01*
X62237853Y-95145100D01*
X62173703Y-94990228D01*
X62141000Y-94825816D01*
X62141000Y-94658184D01*
X62173703Y-94493772D01*
X62237853Y-94338900D01*
X62330985Y-94199519D01*
X62449519Y-94080985D01*
X62588900Y-93987853D01*
X62743772Y-93923703D01*
X62908184Y-93891000D01*
X63075816Y-93891000D01*
X63240228Y-93923703D01*
G37*
G36*
X55620228Y-93923703D02*
G01*
X55775100Y-93987853D01*
X55914481Y-94080985D01*
X56033015Y-94199519D01*
X56126147Y-94338900D01*
X56190297Y-94493772D01*
X56223000Y-94658184D01*
X56223000Y-94825816D01*
X56190297Y-94990228D01*
X56126147Y-95145100D01*
X56033015Y-95284481D01*
X55914481Y-95403015D01*
X55775100Y-95496147D01*
X55620228Y-95560297D01*
X55455816Y-95593000D01*
X55288184Y-95593000D01*
X55123772Y-95560297D01*
X54968900Y-95496147D01*
X54829519Y-95403015D01*
X54710985Y-95284481D01*
X54617853Y-95145100D01*
X54553703Y-94990228D01*
X54521000Y-94825816D01*
X54521000Y-94658184D01*
X54553703Y-94493772D01*
X54617853Y-94338900D01*
X54710985Y-94199519D01*
X54829519Y-94080985D01*
X54968900Y-93987853D01*
X55123772Y-93923703D01*
X55288184Y-93891000D01*
X55455816Y-93891000D01*
X55620228Y-93923703D01*
G37*
G36*
X106166228Y-92653703D02*
G01*
X106321100Y-92717853D01*
X106460481Y-92810985D01*
X106579015Y-92929519D01*
X106672147Y-93068900D01*
X106736297Y-93223772D01*
X106769000Y-93388184D01*
X106769000Y-93555816D01*
X106736297Y-93720228D01*
X106672147Y-93875100D01*
X106579015Y-94014481D01*
X106460481Y-94133015D01*
X106321100Y-94226147D01*
X106166228Y-94290297D01*
X106001816Y-94323000D01*
X105834184Y-94323000D01*
X105669772Y-94290297D01*
X105514900Y-94226147D01*
X105375519Y-94133015D01*
X105256985Y-94014481D01*
X105163853Y-93875100D01*
X105099703Y-93720228D01*
X105067000Y-93555816D01*
X105067000Y-93388184D01*
X105099703Y-93223772D01*
X105163853Y-93068900D01*
X105256985Y-92929519D01*
X105375519Y-92810985D01*
X105514900Y-92717853D01*
X105669772Y-92653703D01*
X105834184Y-92621000D01*
X106001816Y-92621000D01*
X106166228Y-92653703D01*
G37*
G36*
X113786228Y-92653703D02*
G01*
X113941100Y-92717853D01*
X114080481Y-92810985D01*
X114199015Y-92929519D01*
X114292147Y-93068900D01*
X114356297Y-93223772D01*
X114389000Y-93388184D01*
X114389000Y-93555816D01*
X114356297Y-93720228D01*
X114292147Y-93875100D01*
X114199015Y-94014481D01*
X114080481Y-94133015D01*
X113941100Y-94226147D01*
X113786228Y-94290297D01*
X113621816Y-94323000D01*
X113454184Y-94323000D01*
X113289772Y-94290297D01*
X113134900Y-94226147D01*
X112995519Y-94133015D01*
X112876985Y-94014481D01*
X112783853Y-93875100D01*
X112719703Y-93720228D01*
X112687000Y-93555816D01*
X112687000Y-93388184D01*
X112719703Y-93223772D01*
X112783853Y-93068900D01*
X112876985Y-92929519D01*
X112995519Y-92810985D01*
X113134900Y-92717853D01*
X113289772Y-92653703D01*
X113454184Y-92621000D01*
X113621816Y-92621000D01*
X113786228Y-92653703D01*
G37*
G36*
X55620228Y-91383703D02*
G01*
X55775100Y-91447853D01*
X55914481Y-91540985D01*
X56033015Y-91659519D01*
X56126147Y-91798900D01*
X56190297Y-91953772D01*
X56223000Y-92118184D01*
X56223000Y-92285816D01*
X56190297Y-92450228D01*
X56126147Y-92605100D01*
X56033015Y-92744481D01*
X55914481Y-92863015D01*
X55775100Y-92956147D01*
X55620228Y-93020297D01*
X55455816Y-93053000D01*
X55288184Y-93053000D01*
X55123772Y-93020297D01*
X54968900Y-92956147D01*
X54829519Y-92863015D01*
X54710985Y-92744481D01*
X54617853Y-92605100D01*
X54553703Y-92450228D01*
X54521000Y-92285816D01*
X54521000Y-92118184D01*
X54553703Y-91953772D01*
X54617853Y-91798900D01*
X54710985Y-91659519D01*
X54829519Y-91540985D01*
X54968900Y-91447853D01*
X55123772Y-91383703D01*
X55288184Y-91351000D01*
X55455816Y-91351000D01*
X55620228Y-91383703D01*
G37*
G36*
X63240228Y-91383703D02*
G01*
X63395100Y-91447853D01*
X63534481Y-91540985D01*
X63653015Y-91659519D01*
X63746147Y-91798900D01*
X63810297Y-91953772D01*
X63843000Y-92118184D01*
X63843000Y-92285816D01*
X63810297Y-92450228D01*
X63746147Y-92605100D01*
X63653015Y-92744481D01*
X63534481Y-92863015D01*
X63395100Y-92956147D01*
X63240228Y-93020297D01*
X63075816Y-93053000D01*
X62908184Y-93053000D01*
X62743772Y-93020297D01*
X62588900Y-92956147D01*
X62449519Y-92863015D01*
X62330985Y-92744481D01*
X62237853Y-92605100D01*
X62173703Y-92450228D01*
X62141000Y-92285816D01*
X62141000Y-92118184D01*
X62173703Y-91953772D01*
X62237853Y-91798900D01*
X62330985Y-91659519D01*
X62449519Y-91540985D01*
X62588900Y-91447853D01*
X62743772Y-91383703D01*
X62908184Y-91351000D01*
X63075816Y-91351000D01*
X63240228Y-91383703D01*
G37*
G36*
X113786228Y-90113703D02*
G01*
X113941100Y-90177853D01*
X114080481Y-90270985D01*
X114199015Y-90389519D01*
X114292147Y-90528900D01*
X114356297Y-90683772D01*
X114389000Y-90848184D01*
X114389000Y-91015816D01*
X114356297Y-91180228D01*
X114292147Y-91335100D01*
X114199015Y-91474481D01*
X114080481Y-91593015D01*
X113941100Y-91686147D01*
X113786228Y-91750297D01*
X113621816Y-91783000D01*
X113454184Y-91783000D01*
X113289772Y-91750297D01*
X113134900Y-91686147D01*
X112995519Y-91593015D01*
X112876985Y-91474481D01*
X112783853Y-91335100D01*
X112719703Y-91180228D01*
X112687000Y-91015816D01*
X112687000Y-90848184D01*
X112719703Y-90683772D01*
X112783853Y-90528900D01*
X112876985Y-90389519D01*
X112995519Y-90270985D01*
X113134900Y-90177853D01*
X113289772Y-90113703D01*
X113454184Y-90081000D01*
X113621816Y-90081000D01*
X113786228Y-90113703D01*
G37*
G36*
X106166228Y-90113703D02*
G01*
X106321100Y-90177853D01*
X106460481Y-90270985D01*
X106579015Y-90389519D01*
X106672147Y-90528900D01*
X106736297Y-90683772D01*
X106769000Y-90848184D01*
X106769000Y-91015816D01*
X106736297Y-91180228D01*
X106672147Y-91335100D01*
X106579015Y-91474481D01*
X106460481Y-91593015D01*
X106321100Y-91686147D01*
X106166228Y-91750297D01*
X106001816Y-91783000D01*
X105834184Y-91783000D01*
X105669772Y-91750297D01*
X105514900Y-91686147D01*
X105375519Y-91593015D01*
X105256985Y-91474481D01*
X105163853Y-91335100D01*
X105099703Y-91180228D01*
X105067000Y-91015816D01*
X105067000Y-90848184D01*
X105099703Y-90683772D01*
X105163853Y-90528900D01*
X105256985Y-90389519D01*
X105375519Y-90270985D01*
X105514900Y-90177853D01*
X105669772Y-90113703D01*
X105834184Y-90081000D01*
X106001816Y-90081000D01*
X106166228Y-90113703D01*
G37*
G36*
X55620228Y-88843703D02*
G01*
X55775100Y-88907853D01*
X55914481Y-89000985D01*
X56033015Y-89119519D01*
X56126147Y-89258900D01*
X56190297Y-89413772D01*
X56223000Y-89578184D01*
X56223000Y-89745816D01*
X56190297Y-89910228D01*
X56126147Y-90065100D01*
X56033015Y-90204481D01*
X55914481Y-90323015D01*
X55775100Y-90416147D01*
X55620228Y-90480297D01*
X55455816Y-90513000D01*
X55288184Y-90513000D01*
X55123772Y-90480297D01*
X54968900Y-90416147D01*
X54829519Y-90323015D01*
X54710985Y-90204481D01*
X54617853Y-90065100D01*
X54553703Y-89910228D01*
X54521000Y-89745816D01*
X54521000Y-89578184D01*
X54553703Y-89413772D01*
X54617853Y-89258900D01*
X54710985Y-89119519D01*
X54829519Y-89000985D01*
X54968900Y-88907853D01*
X55123772Y-88843703D01*
X55288184Y-88811000D01*
X55455816Y-88811000D01*
X55620228Y-88843703D01*
G37*
G36*
X63240228Y-88843703D02*
G01*
X63395100Y-88907853D01*
X63534481Y-89000985D01*
X63653015Y-89119519D01*
X63746147Y-89258900D01*
X63810297Y-89413772D01*
X63843000Y-89578184D01*
X63843000Y-89745816D01*
X63810297Y-89910228D01*
X63746147Y-90065100D01*
X63653015Y-90204481D01*
X63534481Y-90323015D01*
X63395100Y-90416147D01*
X63240228Y-90480297D01*
X63075816Y-90513000D01*
X62908184Y-90513000D01*
X62743772Y-90480297D01*
X62588900Y-90416147D01*
X62449519Y-90323015D01*
X62330985Y-90204481D01*
X62237853Y-90065100D01*
X62173703Y-89910228D01*
X62141000Y-89745816D01*
X62141000Y-89578184D01*
X62173703Y-89413772D01*
X62237853Y-89258900D01*
X62330985Y-89119519D01*
X62449519Y-89000985D01*
X62588900Y-88907853D01*
X62743772Y-88843703D01*
X62908184Y-88811000D01*
X63075816Y-88811000D01*
X63240228Y-88843703D01*
G37*
G36*
X113786228Y-87573703D02*
G01*
X113941100Y-87637853D01*
X114080481Y-87730985D01*
X114199015Y-87849519D01*
X114292147Y-87988900D01*
X114356297Y-88143772D01*
X114389000Y-88308184D01*
X114389000Y-88475816D01*
X114356297Y-88640228D01*
X114292147Y-88795100D01*
X114199015Y-88934481D01*
X114080481Y-89053015D01*
X113941100Y-89146147D01*
X113786228Y-89210297D01*
X113621816Y-89243000D01*
X113454184Y-89243000D01*
X113289772Y-89210297D01*
X113134900Y-89146147D01*
X112995519Y-89053015D01*
X112876985Y-88934481D01*
X112783853Y-88795100D01*
X112719703Y-88640228D01*
X112687000Y-88475816D01*
X112687000Y-88308184D01*
X112719703Y-88143772D01*
X112783853Y-87988900D01*
X112876985Y-87849519D01*
X112995519Y-87730985D01*
X113134900Y-87637853D01*
X113289772Y-87573703D01*
X113454184Y-87541000D01*
X113621816Y-87541000D01*
X113786228Y-87573703D01*
G37*
G36*
X106166228Y-87573703D02*
G01*
X106321100Y-87637853D01*
X106460481Y-87730985D01*
X106579015Y-87849519D01*
X106672147Y-87988900D01*
X106736297Y-88143772D01*
X106769000Y-88308184D01*
X106769000Y-88475816D01*
X106736297Y-88640228D01*
X106672147Y-88795100D01*
X106579015Y-88934481D01*
X106460481Y-89053015D01*
X106321100Y-89146147D01*
X106166228Y-89210297D01*
X106001816Y-89243000D01*
X105834184Y-89243000D01*
X105669772Y-89210297D01*
X105514900Y-89146147D01*
X105375519Y-89053015D01*
X105256985Y-88934481D01*
X105163853Y-88795100D01*
X105099703Y-88640228D01*
X105067000Y-88475816D01*
X105067000Y-88308184D01*
X105099703Y-88143772D01*
X105163853Y-87988900D01*
X105256985Y-87849519D01*
X105375519Y-87730985D01*
X105514900Y-87637853D01*
X105669772Y-87573703D01*
X105834184Y-87541000D01*
X106001816Y-87541000D01*
X106166228Y-87573703D01*
G37*
G36*
X63240228Y-86303703D02*
G01*
X63395100Y-86367853D01*
X63534481Y-86460985D01*
X63653015Y-86579519D01*
X63746147Y-86718900D01*
X63810297Y-86873772D01*
X63843000Y-87038184D01*
X63843000Y-87205816D01*
X63810297Y-87370228D01*
X63746147Y-87525100D01*
X63653015Y-87664481D01*
X63534481Y-87783015D01*
X63395100Y-87876147D01*
X63240228Y-87940297D01*
X63075816Y-87973000D01*
X62908184Y-87973000D01*
X62743772Y-87940297D01*
X62588900Y-87876147D01*
X62449519Y-87783015D01*
X62330985Y-87664481D01*
X62237853Y-87525100D01*
X62173703Y-87370228D01*
X62141000Y-87205816D01*
X62141000Y-87038184D01*
X62173703Y-86873772D01*
X62237853Y-86718900D01*
X62330985Y-86579519D01*
X62449519Y-86460985D01*
X62588900Y-86367853D01*
X62743772Y-86303703D01*
X62908184Y-86271000D01*
X63075816Y-86271000D01*
X63240228Y-86303703D01*
G37*
G36*
X55620228Y-86303703D02*
G01*
X55775100Y-86367853D01*
X55914481Y-86460985D01*
X56033015Y-86579519D01*
X56126147Y-86718900D01*
X56190297Y-86873772D01*
X56223000Y-87038184D01*
X56223000Y-87205816D01*
X56190297Y-87370228D01*
X56126147Y-87525100D01*
X56033015Y-87664481D01*
X55914481Y-87783015D01*
X55775100Y-87876147D01*
X55620228Y-87940297D01*
X55455816Y-87973000D01*
X55288184Y-87973000D01*
X55123772Y-87940297D01*
X54968900Y-87876147D01*
X54829519Y-87783015D01*
X54710985Y-87664481D01*
X54617853Y-87525100D01*
X54553703Y-87370228D01*
X54521000Y-87205816D01*
X54521000Y-87038184D01*
X54553703Y-86873772D01*
X54617853Y-86718900D01*
X54710985Y-86579519D01*
X54829519Y-86460985D01*
X54968900Y-86367853D01*
X55123772Y-86303703D01*
X55288184Y-86271000D01*
X55455816Y-86271000D01*
X55620228Y-86303703D01*
G37*
G36*
X99562228Y-85541703D02*
G01*
X99717100Y-85605853D01*
X99856481Y-85698985D01*
X99975015Y-85817519D01*
X100068147Y-85956900D01*
X100132297Y-86111772D01*
X100165000Y-86276184D01*
X100165000Y-86443816D01*
X100132297Y-86608228D01*
X100068147Y-86763100D01*
X99975015Y-86902481D01*
X99856481Y-87021015D01*
X99717100Y-87114147D01*
X99562228Y-87178297D01*
X99397816Y-87211000D01*
X99230184Y-87211000D01*
X99065772Y-87178297D01*
X98910900Y-87114147D01*
X98771519Y-87021015D01*
X98652985Y-86902481D01*
X98559853Y-86763100D01*
X98495703Y-86608228D01*
X98463000Y-86443816D01*
X98463000Y-86276184D01*
X98495703Y-86111772D01*
X98559853Y-85956900D01*
X98652985Y-85817519D01*
X98771519Y-85698985D01*
X98910900Y-85605853D01*
X99065772Y-85541703D01*
X99230184Y-85509000D01*
X99397816Y-85509000D01*
X99562228Y-85541703D01*
G37*
G36*
X91942228Y-85541703D02*
G01*
X92097100Y-85605853D01*
X92236481Y-85698985D01*
X92355015Y-85817519D01*
X92448147Y-85956900D01*
X92512297Y-86111772D01*
X92545000Y-86276184D01*
X92545000Y-86443816D01*
X92512297Y-86608228D01*
X92448147Y-86763100D01*
X92355015Y-86902481D01*
X92236481Y-87021015D01*
X92097100Y-87114147D01*
X91942228Y-87178297D01*
X91777816Y-87211000D01*
X91610184Y-87211000D01*
X91445772Y-87178297D01*
X91290900Y-87114147D01*
X91151519Y-87021015D01*
X91032985Y-86902481D01*
X90939853Y-86763100D01*
X90875703Y-86608228D01*
X90843000Y-86443816D01*
X90843000Y-86276184D01*
X90875703Y-86111772D01*
X90939853Y-85956900D01*
X91032985Y-85817519D01*
X91151519Y-85698985D01*
X91290900Y-85605853D01*
X91445772Y-85541703D01*
X91610184Y-85509000D01*
X91777816Y-85509000D01*
X91942228Y-85541703D01*
G37*
G36*
X106769000Y-86703000D02*
G01*
X105067000Y-86703000D01*
X105067000Y-85001000D01*
X106769000Y-85001000D01*
X106769000Y-86703000D01*
G37*
G36*
X113786228Y-85033703D02*
G01*
X113941100Y-85097853D01*
X114080481Y-85190985D01*
X114199015Y-85309519D01*
X114292147Y-85448900D01*
X114356297Y-85603772D01*
X114389000Y-85768184D01*
X114389000Y-85935816D01*
X114356297Y-86100228D01*
X114292147Y-86255100D01*
X114199015Y-86394481D01*
X114080481Y-86513015D01*
X113941100Y-86606147D01*
X113786228Y-86670297D01*
X113621816Y-86703000D01*
X113454184Y-86703000D01*
X113289772Y-86670297D01*
X113134900Y-86606147D01*
X112995519Y-86513015D01*
X112876985Y-86394481D01*
X112783853Y-86255100D01*
X112719703Y-86100228D01*
X112687000Y-85935816D01*
X112687000Y-85768184D01*
X112719703Y-85603772D01*
X112783853Y-85448900D01*
X112876985Y-85309519D01*
X112995519Y-85190985D01*
X113134900Y-85097853D01*
X113289772Y-85033703D01*
X113454184Y-85001000D01*
X113621816Y-85001000D01*
X113786228Y-85033703D01*
G37*
G36*
X63240228Y-83763703D02*
G01*
X63395100Y-83827853D01*
X63534481Y-83920985D01*
X63653015Y-84039519D01*
X63746147Y-84178900D01*
X63810297Y-84333772D01*
X63843000Y-84498184D01*
X63843000Y-84665816D01*
X63810297Y-84830228D01*
X63746147Y-84985100D01*
X63653015Y-85124481D01*
X63534481Y-85243015D01*
X63395100Y-85336147D01*
X63240228Y-85400297D01*
X63075816Y-85433000D01*
X62908184Y-85433000D01*
X62743772Y-85400297D01*
X62588900Y-85336147D01*
X62449519Y-85243015D01*
X62330985Y-85124481D01*
X62237853Y-84985100D01*
X62173703Y-84830228D01*
X62141000Y-84665816D01*
X62141000Y-84498184D01*
X62173703Y-84333772D01*
X62237853Y-84178900D01*
X62330985Y-84039519D01*
X62449519Y-83920985D01*
X62588900Y-83827853D01*
X62743772Y-83763703D01*
X62908184Y-83731000D01*
X63075816Y-83731000D01*
X63240228Y-83763703D01*
G37*
G36*
X55620228Y-83763703D02*
G01*
X55775100Y-83827853D01*
X55914481Y-83920985D01*
X56033015Y-84039519D01*
X56126147Y-84178900D01*
X56190297Y-84333772D01*
X56223000Y-84498184D01*
X56223000Y-84665816D01*
X56190297Y-84830228D01*
X56126147Y-84985100D01*
X56033015Y-85124481D01*
X55914481Y-85243015D01*
X55775100Y-85336147D01*
X55620228Y-85400297D01*
X55455816Y-85433000D01*
X55288184Y-85433000D01*
X55123772Y-85400297D01*
X54968900Y-85336147D01*
X54829519Y-85243015D01*
X54710985Y-85124481D01*
X54617853Y-84985100D01*
X54553703Y-84830228D01*
X54521000Y-84665816D01*
X54521000Y-84498184D01*
X54553703Y-84333772D01*
X54617853Y-84178900D01*
X54710985Y-84039519D01*
X54829519Y-83920985D01*
X54968900Y-83827853D01*
X55123772Y-83763703D01*
X55288184Y-83731000D01*
X55455816Y-83731000D01*
X55620228Y-83763703D01*
G37*
G36*
X55620228Y-81223703D02*
G01*
X55775100Y-81287853D01*
X55914481Y-81380985D01*
X56033015Y-81499519D01*
X56126147Y-81638900D01*
X56190297Y-81793772D01*
X56223000Y-81958184D01*
X56223000Y-82125816D01*
X56190297Y-82290228D01*
X56126147Y-82445100D01*
X56033015Y-82584481D01*
X55914481Y-82703015D01*
X55775100Y-82796147D01*
X55620228Y-82860297D01*
X55455816Y-82893000D01*
X55288184Y-82893000D01*
X55123772Y-82860297D01*
X54968900Y-82796147D01*
X54829519Y-82703015D01*
X54710985Y-82584481D01*
X54617853Y-82445100D01*
X54553703Y-82290228D01*
X54521000Y-82125816D01*
X54521000Y-81958184D01*
X54553703Y-81793772D01*
X54617853Y-81638900D01*
X54710985Y-81499519D01*
X54829519Y-81380985D01*
X54968900Y-81287853D01*
X55123772Y-81223703D01*
X55288184Y-81191000D01*
X55455816Y-81191000D01*
X55620228Y-81223703D01*
G37*
G36*
X63240228Y-81223703D02*
G01*
X63395100Y-81287853D01*
X63534481Y-81380985D01*
X63653015Y-81499519D01*
X63746147Y-81638900D01*
X63810297Y-81793772D01*
X63843000Y-81958184D01*
X63843000Y-82125816D01*
X63810297Y-82290228D01*
X63746147Y-82445100D01*
X63653015Y-82584481D01*
X63534481Y-82703015D01*
X63395100Y-82796147D01*
X63240228Y-82860297D01*
X63075816Y-82893000D01*
X62908184Y-82893000D01*
X62743772Y-82860297D01*
X62588900Y-82796147D01*
X62449519Y-82703015D01*
X62330985Y-82584481D01*
X62237853Y-82445100D01*
X62173703Y-82290228D01*
X62141000Y-82125816D01*
X62141000Y-81958184D01*
X62173703Y-81793772D01*
X62237853Y-81638900D01*
X62330985Y-81499519D01*
X62449519Y-81380985D01*
X62588900Y-81287853D01*
X62743772Y-81223703D01*
X62908184Y-81191000D01*
X63075816Y-81191000D01*
X63240228Y-81223703D01*
G37*
G36*
X51527059Y-80303860D02*
G01*
X51566737Y-80320295D01*
X51663732Y-80360472D01*
X51786735Y-80442660D01*
X51891340Y-80547265D01*
X51894825Y-80552481D01*
X51973529Y-80670270D01*
X52030140Y-80806941D01*
X52059000Y-80952032D01*
X52059000Y-81099968D01*
X52030140Y-81245059D01*
X51973838Y-81380985D01*
X51973528Y-81381732D01*
X51891340Y-81504735D01*
X51786735Y-81609340D01*
X51663732Y-81691528D01*
X51663731Y-81691529D01*
X51663730Y-81691529D01*
X51527059Y-81748140D01*
X51381968Y-81777000D01*
X51234032Y-81777000D01*
X51088941Y-81748140D01*
X50952270Y-81691529D01*
X50952269Y-81691529D01*
X50952268Y-81691528D01*
X50829265Y-81609340D01*
X50724660Y-81504735D01*
X50642472Y-81381732D01*
X50642163Y-81380985D01*
X50585860Y-81245059D01*
X50557000Y-81099968D01*
X50557000Y-80952032D01*
X50585860Y-80806941D01*
X50642471Y-80670270D01*
X50721175Y-80552481D01*
X50724660Y-80547265D01*
X50829265Y-80442660D01*
X50952268Y-80360472D01*
X51049264Y-80320295D01*
X51088941Y-80303860D01*
X51234032Y-80275000D01*
X51381968Y-80275000D01*
X51527059Y-80303860D01*
G37*
G36*
X80258228Y-79191703D02*
G01*
X80413100Y-79255853D01*
X80552481Y-79348985D01*
X80671015Y-79467519D01*
X80764147Y-79606900D01*
X80828297Y-79761772D01*
X80861000Y-79926184D01*
X80861000Y-80093816D01*
X80828297Y-80258228D01*
X80764147Y-80413100D01*
X80671015Y-80552481D01*
X80552481Y-80671015D01*
X80413100Y-80764147D01*
X80258228Y-80828297D01*
X80093816Y-80861000D01*
X79926184Y-80861000D01*
X79761772Y-80828297D01*
X79606900Y-80764147D01*
X79467519Y-80671015D01*
X79348985Y-80552481D01*
X79255853Y-80413100D01*
X79191703Y-80258228D01*
X79159000Y-80093816D01*
X79159000Y-79926184D01*
X79191703Y-79761772D01*
X79255853Y-79606900D01*
X79348985Y-79467519D01*
X79467519Y-79348985D01*
X79606900Y-79255853D01*
X79761772Y-79191703D01*
X79926184Y-79159000D01*
X80093816Y-79159000D01*
X80258228Y-79191703D01*
G37*
G36*
X124962228Y-79191703D02*
G01*
X125117100Y-79255853D01*
X125256481Y-79348985D01*
X125375015Y-79467519D01*
X125468147Y-79606900D01*
X125532297Y-79761772D01*
X125565000Y-79926184D01*
X125565000Y-80093816D01*
X125532297Y-80258228D01*
X125468147Y-80413100D01*
X125375015Y-80552481D01*
X125256481Y-80671015D01*
X125117100Y-80764147D01*
X124962228Y-80828297D01*
X124797816Y-80861000D01*
X124630184Y-80861000D01*
X124465772Y-80828297D01*
X124310900Y-80764147D01*
X124171519Y-80671015D01*
X124052985Y-80552481D01*
X123959853Y-80413100D01*
X123895703Y-80258228D01*
X123863000Y-80093816D01*
X123863000Y-79926184D01*
X123895703Y-79761772D01*
X123959853Y-79606900D01*
X124052985Y-79467519D01*
X124171519Y-79348985D01*
X124310900Y-79255853D01*
X124465772Y-79191703D01*
X124630184Y-79159000D01*
X124797816Y-79159000D01*
X124962228Y-79191703D01*
G37*
G36*
X117342228Y-79191703D02*
G01*
X117497100Y-79255853D01*
X117636481Y-79348985D01*
X117755015Y-79467519D01*
X117848147Y-79606900D01*
X117912297Y-79761772D01*
X117945000Y-79926184D01*
X117945000Y-80093816D01*
X117912297Y-80258228D01*
X117848147Y-80413100D01*
X117755015Y-80552481D01*
X117636481Y-80671015D01*
X117497100Y-80764147D01*
X117342228Y-80828297D01*
X117177816Y-80861000D01*
X117010184Y-80861000D01*
X116845772Y-80828297D01*
X116690900Y-80764147D01*
X116551519Y-80671015D01*
X116432985Y-80552481D01*
X116339853Y-80413100D01*
X116275703Y-80258228D01*
X116243000Y-80093816D01*
X116243000Y-79926184D01*
X116275703Y-79761772D01*
X116339853Y-79606900D01*
X116432985Y-79467519D01*
X116551519Y-79348985D01*
X116690900Y-79255853D01*
X116845772Y-79191703D01*
X117010184Y-79159000D01*
X117177816Y-79159000D01*
X117342228Y-79191703D01*
G37*
G36*
X91434228Y-79191703D02*
G01*
X91589100Y-79255853D01*
X91728481Y-79348985D01*
X91847015Y-79467519D01*
X91940147Y-79606900D01*
X92004297Y-79761772D01*
X92037000Y-79926184D01*
X92037000Y-80093816D01*
X92004297Y-80258228D01*
X91940147Y-80413100D01*
X91847015Y-80552481D01*
X91728481Y-80671015D01*
X91589100Y-80764147D01*
X91434228Y-80828297D01*
X91269816Y-80861000D01*
X91102184Y-80861000D01*
X90937772Y-80828297D01*
X90782900Y-80764147D01*
X90643519Y-80671015D01*
X90524985Y-80552481D01*
X90431853Y-80413100D01*
X90367703Y-80258228D01*
X90335000Y-80093816D01*
X90335000Y-79926184D01*
X90367703Y-79761772D01*
X90431853Y-79606900D01*
X90524985Y-79467519D01*
X90643519Y-79348985D01*
X90782900Y-79255853D01*
X90937772Y-79191703D01*
X91102184Y-79159000D01*
X91269816Y-79159000D01*
X91434228Y-79191703D01*
G37*
G36*
X99054228Y-79191703D02*
G01*
X99209100Y-79255853D01*
X99348481Y-79348985D01*
X99467015Y-79467519D01*
X99560147Y-79606900D01*
X99624297Y-79761772D01*
X99657000Y-79926184D01*
X99657000Y-80093816D01*
X99624297Y-80258228D01*
X99560147Y-80413100D01*
X99467015Y-80552481D01*
X99348481Y-80671015D01*
X99209100Y-80764147D01*
X99054228Y-80828297D01*
X98889816Y-80861000D01*
X98722184Y-80861000D01*
X98557772Y-80828297D01*
X98402900Y-80764147D01*
X98263519Y-80671015D01*
X98144985Y-80552481D01*
X98051853Y-80413100D01*
X97987703Y-80258228D01*
X97955000Y-80093816D01*
X97955000Y-79926184D01*
X97987703Y-79761772D01*
X98051853Y-79606900D01*
X98144985Y-79467519D01*
X98263519Y-79348985D01*
X98402900Y-79255853D01*
X98557772Y-79191703D01*
X98722184Y-79159000D01*
X98889816Y-79159000D01*
X99054228Y-79191703D01*
G37*
G36*
X72638228Y-79191703D02*
G01*
X72793100Y-79255853D01*
X72932481Y-79348985D01*
X73051015Y-79467519D01*
X73144147Y-79606900D01*
X73208297Y-79761772D01*
X73241000Y-79926184D01*
X73241000Y-80093816D01*
X73208297Y-80258228D01*
X73144147Y-80413100D01*
X73051015Y-80552481D01*
X72932481Y-80671015D01*
X72793100Y-80764147D01*
X72638228Y-80828297D01*
X72473816Y-80861000D01*
X72306184Y-80861000D01*
X72141772Y-80828297D01*
X71986900Y-80764147D01*
X71847519Y-80671015D01*
X71728985Y-80552481D01*
X71635853Y-80413100D01*
X71571703Y-80258228D01*
X71539000Y-80093816D01*
X71539000Y-79926184D01*
X71571703Y-79761772D01*
X71635853Y-79606900D01*
X71728985Y-79467519D01*
X71847519Y-79348985D01*
X71986900Y-79255853D01*
X72141772Y-79191703D01*
X72306184Y-79159000D01*
X72473816Y-79159000D01*
X72638228Y-79191703D01*
G37*
G36*
X55620228Y-78683703D02*
G01*
X55775100Y-78747853D01*
X55914481Y-78840985D01*
X56033015Y-78959519D01*
X56126147Y-79098900D01*
X56190297Y-79253772D01*
X56223000Y-79418184D01*
X56223000Y-79585816D01*
X56190297Y-79750228D01*
X56126147Y-79905100D01*
X56033015Y-80044481D01*
X55914481Y-80163015D01*
X55775100Y-80256147D01*
X55620228Y-80320297D01*
X55455816Y-80353000D01*
X55288184Y-80353000D01*
X55123772Y-80320297D01*
X54968900Y-80256147D01*
X54829519Y-80163015D01*
X54710985Y-80044481D01*
X54617853Y-79905100D01*
X54553703Y-79750228D01*
X54521000Y-79585816D01*
X54521000Y-79418184D01*
X54553703Y-79253772D01*
X54617853Y-79098900D01*
X54710985Y-78959519D01*
X54829519Y-78840985D01*
X54968900Y-78747853D01*
X55123772Y-78683703D01*
X55288184Y-78651000D01*
X55455816Y-78651000D01*
X55620228Y-78683703D01*
G37*
G36*
X63240228Y-78683703D02*
G01*
X63395100Y-78747853D01*
X63534481Y-78840985D01*
X63653015Y-78959519D01*
X63746147Y-79098900D01*
X63810297Y-79253772D01*
X63843000Y-79418184D01*
X63843000Y-79585816D01*
X63810297Y-79750228D01*
X63746147Y-79905100D01*
X63653015Y-80044481D01*
X63534481Y-80163015D01*
X63395100Y-80256147D01*
X63240228Y-80320297D01*
X63075816Y-80353000D01*
X62908184Y-80353000D01*
X62743772Y-80320297D01*
X62588900Y-80256147D01*
X62449519Y-80163015D01*
X62330985Y-80044481D01*
X62237853Y-79905100D01*
X62173703Y-79750228D01*
X62141000Y-79585816D01*
X62141000Y-79418184D01*
X62173703Y-79253772D01*
X62237853Y-79098900D01*
X62330985Y-78959519D01*
X62449519Y-78840985D01*
X62588900Y-78747853D01*
X62743772Y-78683703D01*
X62908184Y-78651000D01*
X63075816Y-78651000D01*
X63240228Y-78683703D01*
G37*
G36*
X51527059Y-78403860D02*
G01*
X51663732Y-78460472D01*
X51786735Y-78542660D01*
X51891340Y-78647265D01*
X51973528Y-78770268D01*
X52030140Y-78906941D01*
X52059000Y-79052033D01*
X52059000Y-79199967D01*
X52030140Y-79345059D01*
X51973528Y-79481732D01*
X51891340Y-79604735D01*
X51786735Y-79709340D01*
X51663732Y-79791528D01*
X51663731Y-79791529D01*
X51663730Y-79791529D01*
X51527059Y-79848140D01*
X51381968Y-79877000D01*
X51234032Y-79877000D01*
X51088941Y-79848140D01*
X50952270Y-79791529D01*
X50952269Y-79791529D01*
X50952268Y-79791528D01*
X50829265Y-79709340D01*
X50724660Y-79604735D01*
X50642472Y-79481732D01*
X50585860Y-79345059D01*
X50557000Y-79199967D01*
X50557000Y-79052033D01*
X50585860Y-78906941D01*
X50642472Y-78770268D01*
X50724660Y-78647265D01*
X50829265Y-78542660D01*
X50952268Y-78460472D01*
X51088941Y-78403860D01*
X51234032Y-78375000D01*
X51381968Y-78375000D01*
X51527059Y-78403860D01*
G37*
G36*
X99054228Y-76651703D02*
G01*
X99209100Y-76715853D01*
X99348481Y-76808985D01*
X99467015Y-76927519D01*
X99560147Y-77066900D01*
X99624297Y-77221772D01*
X99657000Y-77386184D01*
X99657000Y-77553816D01*
X99624297Y-77718228D01*
X99560147Y-77873100D01*
X99467015Y-78012481D01*
X99348481Y-78131015D01*
X99209100Y-78224147D01*
X99054228Y-78288297D01*
X98889816Y-78321000D01*
X98722184Y-78321000D01*
X98557772Y-78288297D01*
X98402900Y-78224147D01*
X98263519Y-78131015D01*
X98144985Y-78012481D01*
X98051853Y-77873100D01*
X97987703Y-77718228D01*
X97955000Y-77553816D01*
X97955000Y-77386184D01*
X97987703Y-77221772D01*
X98051853Y-77066900D01*
X98144985Y-76927519D01*
X98263519Y-76808985D01*
X98402900Y-76715853D01*
X98557772Y-76651703D01*
X98722184Y-76619000D01*
X98889816Y-76619000D01*
X99054228Y-76651703D01*
G37*
G36*
X80258228Y-76651703D02*
G01*
X80413100Y-76715853D01*
X80552481Y-76808985D01*
X80671015Y-76927519D01*
X80764147Y-77066900D01*
X80828297Y-77221772D01*
X80861000Y-77386184D01*
X80861000Y-77553816D01*
X80828297Y-77718228D01*
X80764147Y-77873100D01*
X80671015Y-78012481D01*
X80552481Y-78131015D01*
X80413100Y-78224147D01*
X80258228Y-78288297D01*
X80093816Y-78321000D01*
X79926184Y-78321000D01*
X79761772Y-78288297D01*
X79606900Y-78224147D01*
X79467519Y-78131015D01*
X79348985Y-78012481D01*
X79255853Y-77873100D01*
X79191703Y-77718228D01*
X79159000Y-77553816D01*
X79159000Y-77386184D01*
X79191703Y-77221772D01*
X79255853Y-77066900D01*
X79348985Y-76927519D01*
X79467519Y-76808985D01*
X79606900Y-76715853D01*
X79761772Y-76651703D01*
X79926184Y-76619000D01*
X80093816Y-76619000D01*
X80258228Y-76651703D01*
G37*
G36*
X91434228Y-76651703D02*
G01*
X91589100Y-76715853D01*
X91728481Y-76808985D01*
X91847015Y-76927519D01*
X91940147Y-77066900D01*
X92004297Y-77221772D01*
X92037000Y-77386184D01*
X92037000Y-77553816D01*
X92004297Y-77718228D01*
X91940147Y-77873100D01*
X91847015Y-78012481D01*
X91728481Y-78131015D01*
X91589100Y-78224147D01*
X91434228Y-78288297D01*
X91269816Y-78321000D01*
X91102184Y-78321000D01*
X90937772Y-78288297D01*
X90782900Y-78224147D01*
X90643519Y-78131015D01*
X90524985Y-78012481D01*
X90431853Y-77873100D01*
X90367703Y-77718228D01*
X90335000Y-77553816D01*
X90335000Y-77386184D01*
X90367703Y-77221772D01*
X90431853Y-77066900D01*
X90524985Y-76927519D01*
X90643519Y-76808985D01*
X90782900Y-76715853D01*
X90937772Y-76651703D01*
X91102184Y-76619000D01*
X91269816Y-76619000D01*
X91434228Y-76651703D01*
G37*
G36*
X124962228Y-76651703D02*
G01*
X125117100Y-76715853D01*
X125256481Y-76808985D01*
X125375015Y-76927519D01*
X125468147Y-77066900D01*
X125532297Y-77221772D01*
X125565000Y-77386184D01*
X125565000Y-77553816D01*
X125532297Y-77718228D01*
X125468147Y-77873100D01*
X125375015Y-78012481D01*
X125256481Y-78131015D01*
X125117100Y-78224147D01*
X124962228Y-78288297D01*
X124797816Y-78321000D01*
X124630184Y-78321000D01*
X124465772Y-78288297D01*
X124310900Y-78224147D01*
X124171519Y-78131015D01*
X124052985Y-78012481D01*
X123959853Y-77873100D01*
X123895703Y-77718228D01*
X123863000Y-77553816D01*
X123863000Y-77386184D01*
X123895703Y-77221772D01*
X123959853Y-77066900D01*
X124052985Y-76927519D01*
X124171519Y-76808985D01*
X124310900Y-76715853D01*
X124465772Y-76651703D01*
X124630184Y-76619000D01*
X124797816Y-76619000D01*
X124962228Y-76651703D01*
G37*
G36*
X72638228Y-76651703D02*
G01*
X72793100Y-76715853D01*
X72932481Y-76808985D01*
X73051015Y-76927519D01*
X73144147Y-77066900D01*
X73208297Y-77221772D01*
X73241000Y-77386184D01*
X73241000Y-77553816D01*
X73208297Y-77718228D01*
X73144147Y-77873100D01*
X73051015Y-78012481D01*
X72932481Y-78131015D01*
X72793100Y-78224147D01*
X72638228Y-78288297D01*
X72473816Y-78321000D01*
X72306184Y-78321000D01*
X72141772Y-78288297D01*
X71986900Y-78224147D01*
X71847519Y-78131015D01*
X71728985Y-78012481D01*
X71635853Y-77873100D01*
X71571703Y-77718228D01*
X71539000Y-77553816D01*
X71539000Y-77386184D01*
X71571703Y-77221772D01*
X71635853Y-77066900D01*
X71728985Y-76927519D01*
X71847519Y-76808985D01*
X71986900Y-76715853D01*
X72141772Y-76651703D01*
X72306184Y-76619000D01*
X72473816Y-76619000D01*
X72638228Y-76651703D01*
G37*
G36*
X117342228Y-76651703D02*
G01*
X117497100Y-76715853D01*
X117636481Y-76808985D01*
X117755015Y-76927519D01*
X117848147Y-77066900D01*
X117912297Y-77221772D01*
X117945000Y-77386184D01*
X117945000Y-77553816D01*
X117912297Y-77718228D01*
X117848147Y-77873100D01*
X117755015Y-78012481D01*
X117636481Y-78131015D01*
X117497100Y-78224147D01*
X117342228Y-78288297D01*
X117177816Y-78321000D01*
X117010184Y-78321000D01*
X116845772Y-78288297D01*
X116690900Y-78224147D01*
X116551519Y-78131015D01*
X116432985Y-78012481D01*
X116339853Y-77873100D01*
X116275703Y-77718228D01*
X116243000Y-77553816D01*
X116243000Y-77386184D01*
X116275703Y-77221772D01*
X116339853Y-77066900D01*
X116432985Y-76927519D01*
X116551519Y-76808985D01*
X116690900Y-76715853D01*
X116845772Y-76651703D01*
X117010184Y-76619000D01*
X117177816Y-76619000D01*
X117342228Y-76651703D01*
G37*
G36*
X63240228Y-76143703D02*
G01*
X63395100Y-76207853D01*
X63534481Y-76300985D01*
X63653015Y-76419519D01*
X63746147Y-76558900D01*
X63810297Y-76713772D01*
X63843000Y-76878184D01*
X63843000Y-77045816D01*
X63810297Y-77210228D01*
X63746147Y-77365100D01*
X63653015Y-77504481D01*
X63534481Y-77623015D01*
X63395100Y-77716147D01*
X63240228Y-77780297D01*
X63075816Y-77813000D01*
X62908184Y-77813000D01*
X62743772Y-77780297D01*
X62588900Y-77716147D01*
X62449519Y-77623015D01*
X62330985Y-77504481D01*
X62237853Y-77365100D01*
X62173703Y-77210228D01*
X62141000Y-77045816D01*
X62141000Y-76878184D01*
X62173703Y-76713772D01*
X62237853Y-76558900D01*
X62330985Y-76419519D01*
X62449519Y-76300985D01*
X62588900Y-76207853D01*
X62743772Y-76143703D01*
X62908184Y-76111000D01*
X63075816Y-76111000D01*
X63240228Y-76143703D01*
G37*
G36*
X55620228Y-76143703D02*
G01*
X55775100Y-76207853D01*
X55914481Y-76300985D01*
X56033015Y-76419519D01*
X56126147Y-76558900D01*
X56190297Y-76713772D01*
X56223000Y-76878184D01*
X56223000Y-77045816D01*
X56190297Y-77210228D01*
X56126147Y-77365100D01*
X56033015Y-77504481D01*
X55914481Y-77623015D01*
X55775100Y-77716147D01*
X55620228Y-77780297D01*
X55455816Y-77813000D01*
X55288184Y-77813000D01*
X55123772Y-77780297D01*
X54968900Y-77716147D01*
X54829519Y-77623015D01*
X54710985Y-77504481D01*
X54617853Y-77365100D01*
X54553703Y-77210228D01*
X54521000Y-77045816D01*
X54521000Y-76878184D01*
X54553703Y-76713772D01*
X54617853Y-76558900D01*
X54710985Y-76419519D01*
X54829519Y-76300985D01*
X54968900Y-76207853D01*
X55123772Y-76143703D01*
X55288184Y-76111000D01*
X55455816Y-76111000D01*
X55620228Y-76143703D01*
G37*
G36*
X51462894Y-75333097D02*
G01*
X51527059Y-75345860D01*
X51663732Y-75402472D01*
X51786735Y-75484660D01*
X51891340Y-75589265D01*
X51973528Y-75712268D01*
X52030140Y-75848941D01*
X52059000Y-75994033D01*
X52059000Y-76141967D01*
X52030140Y-76287059D01*
X51973528Y-76423732D01*
X51891340Y-76546735D01*
X51786735Y-76651340D01*
X51663732Y-76733528D01*
X51663731Y-76733529D01*
X51663730Y-76733529D01*
X51527059Y-76790140D01*
X51381968Y-76819000D01*
X51234032Y-76819000D01*
X51088941Y-76790140D01*
X50952270Y-76733529D01*
X50952269Y-76733529D01*
X50952268Y-76733528D01*
X50829265Y-76651340D01*
X50724660Y-76546735D01*
X50642472Y-76423732D01*
X50585860Y-76287059D01*
X50557000Y-76141967D01*
X50557000Y-75994033D01*
X50585860Y-75848941D01*
X50642472Y-75712268D01*
X50724660Y-75589265D01*
X50829265Y-75484660D01*
X50952268Y-75402472D01*
X51088941Y-75345860D01*
X51153106Y-75333097D01*
X51234032Y-75317000D01*
X51381968Y-75317000D01*
X51462894Y-75333097D01*
G37*
G36*
X117342228Y-74111703D02*
G01*
X117497100Y-74175853D01*
X117636481Y-74268985D01*
X117755015Y-74387519D01*
X117848147Y-74526900D01*
X117912297Y-74681772D01*
X117945000Y-74846184D01*
X117945000Y-75013816D01*
X117912297Y-75178228D01*
X117848147Y-75333100D01*
X117755015Y-75472481D01*
X117636481Y-75591015D01*
X117497100Y-75684147D01*
X117342228Y-75748297D01*
X117177816Y-75781000D01*
X117010184Y-75781000D01*
X116845772Y-75748297D01*
X116690900Y-75684147D01*
X116551519Y-75591015D01*
X116432985Y-75472481D01*
X116339853Y-75333100D01*
X116275703Y-75178228D01*
X116243000Y-75013816D01*
X116243000Y-74846184D01*
X116275703Y-74681772D01*
X116339853Y-74526900D01*
X116432985Y-74387519D01*
X116551519Y-74268985D01*
X116690900Y-74175853D01*
X116845772Y-74111703D01*
X117010184Y-74079000D01*
X117177816Y-74079000D01*
X117342228Y-74111703D01*
G37*
G36*
X124962228Y-74111703D02*
G01*
X125117100Y-74175853D01*
X125256481Y-74268985D01*
X125375015Y-74387519D01*
X125468147Y-74526900D01*
X125532297Y-74681772D01*
X125565000Y-74846184D01*
X125565000Y-75013816D01*
X125532297Y-75178228D01*
X125468147Y-75333100D01*
X125375015Y-75472481D01*
X125256481Y-75591015D01*
X125117100Y-75684147D01*
X124962228Y-75748297D01*
X124797816Y-75781000D01*
X124630184Y-75781000D01*
X124465772Y-75748297D01*
X124310900Y-75684147D01*
X124171519Y-75591015D01*
X124052985Y-75472481D01*
X123959853Y-75333100D01*
X123895703Y-75178228D01*
X123863000Y-75013816D01*
X123863000Y-74846184D01*
X123895703Y-74681772D01*
X123959853Y-74526900D01*
X124052985Y-74387519D01*
X124171519Y-74268985D01*
X124310900Y-74175853D01*
X124465772Y-74111703D01*
X124630184Y-74079000D01*
X124797816Y-74079000D01*
X124962228Y-74111703D01*
G37*
G36*
X72638228Y-74111703D02*
G01*
X72793100Y-74175853D01*
X72932481Y-74268985D01*
X73051015Y-74387519D01*
X73144147Y-74526900D01*
X73208297Y-74681772D01*
X73241000Y-74846184D01*
X73241000Y-75013816D01*
X73208297Y-75178228D01*
X73144147Y-75333100D01*
X73051015Y-75472481D01*
X72932481Y-75591015D01*
X72793100Y-75684147D01*
X72638228Y-75748297D01*
X72473816Y-75781000D01*
X72306184Y-75781000D01*
X72141772Y-75748297D01*
X71986900Y-75684147D01*
X71847519Y-75591015D01*
X71728985Y-75472481D01*
X71635853Y-75333100D01*
X71571703Y-75178228D01*
X71539000Y-75013816D01*
X71539000Y-74846184D01*
X71571703Y-74681772D01*
X71635853Y-74526900D01*
X71728985Y-74387519D01*
X71847519Y-74268985D01*
X71986900Y-74175853D01*
X72141772Y-74111703D01*
X72306184Y-74079000D01*
X72473816Y-74079000D01*
X72638228Y-74111703D01*
G37*
G36*
X91434228Y-74111703D02*
G01*
X91589100Y-74175853D01*
X91728481Y-74268985D01*
X91847015Y-74387519D01*
X91940147Y-74526900D01*
X92004297Y-74681772D01*
X92037000Y-74846184D01*
X92037000Y-75013816D01*
X92004297Y-75178228D01*
X91940147Y-75333100D01*
X91847015Y-75472481D01*
X91728481Y-75591015D01*
X91589100Y-75684147D01*
X91434228Y-75748297D01*
X91269816Y-75781000D01*
X91102184Y-75781000D01*
X90937772Y-75748297D01*
X90782900Y-75684147D01*
X90643519Y-75591015D01*
X90524985Y-75472481D01*
X90431853Y-75333100D01*
X90367703Y-75178228D01*
X90335000Y-75013816D01*
X90335000Y-74846184D01*
X90367703Y-74681772D01*
X90431853Y-74526900D01*
X90524985Y-74387519D01*
X90643519Y-74268985D01*
X90782900Y-74175853D01*
X90937772Y-74111703D01*
X91102184Y-74079000D01*
X91269816Y-74079000D01*
X91434228Y-74111703D01*
G37*
G36*
X99054228Y-74111703D02*
G01*
X99209100Y-74175853D01*
X99348481Y-74268985D01*
X99467015Y-74387519D01*
X99560147Y-74526900D01*
X99624297Y-74681772D01*
X99657000Y-74846184D01*
X99657000Y-75013816D01*
X99624297Y-75178228D01*
X99560147Y-75333100D01*
X99467015Y-75472481D01*
X99348481Y-75591015D01*
X99209100Y-75684147D01*
X99054228Y-75748297D01*
X98889816Y-75781000D01*
X98722184Y-75781000D01*
X98557772Y-75748297D01*
X98402900Y-75684147D01*
X98263519Y-75591015D01*
X98144985Y-75472481D01*
X98051853Y-75333100D01*
X97987703Y-75178228D01*
X97955000Y-75013816D01*
X97955000Y-74846184D01*
X97987703Y-74681772D01*
X98051853Y-74526900D01*
X98144985Y-74387519D01*
X98263519Y-74268985D01*
X98402900Y-74175853D01*
X98557772Y-74111703D01*
X98722184Y-74079000D01*
X98889816Y-74079000D01*
X99054228Y-74111703D01*
G37*
G36*
X80258228Y-74111703D02*
G01*
X80413100Y-74175853D01*
X80552481Y-74268985D01*
X80671015Y-74387519D01*
X80764147Y-74526900D01*
X80828297Y-74681772D01*
X80861000Y-74846184D01*
X80861000Y-75013816D01*
X80828297Y-75178228D01*
X80764147Y-75333100D01*
X80671015Y-75472481D01*
X80552481Y-75591015D01*
X80413100Y-75684147D01*
X80258228Y-75748297D01*
X80093816Y-75781000D01*
X79926184Y-75781000D01*
X79761772Y-75748297D01*
X79606900Y-75684147D01*
X79467519Y-75591015D01*
X79348985Y-75472481D01*
X79255853Y-75333100D01*
X79191703Y-75178228D01*
X79159000Y-75013816D01*
X79159000Y-74846184D01*
X79191703Y-74681772D01*
X79255853Y-74526900D01*
X79348985Y-74387519D01*
X79467519Y-74268985D01*
X79606900Y-74175853D01*
X79761772Y-74111703D01*
X79926184Y-74079000D01*
X80093816Y-74079000D01*
X80258228Y-74111703D01*
G37*
G36*
X55620228Y-73603703D02*
G01*
X55775100Y-73667853D01*
X55914481Y-73760985D01*
X56033015Y-73879519D01*
X56126147Y-74018900D01*
X56190297Y-74173772D01*
X56223000Y-74338184D01*
X56223000Y-74505816D01*
X56190297Y-74670228D01*
X56126147Y-74825100D01*
X56033015Y-74964481D01*
X55914481Y-75083015D01*
X55775100Y-75176147D01*
X55620228Y-75240297D01*
X55455816Y-75273000D01*
X55288184Y-75273000D01*
X55123772Y-75240297D01*
X54968900Y-75176147D01*
X54829519Y-75083015D01*
X54710985Y-74964481D01*
X54617853Y-74825100D01*
X54553703Y-74670228D01*
X54521000Y-74505816D01*
X54521000Y-74338184D01*
X54553703Y-74173772D01*
X54617853Y-74018900D01*
X54710985Y-73879519D01*
X54829519Y-73760985D01*
X54968900Y-73667853D01*
X55123772Y-73603703D01*
X55288184Y-73571000D01*
X55455816Y-73571000D01*
X55620228Y-73603703D01*
G37*
G36*
X63240228Y-73603703D02*
G01*
X63395100Y-73667853D01*
X63534481Y-73760985D01*
X63653015Y-73879519D01*
X63746147Y-74018900D01*
X63810297Y-74173772D01*
X63843000Y-74338184D01*
X63843000Y-74505816D01*
X63810297Y-74670228D01*
X63746147Y-74825100D01*
X63653015Y-74964481D01*
X63534481Y-75083015D01*
X63395100Y-75176147D01*
X63240228Y-75240297D01*
X63075816Y-75273000D01*
X62908184Y-75273000D01*
X62743772Y-75240297D01*
X62588900Y-75176147D01*
X62449519Y-75083015D01*
X62330985Y-74964481D01*
X62237853Y-74825100D01*
X62173703Y-74670228D01*
X62141000Y-74505816D01*
X62141000Y-74338184D01*
X62173703Y-74173772D01*
X62237853Y-74018900D01*
X62330985Y-73879519D01*
X62449519Y-73760985D01*
X62588900Y-73667853D01*
X62743772Y-73603703D01*
X62908184Y-73571000D01*
X63075816Y-73571000D01*
X63240228Y-73603703D01*
G37*
G36*
X51527059Y-73445860D02*
G01*
X51663732Y-73502472D01*
X51786735Y-73584660D01*
X51891340Y-73689265D01*
X51973528Y-73812268D01*
X51973529Y-73812270D01*
X52030140Y-73948941D01*
X52059000Y-74094032D01*
X52059000Y-74241968D01*
X52030140Y-74387059D01*
X51980950Y-74505815D01*
X51973528Y-74523732D01*
X51891340Y-74646735D01*
X51786735Y-74751340D01*
X51663732Y-74833528D01*
X51663731Y-74833529D01*
X51663730Y-74833529D01*
X51527059Y-74890140D01*
X51381968Y-74919000D01*
X51234032Y-74919000D01*
X51088941Y-74890140D01*
X50952270Y-74833529D01*
X50952269Y-74833529D01*
X50952268Y-74833528D01*
X50829265Y-74751340D01*
X50724660Y-74646735D01*
X50642472Y-74523732D01*
X50635051Y-74505815D01*
X50585860Y-74387059D01*
X50557000Y-74241968D01*
X50557000Y-74094032D01*
X50585860Y-73948941D01*
X50642471Y-73812270D01*
X50642472Y-73812268D01*
X50724660Y-73689265D01*
X50829265Y-73584660D01*
X50952268Y-73502472D01*
X51088941Y-73445860D01*
X51234032Y-73417000D01*
X51381968Y-73417000D01*
X51527059Y-73445860D01*
G37*
G36*
X91434228Y-71571703D02*
G01*
X91589100Y-71635853D01*
X91728481Y-71728985D01*
X91847015Y-71847519D01*
X91940147Y-71986900D01*
X92004297Y-72141772D01*
X92037000Y-72306184D01*
X92037000Y-72473816D01*
X92004297Y-72638228D01*
X91940147Y-72793100D01*
X91847015Y-72932481D01*
X91728481Y-73051015D01*
X91589100Y-73144147D01*
X91434228Y-73208297D01*
X91269816Y-73241000D01*
X91102184Y-73241000D01*
X90937772Y-73208297D01*
X90782900Y-73144147D01*
X90643519Y-73051015D01*
X90524985Y-72932481D01*
X90431853Y-72793100D01*
X90367703Y-72638228D01*
X90335000Y-72473816D01*
X90335000Y-72306184D01*
X90367703Y-72141772D01*
X90431853Y-71986900D01*
X90524985Y-71847519D01*
X90643519Y-71728985D01*
X90782900Y-71635853D01*
X90937772Y-71571703D01*
X91102184Y-71539000D01*
X91269816Y-71539000D01*
X91434228Y-71571703D01*
G37*
G36*
X80258228Y-71571703D02*
G01*
X80413100Y-71635853D01*
X80552481Y-71728985D01*
X80671015Y-71847519D01*
X80764147Y-71986900D01*
X80828297Y-72141772D01*
X80861000Y-72306184D01*
X80861000Y-72473816D01*
X80828297Y-72638228D01*
X80764147Y-72793100D01*
X80671015Y-72932481D01*
X80552481Y-73051015D01*
X80413100Y-73144147D01*
X80258228Y-73208297D01*
X80093816Y-73241000D01*
X79926184Y-73241000D01*
X79761772Y-73208297D01*
X79606900Y-73144147D01*
X79467519Y-73051015D01*
X79348985Y-72932481D01*
X79255853Y-72793100D01*
X79191703Y-72638228D01*
X79159000Y-72473816D01*
X79159000Y-72306184D01*
X79191703Y-72141772D01*
X79255853Y-71986900D01*
X79348985Y-71847519D01*
X79467519Y-71728985D01*
X79606900Y-71635853D01*
X79761772Y-71571703D01*
X79926184Y-71539000D01*
X80093816Y-71539000D01*
X80258228Y-71571703D01*
G37*
G36*
X72638228Y-71571703D02*
G01*
X72793100Y-71635853D01*
X72932481Y-71728985D01*
X73051015Y-71847519D01*
X73144147Y-71986900D01*
X73208297Y-72141772D01*
X73241000Y-72306184D01*
X73241000Y-72473816D01*
X73208297Y-72638228D01*
X73144147Y-72793100D01*
X73051015Y-72932481D01*
X72932481Y-73051015D01*
X72793100Y-73144147D01*
X72638228Y-73208297D01*
X72473816Y-73241000D01*
X72306184Y-73241000D01*
X72141772Y-73208297D01*
X71986900Y-73144147D01*
X71847519Y-73051015D01*
X71728985Y-72932481D01*
X71635853Y-72793100D01*
X71571703Y-72638228D01*
X71539000Y-72473816D01*
X71539000Y-72306184D01*
X71571703Y-72141772D01*
X71635853Y-71986900D01*
X71728985Y-71847519D01*
X71847519Y-71728985D01*
X71986900Y-71635853D01*
X72141772Y-71571703D01*
X72306184Y-71539000D01*
X72473816Y-71539000D01*
X72638228Y-71571703D01*
G37*
G36*
X117342228Y-71571703D02*
G01*
X117497100Y-71635853D01*
X117636481Y-71728985D01*
X117755015Y-71847519D01*
X117848147Y-71986900D01*
X117912297Y-72141772D01*
X117945000Y-72306184D01*
X117945000Y-72473816D01*
X117912297Y-72638228D01*
X117848147Y-72793100D01*
X117755015Y-72932481D01*
X117636481Y-73051015D01*
X117497100Y-73144147D01*
X117342228Y-73208297D01*
X117177816Y-73241000D01*
X117010184Y-73241000D01*
X116845772Y-73208297D01*
X116690900Y-73144147D01*
X116551519Y-73051015D01*
X116432985Y-72932481D01*
X116339853Y-72793100D01*
X116275703Y-72638228D01*
X116243000Y-72473816D01*
X116243000Y-72306184D01*
X116275703Y-72141772D01*
X116339853Y-71986900D01*
X116432985Y-71847519D01*
X116551519Y-71728985D01*
X116690900Y-71635853D01*
X116845772Y-71571703D01*
X117010184Y-71539000D01*
X117177816Y-71539000D01*
X117342228Y-71571703D01*
G37*
G36*
X124962228Y-71571703D02*
G01*
X125117100Y-71635853D01*
X125256481Y-71728985D01*
X125375015Y-71847519D01*
X125468147Y-71986900D01*
X125532297Y-72141772D01*
X125565000Y-72306184D01*
X125565000Y-72473816D01*
X125532297Y-72638228D01*
X125468147Y-72793100D01*
X125375015Y-72932481D01*
X125256481Y-73051015D01*
X125117100Y-73144147D01*
X124962228Y-73208297D01*
X124797816Y-73241000D01*
X124630184Y-73241000D01*
X124465772Y-73208297D01*
X124310900Y-73144147D01*
X124171519Y-73051015D01*
X124052985Y-72932481D01*
X123959853Y-72793100D01*
X123895703Y-72638228D01*
X123863000Y-72473816D01*
X123863000Y-72306184D01*
X123895703Y-72141772D01*
X123959853Y-71986900D01*
X124052985Y-71847519D01*
X124171519Y-71728985D01*
X124310900Y-71635853D01*
X124465772Y-71571703D01*
X124630184Y-71539000D01*
X124797816Y-71539000D01*
X124962228Y-71571703D01*
G37*
G36*
X99054228Y-71571703D02*
G01*
X99209100Y-71635853D01*
X99348481Y-71728985D01*
X99467015Y-71847519D01*
X99560147Y-71986900D01*
X99624297Y-72141772D01*
X99657000Y-72306184D01*
X99657000Y-72473816D01*
X99624297Y-72638228D01*
X99560147Y-72793100D01*
X99467015Y-72932481D01*
X99348481Y-73051015D01*
X99209100Y-73144147D01*
X99054228Y-73208297D01*
X98889816Y-73241000D01*
X98722184Y-73241000D01*
X98557772Y-73208297D01*
X98402900Y-73144147D01*
X98263519Y-73051015D01*
X98144985Y-72932481D01*
X98051853Y-72793100D01*
X97987703Y-72638228D01*
X97955000Y-72473816D01*
X97955000Y-72306184D01*
X97987703Y-72141772D01*
X98051853Y-71986900D01*
X98144985Y-71847519D01*
X98263519Y-71728985D01*
X98402900Y-71635853D01*
X98557772Y-71571703D01*
X98722184Y-71539000D01*
X98889816Y-71539000D01*
X99054228Y-71571703D01*
G37*
G36*
X55620228Y-71063703D02*
G01*
X55775100Y-71127853D01*
X55914481Y-71220985D01*
X56033015Y-71339519D01*
X56126147Y-71478900D01*
X56190297Y-71633772D01*
X56223000Y-71798184D01*
X56223000Y-71965816D01*
X56190297Y-72130228D01*
X56126147Y-72285100D01*
X56033015Y-72424481D01*
X55914481Y-72543015D01*
X55775100Y-72636147D01*
X55620228Y-72700297D01*
X55455816Y-72733000D01*
X55288184Y-72733000D01*
X55123772Y-72700297D01*
X54968900Y-72636147D01*
X54829519Y-72543015D01*
X54710985Y-72424481D01*
X54617853Y-72285100D01*
X54553703Y-72130228D01*
X54521000Y-71965816D01*
X54521000Y-71798184D01*
X54553703Y-71633772D01*
X54617853Y-71478900D01*
X54710985Y-71339519D01*
X54829519Y-71220985D01*
X54968900Y-71127853D01*
X55123772Y-71063703D01*
X55288184Y-71031000D01*
X55455816Y-71031000D01*
X55620228Y-71063703D01*
G37*
G36*
X63240228Y-71063703D02*
G01*
X63395100Y-71127853D01*
X63534481Y-71220985D01*
X63653015Y-71339519D01*
X63746147Y-71478900D01*
X63810297Y-71633772D01*
X63843000Y-71798184D01*
X63843000Y-71965816D01*
X63810297Y-72130228D01*
X63746147Y-72285100D01*
X63653015Y-72424481D01*
X63534481Y-72543015D01*
X63395100Y-72636147D01*
X63240228Y-72700297D01*
X63075816Y-72733000D01*
X62908184Y-72733000D01*
X62743772Y-72700297D01*
X62588900Y-72636147D01*
X62449519Y-72543015D01*
X62330985Y-72424481D01*
X62237853Y-72285100D01*
X62173703Y-72130228D01*
X62141000Y-71965816D01*
X62141000Y-71798184D01*
X62173703Y-71633772D01*
X62237853Y-71478900D01*
X62330985Y-71339519D01*
X62449519Y-71220985D01*
X62588900Y-71127853D01*
X62743772Y-71063703D01*
X62908184Y-71031000D01*
X63075816Y-71031000D01*
X63240228Y-71063703D01*
G37*
G36*
X51462894Y-70253097D02*
G01*
X51527059Y-70265860D01*
X51663732Y-70322472D01*
X51786735Y-70404660D01*
X51891340Y-70509265D01*
X51973528Y-70632268D01*
X52030140Y-70768941D01*
X52059000Y-70914033D01*
X52059000Y-71061967D01*
X52030140Y-71207059D01*
X51973528Y-71343732D01*
X51891340Y-71466735D01*
X51786735Y-71571340D01*
X51663732Y-71653528D01*
X51663731Y-71653529D01*
X51663730Y-71653529D01*
X51527059Y-71710140D01*
X51381968Y-71739000D01*
X51234032Y-71739000D01*
X51088941Y-71710140D01*
X50952270Y-71653529D01*
X50952269Y-71653529D01*
X50952268Y-71653528D01*
X50829265Y-71571340D01*
X50724660Y-71466735D01*
X50642472Y-71343732D01*
X50585860Y-71207059D01*
X50557000Y-71061967D01*
X50557000Y-70914033D01*
X50585860Y-70768941D01*
X50642472Y-70632268D01*
X50724660Y-70509265D01*
X50829265Y-70404660D01*
X50952268Y-70322472D01*
X51088941Y-70265860D01*
X51153106Y-70253097D01*
X51234032Y-70237000D01*
X51381968Y-70237000D01*
X51462894Y-70253097D01*
G37*
G36*
X72638228Y-69031703D02*
G01*
X72793100Y-69095853D01*
X72932481Y-69188985D01*
X73051015Y-69307519D01*
X73144147Y-69446900D01*
X73208297Y-69601772D01*
X73241000Y-69766184D01*
X73241000Y-69933816D01*
X73208297Y-70098228D01*
X73144147Y-70253100D01*
X73051015Y-70392481D01*
X72932481Y-70511015D01*
X72793100Y-70604147D01*
X72638228Y-70668297D01*
X72473816Y-70701000D01*
X72306184Y-70701000D01*
X72141772Y-70668297D01*
X71986900Y-70604147D01*
X71847519Y-70511015D01*
X71728985Y-70392481D01*
X71635853Y-70253100D01*
X71571703Y-70098228D01*
X71539000Y-69933816D01*
X71539000Y-69766184D01*
X71571703Y-69601772D01*
X71635853Y-69446900D01*
X71728985Y-69307519D01*
X71847519Y-69188985D01*
X71986900Y-69095853D01*
X72141772Y-69031703D01*
X72306184Y-68999000D01*
X72473816Y-68999000D01*
X72638228Y-69031703D01*
G37*
G36*
X80258228Y-69031703D02*
G01*
X80413100Y-69095853D01*
X80552481Y-69188985D01*
X80671015Y-69307519D01*
X80764147Y-69446900D01*
X80828297Y-69601772D01*
X80861000Y-69766184D01*
X80861000Y-69933816D01*
X80828297Y-70098228D01*
X80764147Y-70253100D01*
X80671015Y-70392481D01*
X80552481Y-70511015D01*
X80413100Y-70604147D01*
X80258228Y-70668297D01*
X80093816Y-70701000D01*
X79926184Y-70701000D01*
X79761772Y-70668297D01*
X79606900Y-70604147D01*
X79467519Y-70511015D01*
X79348985Y-70392481D01*
X79255853Y-70253100D01*
X79191703Y-70098228D01*
X79159000Y-69933816D01*
X79159000Y-69766184D01*
X79191703Y-69601772D01*
X79255853Y-69446900D01*
X79348985Y-69307519D01*
X79467519Y-69188985D01*
X79606900Y-69095853D01*
X79761772Y-69031703D01*
X79926184Y-68999000D01*
X80093816Y-68999000D01*
X80258228Y-69031703D01*
G37*
G36*
X91434228Y-69031703D02*
G01*
X91589100Y-69095853D01*
X91728481Y-69188985D01*
X91847015Y-69307519D01*
X91940147Y-69446900D01*
X92004297Y-69601772D01*
X92037000Y-69766184D01*
X92037000Y-69933816D01*
X92004297Y-70098228D01*
X91940147Y-70253100D01*
X91847015Y-70392481D01*
X91728481Y-70511015D01*
X91589100Y-70604147D01*
X91434228Y-70668297D01*
X91269816Y-70701000D01*
X91102184Y-70701000D01*
X90937772Y-70668297D01*
X90782900Y-70604147D01*
X90643519Y-70511015D01*
X90524985Y-70392481D01*
X90431853Y-70253100D01*
X90367703Y-70098228D01*
X90335000Y-69933816D01*
X90335000Y-69766184D01*
X90367703Y-69601772D01*
X90431853Y-69446900D01*
X90524985Y-69307519D01*
X90643519Y-69188985D01*
X90782900Y-69095853D01*
X90937772Y-69031703D01*
X91102184Y-68999000D01*
X91269816Y-68999000D01*
X91434228Y-69031703D01*
G37*
G36*
X99054228Y-69031703D02*
G01*
X99209100Y-69095853D01*
X99348481Y-69188985D01*
X99467015Y-69307519D01*
X99560147Y-69446900D01*
X99624297Y-69601772D01*
X99657000Y-69766184D01*
X99657000Y-69933816D01*
X99624297Y-70098228D01*
X99560147Y-70253100D01*
X99467015Y-70392481D01*
X99348481Y-70511015D01*
X99209100Y-70604147D01*
X99054228Y-70668297D01*
X98889816Y-70701000D01*
X98722184Y-70701000D01*
X98557772Y-70668297D01*
X98402900Y-70604147D01*
X98263519Y-70511015D01*
X98144985Y-70392481D01*
X98051853Y-70253100D01*
X97987703Y-70098228D01*
X97955000Y-69933816D01*
X97955000Y-69766184D01*
X97987703Y-69601772D01*
X98051853Y-69446900D01*
X98144985Y-69307519D01*
X98263519Y-69188985D01*
X98402900Y-69095853D01*
X98557772Y-69031703D01*
X98722184Y-68999000D01*
X98889816Y-68999000D01*
X99054228Y-69031703D01*
G37*
G36*
X117342228Y-69031703D02*
G01*
X117497100Y-69095853D01*
X117636481Y-69188985D01*
X117755015Y-69307519D01*
X117848147Y-69446900D01*
X117912297Y-69601772D01*
X117945000Y-69766184D01*
X117945000Y-69933816D01*
X117912297Y-70098228D01*
X117848147Y-70253100D01*
X117755015Y-70392481D01*
X117636481Y-70511015D01*
X117497100Y-70604147D01*
X117342228Y-70668297D01*
X117177816Y-70701000D01*
X117010184Y-70701000D01*
X116845772Y-70668297D01*
X116690900Y-70604147D01*
X116551519Y-70511015D01*
X116432985Y-70392481D01*
X116339853Y-70253100D01*
X116275703Y-70098228D01*
X116243000Y-69933816D01*
X116243000Y-69766184D01*
X116275703Y-69601772D01*
X116339853Y-69446900D01*
X116432985Y-69307519D01*
X116551519Y-69188985D01*
X116690900Y-69095853D01*
X116845772Y-69031703D01*
X117010184Y-68999000D01*
X117177816Y-68999000D01*
X117342228Y-69031703D01*
G37*
G36*
X124962228Y-69031703D02*
G01*
X125117100Y-69095853D01*
X125256481Y-69188985D01*
X125375015Y-69307519D01*
X125468147Y-69446900D01*
X125532297Y-69601772D01*
X125565000Y-69766184D01*
X125565000Y-69933816D01*
X125532297Y-70098228D01*
X125468147Y-70253100D01*
X125375015Y-70392481D01*
X125256481Y-70511015D01*
X125117100Y-70604147D01*
X124962228Y-70668297D01*
X124797816Y-70701000D01*
X124630184Y-70701000D01*
X124465772Y-70668297D01*
X124310900Y-70604147D01*
X124171519Y-70511015D01*
X124052985Y-70392481D01*
X123959853Y-70253100D01*
X123895703Y-70098228D01*
X123863000Y-69933816D01*
X123863000Y-69766184D01*
X123895703Y-69601772D01*
X123959853Y-69446900D01*
X124052985Y-69307519D01*
X124171519Y-69188985D01*
X124310900Y-69095853D01*
X124465772Y-69031703D01*
X124630184Y-68999000D01*
X124797816Y-68999000D01*
X124962228Y-69031703D01*
G37*
G36*
X51527059Y-68365860D02*
G01*
X51663732Y-68422472D01*
X51786735Y-68504660D01*
X51891340Y-68609265D01*
X51973528Y-68732268D01*
X52030140Y-68868941D01*
X52059000Y-69014033D01*
X52059000Y-69161967D01*
X52030140Y-69307059D01*
X51973528Y-69443732D01*
X51891340Y-69566735D01*
X51786735Y-69671340D01*
X51663732Y-69753528D01*
X51663731Y-69753529D01*
X51663730Y-69753529D01*
X51527059Y-69810140D01*
X51381968Y-69839000D01*
X51234032Y-69839000D01*
X51088941Y-69810140D01*
X50952270Y-69753529D01*
X50952269Y-69753529D01*
X50952268Y-69753528D01*
X50829265Y-69671340D01*
X50724660Y-69566735D01*
X50642472Y-69443732D01*
X50585860Y-69307059D01*
X50557000Y-69161967D01*
X50557000Y-69014033D01*
X50585860Y-68868941D01*
X50642472Y-68732268D01*
X50724660Y-68609265D01*
X50829265Y-68504660D01*
X50952268Y-68422472D01*
X51088941Y-68365860D01*
X51234032Y-68337000D01*
X51381968Y-68337000D01*
X51527059Y-68365860D01*
G37*
G36*
X117342228Y-66491703D02*
G01*
X117497100Y-66555853D01*
X117636481Y-66648985D01*
X117755015Y-66767519D01*
X117848147Y-66906900D01*
X117912297Y-67061772D01*
X117945000Y-67226184D01*
X117945000Y-67393816D01*
X117912297Y-67558228D01*
X117848147Y-67713100D01*
X117755015Y-67852481D01*
X117636481Y-67971015D01*
X117497100Y-68064147D01*
X117342228Y-68128297D01*
X117177816Y-68161000D01*
X117010184Y-68161000D01*
X116845772Y-68128297D01*
X116690900Y-68064147D01*
X116551519Y-67971015D01*
X116432985Y-67852481D01*
X116339853Y-67713100D01*
X116275703Y-67558228D01*
X116243000Y-67393816D01*
X116243000Y-67226184D01*
X116275703Y-67061772D01*
X116339853Y-66906900D01*
X116432985Y-66767519D01*
X116551519Y-66648985D01*
X116690900Y-66555853D01*
X116845772Y-66491703D01*
X117010184Y-66459000D01*
X117177816Y-66459000D01*
X117342228Y-66491703D01*
G37*
G36*
X124962228Y-66491703D02*
G01*
X125117100Y-66555853D01*
X125256481Y-66648985D01*
X125375015Y-66767519D01*
X125468147Y-66906900D01*
X125532297Y-67061772D01*
X125565000Y-67226184D01*
X125565000Y-67393816D01*
X125532297Y-67558228D01*
X125468147Y-67713100D01*
X125375015Y-67852481D01*
X125256481Y-67971015D01*
X125117100Y-68064147D01*
X124962228Y-68128297D01*
X124797816Y-68161000D01*
X124630184Y-68161000D01*
X124465772Y-68128297D01*
X124310900Y-68064147D01*
X124171519Y-67971015D01*
X124052985Y-67852481D01*
X123959853Y-67713100D01*
X123895703Y-67558228D01*
X123863000Y-67393816D01*
X123863000Y-67226184D01*
X123895703Y-67061772D01*
X123959853Y-66906900D01*
X124052985Y-66767519D01*
X124171519Y-66648985D01*
X124310900Y-66555853D01*
X124465772Y-66491703D01*
X124630184Y-66459000D01*
X124797816Y-66459000D01*
X124962228Y-66491703D01*
G37*
G36*
X80258228Y-66491703D02*
G01*
X80413100Y-66555853D01*
X80552481Y-66648985D01*
X80671015Y-66767519D01*
X80764147Y-66906900D01*
X80828297Y-67061772D01*
X80861000Y-67226184D01*
X80861000Y-67393816D01*
X80828297Y-67558228D01*
X80764147Y-67713100D01*
X80671015Y-67852481D01*
X80552481Y-67971015D01*
X80413100Y-68064147D01*
X80258228Y-68128297D01*
X80093816Y-68161000D01*
X79926184Y-68161000D01*
X79761772Y-68128297D01*
X79606900Y-68064147D01*
X79467519Y-67971015D01*
X79348985Y-67852481D01*
X79255853Y-67713100D01*
X79191703Y-67558228D01*
X79159000Y-67393816D01*
X79159000Y-67226184D01*
X79191703Y-67061772D01*
X79255853Y-66906900D01*
X79348985Y-66767519D01*
X79467519Y-66648985D01*
X79606900Y-66555853D01*
X79761772Y-66491703D01*
X79926184Y-66459000D01*
X80093816Y-66459000D01*
X80258228Y-66491703D01*
G37*
G36*
X99054228Y-66491703D02*
G01*
X99209100Y-66555853D01*
X99348481Y-66648985D01*
X99467015Y-66767519D01*
X99560147Y-66906900D01*
X99624297Y-67061772D01*
X99657000Y-67226184D01*
X99657000Y-67393816D01*
X99624297Y-67558228D01*
X99560147Y-67713100D01*
X99467015Y-67852481D01*
X99348481Y-67971015D01*
X99209100Y-68064147D01*
X99054228Y-68128297D01*
X98889816Y-68161000D01*
X98722184Y-68161000D01*
X98557772Y-68128297D01*
X98402900Y-68064147D01*
X98263519Y-67971015D01*
X98144985Y-67852481D01*
X98051853Y-67713100D01*
X97987703Y-67558228D01*
X97955000Y-67393816D01*
X97955000Y-67226184D01*
X97987703Y-67061772D01*
X98051853Y-66906900D01*
X98144985Y-66767519D01*
X98263519Y-66648985D01*
X98402900Y-66555853D01*
X98557772Y-66491703D01*
X98722184Y-66459000D01*
X98889816Y-66459000D01*
X99054228Y-66491703D01*
G37*
G36*
X91434228Y-66491703D02*
G01*
X91589100Y-66555853D01*
X91728481Y-66648985D01*
X91847015Y-66767519D01*
X91940147Y-66906900D01*
X92004297Y-67061772D01*
X92037000Y-67226184D01*
X92037000Y-67393816D01*
X92004297Y-67558228D01*
X91940147Y-67713100D01*
X91847015Y-67852481D01*
X91728481Y-67971015D01*
X91589100Y-68064147D01*
X91434228Y-68128297D01*
X91269816Y-68161000D01*
X91102184Y-68161000D01*
X90937772Y-68128297D01*
X90782900Y-68064147D01*
X90643519Y-67971015D01*
X90524985Y-67852481D01*
X90431853Y-67713100D01*
X90367703Y-67558228D01*
X90335000Y-67393816D01*
X90335000Y-67226184D01*
X90367703Y-67061772D01*
X90431853Y-66906900D01*
X90524985Y-66767519D01*
X90643519Y-66648985D01*
X90782900Y-66555853D01*
X90937772Y-66491703D01*
X91102184Y-66459000D01*
X91269816Y-66459000D01*
X91434228Y-66491703D01*
G37*
G36*
X72638228Y-66491703D02*
G01*
X72793100Y-66555853D01*
X72932481Y-66648985D01*
X73051015Y-66767519D01*
X73144147Y-66906900D01*
X73208297Y-67061772D01*
X73241000Y-67226184D01*
X73241000Y-67393816D01*
X73208297Y-67558228D01*
X73144147Y-67713100D01*
X73051015Y-67852481D01*
X72932481Y-67971015D01*
X72793100Y-68064147D01*
X72638228Y-68128297D01*
X72473816Y-68161000D01*
X72306184Y-68161000D01*
X72141772Y-68128297D01*
X71986900Y-68064147D01*
X71847519Y-67971015D01*
X71728985Y-67852481D01*
X71635853Y-67713100D01*
X71571703Y-67558228D01*
X71539000Y-67393816D01*
X71539000Y-67226184D01*
X71571703Y-67061772D01*
X71635853Y-66906900D01*
X71728985Y-66767519D01*
X71847519Y-66648985D01*
X71986900Y-66555853D01*
X72141772Y-66491703D01*
X72306184Y-66459000D01*
X72473816Y-66459000D01*
X72638228Y-66491703D01*
G37*
G36*
X51462894Y-65173097D02*
G01*
X51527059Y-65185860D01*
X51663732Y-65242472D01*
X51786735Y-65324660D01*
X51891340Y-65429265D01*
X51973528Y-65552268D01*
X52030140Y-65688941D01*
X52059000Y-65834033D01*
X52059000Y-65981967D01*
X52030140Y-66127059D01*
X51973528Y-66263732D01*
X51891340Y-66386735D01*
X51786735Y-66491340D01*
X51663732Y-66573528D01*
X51663731Y-66573529D01*
X51663730Y-66573529D01*
X51527059Y-66630140D01*
X51381968Y-66659000D01*
X51234032Y-66659000D01*
X51088941Y-66630140D01*
X50952270Y-66573529D01*
X50952269Y-66573529D01*
X50952268Y-66573528D01*
X50829265Y-66491340D01*
X50724660Y-66386735D01*
X50642472Y-66263732D01*
X50585860Y-66127059D01*
X50557000Y-65981967D01*
X50557000Y-65834033D01*
X50585860Y-65688941D01*
X50642472Y-65552268D01*
X50724660Y-65429265D01*
X50829265Y-65324660D01*
X50952268Y-65242472D01*
X51088941Y-65185860D01*
X51153106Y-65173097D01*
X51234032Y-65157000D01*
X51381968Y-65157000D01*
X51462894Y-65173097D01*
G37*
G36*
X63146894Y-65173097D02*
G01*
X63211059Y-65185860D01*
X63347732Y-65242472D01*
X63470735Y-65324660D01*
X63575340Y-65429265D01*
X63657528Y-65552268D01*
X63714140Y-65688941D01*
X63743000Y-65834033D01*
X63743000Y-65981967D01*
X63714140Y-66127059D01*
X63657528Y-66263732D01*
X63575340Y-66386735D01*
X63470735Y-66491340D01*
X63347732Y-66573528D01*
X63347731Y-66573529D01*
X63347730Y-66573529D01*
X63211059Y-66630140D01*
X63065968Y-66659000D01*
X62918032Y-66659000D01*
X62772941Y-66630140D01*
X62636270Y-66573529D01*
X62636269Y-66573529D01*
X62636268Y-66573528D01*
X62513265Y-66491340D01*
X62408660Y-66386735D01*
X62326472Y-66263732D01*
X62269860Y-66127059D01*
X62241000Y-65981967D01*
X62241000Y-65834033D01*
X62269860Y-65688941D01*
X62326472Y-65552268D01*
X62408660Y-65429265D01*
X62513265Y-65324660D01*
X62636268Y-65242472D01*
X62772941Y-65185860D01*
X62837106Y-65173097D01*
X62918032Y-65157000D01*
X63065968Y-65157000D01*
X63146894Y-65173097D01*
G37*
G36*
X80258228Y-63951703D02*
G01*
X80413100Y-64015853D01*
X80552481Y-64108985D01*
X80671015Y-64227519D01*
X80764147Y-64366900D01*
X80828297Y-64521772D01*
X80861000Y-64686184D01*
X80861000Y-64853816D01*
X80828297Y-65018228D01*
X80764147Y-65173100D01*
X80671015Y-65312481D01*
X80552481Y-65431015D01*
X80413100Y-65524147D01*
X80258228Y-65588297D01*
X80093816Y-65621000D01*
X79926184Y-65621000D01*
X79761772Y-65588297D01*
X79606900Y-65524147D01*
X79467519Y-65431015D01*
X79348985Y-65312481D01*
X79255853Y-65173100D01*
X79191703Y-65018228D01*
X79159000Y-64853816D01*
X79159000Y-64686184D01*
X79191703Y-64521772D01*
X79255853Y-64366900D01*
X79348985Y-64227519D01*
X79467519Y-64108985D01*
X79606900Y-64015853D01*
X79761772Y-63951703D01*
X79926184Y-63919000D01*
X80093816Y-63919000D01*
X80258228Y-63951703D01*
G37*
G36*
X117342228Y-63951703D02*
G01*
X117497100Y-64015853D01*
X117636481Y-64108985D01*
X117755015Y-64227519D01*
X117848147Y-64366900D01*
X117912297Y-64521772D01*
X117945000Y-64686184D01*
X117945000Y-64853816D01*
X117912297Y-65018228D01*
X117848147Y-65173100D01*
X117755015Y-65312481D01*
X117636481Y-65431015D01*
X117497100Y-65524147D01*
X117342228Y-65588297D01*
X117177816Y-65621000D01*
X117010184Y-65621000D01*
X116845772Y-65588297D01*
X116690900Y-65524147D01*
X116551519Y-65431015D01*
X116432985Y-65312481D01*
X116339853Y-65173100D01*
X116275703Y-65018228D01*
X116243000Y-64853816D01*
X116243000Y-64686184D01*
X116275703Y-64521772D01*
X116339853Y-64366900D01*
X116432985Y-64227519D01*
X116551519Y-64108985D01*
X116690900Y-64015853D01*
X116845772Y-63951703D01*
X117010184Y-63919000D01*
X117177816Y-63919000D01*
X117342228Y-63951703D01*
G37*
G36*
X124962228Y-63951703D02*
G01*
X125117100Y-64015853D01*
X125256481Y-64108985D01*
X125375015Y-64227519D01*
X125468147Y-64366900D01*
X125532297Y-64521772D01*
X125565000Y-64686184D01*
X125565000Y-64853816D01*
X125532297Y-65018228D01*
X125468147Y-65173100D01*
X125375015Y-65312481D01*
X125256481Y-65431015D01*
X125117100Y-65524147D01*
X124962228Y-65588297D01*
X124797816Y-65621000D01*
X124630184Y-65621000D01*
X124465772Y-65588297D01*
X124310900Y-65524147D01*
X124171519Y-65431015D01*
X124052985Y-65312481D01*
X123959853Y-65173100D01*
X123895703Y-65018228D01*
X123863000Y-64853816D01*
X123863000Y-64686184D01*
X123895703Y-64521772D01*
X123959853Y-64366900D01*
X124052985Y-64227519D01*
X124171519Y-64108985D01*
X124310900Y-64015853D01*
X124465772Y-63951703D01*
X124630184Y-63919000D01*
X124797816Y-63919000D01*
X124962228Y-63951703D01*
G37*
G36*
X99054228Y-63951703D02*
G01*
X99209100Y-64015853D01*
X99348481Y-64108985D01*
X99467015Y-64227519D01*
X99560147Y-64366900D01*
X99624297Y-64521772D01*
X99657000Y-64686184D01*
X99657000Y-64853816D01*
X99624297Y-65018228D01*
X99560147Y-65173100D01*
X99467015Y-65312481D01*
X99348481Y-65431015D01*
X99209100Y-65524147D01*
X99054228Y-65588297D01*
X98889816Y-65621000D01*
X98722184Y-65621000D01*
X98557772Y-65588297D01*
X98402900Y-65524147D01*
X98263519Y-65431015D01*
X98144985Y-65312481D01*
X98051853Y-65173100D01*
X97987703Y-65018228D01*
X97955000Y-64853816D01*
X97955000Y-64686184D01*
X97987703Y-64521772D01*
X98051853Y-64366900D01*
X98144985Y-64227519D01*
X98263519Y-64108985D01*
X98402900Y-64015853D01*
X98557772Y-63951703D01*
X98722184Y-63919000D01*
X98889816Y-63919000D01*
X99054228Y-63951703D01*
G37*
G36*
X91434228Y-63951703D02*
G01*
X91589100Y-64015853D01*
X91728481Y-64108985D01*
X91847015Y-64227519D01*
X91940147Y-64366900D01*
X92004297Y-64521772D01*
X92037000Y-64686184D01*
X92037000Y-64853816D01*
X92004297Y-65018228D01*
X91940147Y-65173100D01*
X91847015Y-65312481D01*
X91728481Y-65431015D01*
X91589100Y-65524147D01*
X91434228Y-65588297D01*
X91269816Y-65621000D01*
X91102184Y-65621000D01*
X90937772Y-65588297D01*
X90782900Y-65524147D01*
X90643519Y-65431015D01*
X90524985Y-65312481D01*
X90431853Y-65173100D01*
X90367703Y-65018228D01*
X90335000Y-64853816D01*
X90335000Y-64686184D01*
X90367703Y-64521772D01*
X90431853Y-64366900D01*
X90524985Y-64227519D01*
X90643519Y-64108985D01*
X90782900Y-64015853D01*
X90937772Y-63951703D01*
X91102184Y-63919000D01*
X91269816Y-63919000D01*
X91434228Y-63951703D01*
G37*
G36*
X72638228Y-63951703D02*
G01*
X72793100Y-64015853D01*
X72932481Y-64108985D01*
X73051015Y-64227519D01*
X73144147Y-64366900D01*
X73208297Y-64521772D01*
X73241000Y-64686184D01*
X73241000Y-64853816D01*
X73208297Y-65018228D01*
X73144147Y-65173100D01*
X73051015Y-65312481D01*
X72932481Y-65431015D01*
X72793100Y-65524147D01*
X72638228Y-65588297D01*
X72473816Y-65621000D01*
X72306184Y-65621000D01*
X72141772Y-65588297D01*
X71986900Y-65524147D01*
X71847519Y-65431015D01*
X71728985Y-65312481D01*
X71635853Y-65173100D01*
X71571703Y-65018228D01*
X71539000Y-64853816D01*
X71539000Y-64686184D01*
X71571703Y-64521772D01*
X71635853Y-64366900D01*
X71728985Y-64227519D01*
X71847519Y-64108985D01*
X71986900Y-64015853D01*
X72141772Y-63951703D01*
X72306184Y-63919000D01*
X72473816Y-63919000D01*
X72638228Y-63951703D01*
G37*
G36*
X63211059Y-63285860D02*
G01*
X63347732Y-63342472D01*
X63470735Y-63424660D01*
X63575340Y-63529265D01*
X63657528Y-63652268D01*
X63714140Y-63788941D01*
X63743000Y-63934033D01*
X63743000Y-64081967D01*
X63714140Y-64227059D01*
X63657528Y-64363732D01*
X63575340Y-64486735D01*
X63470735Y-64591340D01*
X63347732Y-64673528D01*
X63347731Y-64673529D01*
X63347730Y-64673529D01*
X63211059Y-64730140D01*
X63065968Y-64759000D01*
X62918032Y-64759000D01*
X62772941Y-64730140D01*
X62636270Y-64673529D01*
X62636269Y-64673529D01*
X62636268Y-64673528D01*
X62513265Y-64591340D01*
X62408660Y-64486735D01*
X62326472Y-64363732D01*
X62269860Y-64227059D01*
X62241000Y-64081967D01*
X62241000Y-63934033D01*
X62269860Y-63788941D01*
X62326472Y-63652268D01*
X62408660Y-63529265D01*
X62513265Y-63424660D01*
X62636268Y-63342472D01*
X62772941Y-63285860D01*
X62918032Y-63257000D01*
X63065968Y-63257000D01*
X63211059Y-63285860D01*
G37*
G36*
X57877059Y-63285860D02*
G01*
X58013732Y-63342472D01*
X58136735Y-63424660D01*
X58241340Y-63529265D01*
X58323528Y-63652268D01*
X58380140Y-63788941D01*
X58409000Y-63934033D01*
X58409000Y-64081967D01*
X58380140Y-64227059D01*
X58323528Y-64363732D01*
X58241340Y-64486735D01*
X58136735Y-64591340D01*
X58013732Y-64673528D01*
X58013731Y-64673529D01*
X58013730Y-64673529D01*
X57877059Y-64730140D01*
X57731968Y-64759000D01*
X57584032Y-64759000D01*
X57438941Y-64730140D01*
X57302270Y-64673529D01*
X57302269Y-64673529D01*
X57302268Y-64673528D01*
X57179265Y-64591340D01*
X57074660Y-64486735D01*
X56992472Y-64363732D01*
X56935860Y-64227059D01*
X56907000Y-64081967D01*
X56907000Y-63934033D01*
X56935860Y-63788941D01*
X56992472Y-63652268D01*
X57074660Y-63529265D01*
X57179265Y-63424660D01*
X57302268Y-63342472D01*
X57438941Y-63285860D01*
X57584032Y-63257000D01*
X57731968Y-63257000D01*
X57877059Y-63285860D01*
G37*
G36*
X51527059Y-63285860D02*
G01*
X51663732Y-63342472D01*
X51786735Y-63424660D01*
X51891340Y-63529265D01*
X51973528Y-63652268D01*
X52030140Y-63788941D01*
X52059000Y-63934033D01*
X52059000Y-64081967D01*
X52030140Y-64227059D01*
X51973528Y-64363732D01*
X51891340Y-64486735D01*
X51786735Y-64591340D01*
X51663732Y-64673528D01*
X51663731Y-64673529D01*
X51663730Y-64673529D01*
X51527059Y-64730140D01*
X51381968Y-64759000D01*
X51234032Y-64759000D01*
X51088941Y-64730140D01*
X50952270Y-64673529D01*
X50952269Y-64673529D01*
X50952268Y-64673528D01*
X50829265Y-64591340D01*
X50724660Y-64486735D01*
X50642472Y-64363732D01*
X50585860Y-64227059D01*
X50557000Y-64081967D01*
X50557000Y-63934033D01*
X50585860Y-63788941D01*
X50642472Y-63652268D01*
X50724660Y-63529265D01*
X50829265Y-63424660D01*
X50952268Y-63342472D01*
X51088941Y-63285860D01*
X51234032Y-63257000D01*
X51381968Y-63257000D01*
X51527059Y-63285860D01*
G37*
G36*
X59777059Y-63285860D02*
G01*
X59913732Y-63342472D01*
X60036735Y-63424660D01*
X60141340Y-63529265D01*
X60223528Y-63652268D01*
X60280140Y-63788941D01*
X60309000Y-63934033D01*
X60309000Y-64081967D01*
X60280140Y-64227059D01*
X60223528Y-64363732D01*
X60141340Y-64486735D01*
X60036735Y-64591340D01*
X59913732Y-64673528D01*
X59913731Y-64673529D01*
X59913730Y-64673529D01*
X59777059Y-64730140D01*
X59631968Y-64759000D01*
X59484032Y-64759000D01*
X59338941Y-64730140D01*
X59202270Y-64673529D01*
X59202269Y-64673529D01*
X59202268Y-64673528D01*
X59079265Y-64591340D01*
X58974660Y-64486735D01*
X58892472Y-64363732D01*
X58835860Y-64227059D01*
X58807000Y-64081967D01*
X58807000Y-63934033D01*
X58835860Y-63788941D01*
X58892472Y-63652268D01*
X58974660Y-63529265D01*
X59079265Y-63424660D01*
X59202268Y-63342472D01*
X59338941Y-63285860D01*
X59484032Y-63257000D01*
X59631968Y-63257000D01*
X59777059Y-63285860D01*
G37*
G36*
X117945000Y-63081000D02*
G01*
X116243000Y-63081000D01*
X116243000Y-61379000D01*
X117945000Y-61379000D01*
X117945000Y-63081000D01*
G37*
G36*
X73241000Y-63081000D02*
G01*
X71539000Y-63081000D01*
X71539000Y-61379000D01*
X73241000Y-61379000D01*
X73241000Y-63081000D01*
G37*
G36*
X99054228Y-61411703D02*
G01*
X99209100Y-61475853D01*
X99348481Y-61568985D01*
X99467015Y-61687519D01*
X99560147Y-61826900D01*
X99624297Y-61981772D01*
X99657000Y-62146184D01*
X99657000Y-62313816D01*
X99624297Y-62478228D01*
X99560147Y-62633100D01*
X99467015Y-62772481D01*
X99348481Y-62891015D01*
X99209100Y-62984147D01*
X99054228Y-63048297D01*
X98889816Y-63081000D01*
X98722184Y-63081000D01*
X98557772Y-63048297D01*
X98402900Y-62984147D01*
X98263519Y-62891015D01*
X98144985Y-62772481D01*
X98051853Y-62633100D01*
X97987703Y-62478228D01*
X97955000Y-62313816D01*
X97955000Y-62146184D01*
X97987703Y-61981772D01*
X98051853Y-61826900D01*
X98144985Y-61687519D01*
X98263519Y-61568985D01*
X98402900Y-61475853D01*
X98557772Y-61411703D01*
X98722184Y-61379000D01*
X98889816Y-61379000D01*
X99054228Y-61411703D01*
G37*
G36*
X92037000Y-63081000D02*
G01*
X90335000Y-63081000D01*
X90335000Y-61379000D01*
X92037000Y-61379000D01*
X92037000Y-63081000D01*
G37*
G36*
X124962228Y-61411703D02*
G01*
X125117100Y-61475853D01*
X125256481Y-61568985D01*
X125375015Y-61687519D01*
X125468147Y-61826900D01*
X125532297Y-61981772D01*
X125565000Y-62146184D01*
X125565000Y-62313816D01*
X125532297Y-62478228D01*
X125468147Y-62633100D01*
X125375015Y-62772481D01*
X125256481Y-62891015D01*
X125117100Y-62984147D01*
X124962228Y-63048297D01*
X124797816Y-63081000D01*
X124630184Y-63081000D01*
X124465772Y-63048297D01*
X124310900Y-62984147D01*
X124171519Y-62891015D01*
X124052985Y-62772481D01*
X123959853Y-62633100D01*
X123895703Y-62478228D01*
X123863000Y-62313816D01*
X123863000Y-62146184D01*
X123895703Y-61981772D01*
X123959853Y-61826900D01*
X124052985Y-61687519D01*
X124171519Y-61568985D01*
X124310900Y-61475853D01*
X124465772Y-61411703D01*
X124630184Y-61379000D01*
X124797816Y-61379000D01*
X124962228Y-61411703D01*
G37*
G36*
X80258228Y-61411703D02*
G01*
X80413100Y-61475853D01*
X80552481Y-61568985D01*
X80671015Y-61687519D01*
X80764147Y-61826900D01*
X80828297Y-61981772D01*
X80861000Y-62146184D01*
X80861000Y-62313816D01*
X80828297Y-62478228D01*
X80764147Y-62633100D01*
X80671015Y-62772481D01*
X80552481Y-62891015D01*
X80413100Y-62984147D01*
X80258228Y-63048297D01*
X80093816Y-63081000D01*
X79926184Y-63081000D01*
X79761772Y-63048297D01*
X79606900Y-62984147D01*
X79467519Y-62891015D01*
X79348985Y-62772481D01*
X79255853Y-62633100D01*
X79191703Y-62478228D01*
X79159000Y-62313816D01*
X79159000Y-62146184D01*
X79191703Y-61981772D01*
X79255853Y-61826900D01*
X79348985Y-61687519D01*
X79467519Y-61568985D01*
X79606900Y-61475853D01*
X79761772Y-61411703D01*
X79926184Y-61379000D01*
X80093816Y-61379000D01*
X80258228Y-61411703D01*
G37*
G36*
X100589369Y-51468971D02*
G01*
X100751195Y-51536002D01*
X100896829Y-51633311D01*
X101020689Y-51757171D01*
X101117998Y-51902805D01*
X101185029Y-52064631D01*
X101219200Y-52236420D01*
X101219200Y-52411580D01*
X101185029Y-52583369D01*
X101117998Y-52745195D01*
X101020689Y-52890829D01*
X100896829Y-53014689D01*
X100751195Y-53111998D01*
X100589369Y-53179029D01*
X100417580Y-53213200D01*
X100242420Y-53213200D01*
X100070631Y-53179029D01*
X99908805Y-53111998D01*
X99763171Y-53014689D01*
X99639311Y-52890829D01*
X99542002Y-52745195D01*
X99474971Y-52583369D01*
X99440800Y-52411580D01*
X99440800Y-52236420D01*
X99474971Y-52064631D01*
X99542002Y-51902805D01*
X99639311Y-51757171D01*
X99763171Y-51633311D01*
X99908805Y-51536002D01*
X100070631Y-51468971D01*
X100242420Y-51434800D01*
X100417580Y-51434800D01*
X100589369Y-51468971D01*
G37*
G36*
X90429369Y-51468971D02*
G01*
X90591195Y-51536002D01*
X90736829Y-51633311D01*
X90860689Y-51757171D01*
X90957998Y-51902805D01*
X91025029Y-52064631D01*
X91059200Y-52236420D01*
X91059200Y-52411580D01*
X91025029Y-52583369D01*
X90957998Y-52745195D01*
X90860689Y-52890829D01*
X90736829Y-53014689D01*
X90591195Y-53111998D01*
X90429369Y-53179029D01*
X90257580Y-53213200D01*
X90082420Y-53213200D01*
X89910631Y-53179029D01*
X89748805Y-53111998D01*
X89603171Y-53014689D01*
X89479311Y-52890829D01*
X89382002Y-52745195D01*
X89314971Y-52583369D01*
X89280800Y-52411580D01*
X89280800Y-52236420D01*
X89314971Y-52064631D01*
X89382002Y-51902805D01*
X89479311Y-51757171D01*
X89603171Y-51633311D01*
X89748805Y-51536002D01*
X89910631Y-51468971D01*
X90082420Y-51434800D01*
X90257580Y-51434800D01*
X90429369Y-51468971D01*
G37*
G36*
X92969369Y-51468971D02*
G01*
X93131195Y-51536002D01*
X93276829Y-51633311D01*
X93400689Y-51757171D01*
X93497998Y-51902805D01*
X93565029Y-52064631D01*
X93599200Y-52236420D01*
X93599200Y-52411580D01*
X93565029Y-52583369D01*
X93497998Y-52745195D01*
X93400689Y-52890829D01*
X93276829Y-53014689D01*
X93131195Y-53111998D01*
X92969369Y-53179029D01*
X92797580Y-53213200D01*
X92622420Y-53213200D01*
X92450631Y-53179029D01*
X92288805Y-53111998D01*
X92143171Y-53014689D01*
X92019311Y-52890829D01*
X91922002Y-52745195D01*
X91854971Y-52583369D01*
X91820800Y-52411580D01*
X91820800Y-52236420D01*
X91854971Y-52064631D01*
X91922002Y-51902805D01*
X92019311Y-51757171D01*
X92143171Y-51633311D01*
X92288805Y-51536002D01*
X92450631Y-51468971D01*
X92622420Y-51434800D01*
X92797580Y-51434800D01*
X92969369Y-51468971D01*
G37*
G36*
X95509369Y-51468971D02*
G01*
X95671195Y-51536002D01*
X95816829Y-51633311D01*
X95940689Y-51757171D01*
X96037998Y-51902805D01*
X96105029Y-52064631D01*
X96139200Y-52236420D01*
X96139200Y-52411580D01*
X96105029Y-52583369D01*
X96037998Y-52745195D01*
X95940689Y-52890829D01*
X95816829Y-53014689D01*
X95671195Y-53111998D01*
X95509369Y-53179029D01*
X95337580Y-53213200D01*
X95162420Y-53213200D01*
X94990631Y-53179029D01*
X94828805Y-53111998D01*
X94683171Y-53014689D01*
X94559311Y-52890829D01*
X94462002Y-52745195D01*
X94394971Y-52583369D01*
X94360800Y-52411580D01*
X94360800Y-52236420D01*
X94394971Y-52064631D01*
X94462002Y-51902805D01*
X94559311Y-51757171D01*
X94683171Y-51633311D01*
X94828805Y-51536002D01*
X94990631Y-51468971D01*
X95162420Y-51434800D01*
X95337580Y-51434800D01*
X95509369Y-51468971D01*
G37*
G36*
X98049369Y-51468971D02*
G01*
X98211195Y-51536002D01*
X98356829Y-51633311D01*
X98480689Y-51757171D01*
X98577998Y-51902805D01*
X98645029Y-52064631D01*
X98679200Y-52236420D01*
X98679200Y-52411580D01*
X98645029Y-52583369D01*
X98577998Y-52745195D01*
X98480689Y-52890829D01*
X98356829Y-53014689D01*
X98211195Y-53111998D01*
X98049369Y-53179029D01*
X97877580Y-53213200D01*
X97702420Y-53213200D01*
X97530631Y-53179029D01*
X97368805Y-53111998D01*
X97223171Y-53014689D01*
X97099311Y-52890829D01*
X97002002Y-52745195D01*
X96934971Y-52583369D01*
X96900800Y-52411580D01*
X96900800Y-52236420D01*
X96934971Y-52064631D01*
X97002002Y-51902805D01*
X97099311Y-51757171D01*
X97223171Y-51633311D01*
X97368805Y-51536002D01*
X97530631Y-51468971D01*
X97702420Y-51434800D01*
X97877580Y-51434800D01*
X98049369Y-51468971D01*
G37*
G36*
X75189369Y-51468971D02*
G01*
X75351195Y-51536002D01*
X75496829Y-51633311D01*
X75620689Y-51757171D01*
X75717998Y-51902805D01*
X75785029Y-52064631D01*
X75819200Y-52236420D01*
X75819200Y-52411580D01*
X75785029Y-52583369D01*
X75717998Y-52745195D01*
X75620689Y-52890829D01*
X75496829Y-53014689D01*
X75351195Y-53111998D01*
X75189369Y-53179029D01*
X75017580Y-53213200D01*
X74842420Y-53213200D01*
X74670631Y-53179029D01*
X74508805Y-53111998D01*
X74363171Y-53014689D01*
X74239311Y-52890829D01*
X74142002Y-52745195D01*
X74074971Y-52583369D01*
X74040800Y-52411580D01*
X74040800Y-52236420D01*
X74074971Y-52064631D01*
X74142002Y-51902805D01*
X74239311Y-51757171D01*
X74363171Y-51633311D01*
X74508805Y-51536002D01*
X74670631Y-51468971D01*
X74842420Y-51434800D01*
X75017580Y-51434800D01*
X75189369Y-51468971D01*
G37*
G36*
X72649369Y-51468971D02*
G01*
X72811195Y-51536002D01*
X72956829Y-51633311D01*
X73080689Y-51757171D01*
X73177998Y-51902805D01*
X73245029Y-52064631D01*
X73279200Y-52236420D01*
X73279200Y-52411580D01*
X73245029Y-52583369D01*
X73177998Y-52745195D01*
X73080689Y-52890829D01*
X72956829Y-53014689D01*
X72811195Y-53111998D01*
X72649369Y-53179029D01*
X72477580Y-53213200D01*
X72302420Y-53213200D01*
X72130631Y-53179029D01*
X71968805Y-53111998D01*
X71823171Y-53014689D01*
X71699311Y-52890829D01*
X71602002Y-52745195D01*
X71534971Y-52583369D01*
X71500800Y-52411580D01*
X71500800Y-52236420D01*
X71534971Y-52064631D01*
X71602002Y-51902805D01*
X71699311Y-51757171D01*
X71823171Y-51633311D01*
X71968805Y-51536002D01*
X72130631Y-51468971D01*
X72302420Y-51434800D01*
X72477580Y-51434800D01*
X72649369Y-51468971D01*
G37*
G36*
X87889369Y-51468971D02*
G01*
X88051195Y-51536002D01*
X88196829Y-51633311D01*
X88320689Y-51757171D01*
X88417998Y-51902805D01*
X88485029Y-52064631D01*
X88519200Y-52236420D01*
X88519200Y-52411580D01*
X88485029Y-52583369D01*
X88417998Y-52745195D01*
X88320689Y-52890829D01*
X88196829Y-53014689D01*
X88051195Y-53111998D01*
X87889369Y-53179029D01*
X87717580Y-53213200D01*
X87542420Y-53213200D01*
X87370631Y-53179029D01*
X87208805Y-53111998D01*
X87063171Y-53014689D01*
X86939311Y-52890829D01*
X86842002Y-52745195D01*
X86774971Y-52583369D01*
X86740800Y-52411580D01*
X86740800Y-52236420D01*
X86774971Y-52064631D01*
X86842002Y-51902805D01*
X86939311Y-51757171D01*
X87063171Y-51633311D01*
X87208805Y-51536002D01*
X87370631Y-51468971D01*
X87542420Y-51434800D01*
X87717580Y-51434800D01*
X87889369Y-51468971D01*
G37*
G36*
X77729369Y-51468971D02*
G01*
X77891195Y-51536002D01*
X78036829Y-51633311D01*
X78160689Y-51757171D01*
X78257998Y-51902805D01*
X78325029Y-52064631D01*
X78359200Y-52236420D01*
X78359200Y-52411580D01*
X78325029Y-52583369D01*
X78257998Y-52745195D01*
X78160689Y-52890829D01*
X78036829Y-53014689D01*
X77891195Y-53111998D01*
X77729369Y-53179029D01*
X77557580Y-53213200D01*
X77382420Y-53213200D01*
X77210631Y-53179029D01*
X77048805Y-53111998D01*
X76903171Y-53014689D01*
X76779311Y-52890829D01*
X76682002Y-52745195D01*
X76614971Y-52583369D01*
X76580800Y-52411580D01*
X76580800Y-52236420D01*
X76614971Y-52064631D01*
X76682002Y-51902805D01*
X76779311Y-51757171D01*
X76903171Y-51633311D01*
X77048805Y-51536002D01*
X77210631Y-51468971D01*
X77382420Y-51434800D01*
X77557580Y-51434800D01*
X77729369Y-51468971D01*
G37*
G36*
X80269369Y-51468971D02*
G01*
X80431195Y-51536002D01*
X80576829Y-51633311D01*
X80700689Y-51757171D01*
X80797998Y-51902805D01*
X80865029Y-52064631D01*
X80899200Y-52236420D01*
X80899200Y-52411580D01*
X80865029Y-52583369D01*
X80797998Y-52745195D01*
X80700689Y-52890829D01*
X80576829Y-53014689D01*
X80431195Y-53111998D01*
X80269369Y-53179029D01*
X80097580Y-53213200D01*
X79922420Y-53213200D01*
X79750631Y-53179029D01*
X79588805Y-53111998D01*
X79443171Y-53014689D01*
X79319311Y-52890829D01*
X79222002Y-52745195D01*
X79154971Y-52583369D01*
X79120800Y-52411580D01*
X79120800Y-52236420D01*
X79154971Y-52064631D01*
X79222002Y-51902805D01*
X79319311Y-51757171D01*
X79443171Y-51633311D01*
X79588805Y-51536002D01*
X79750631Y-51468971D01*
X79922420Y-51434800D01*
X80097580Y-51434800D01*
X80269369Y-51468971D01*
G37*
G36*
X82809369Y-51468971D02*
G01*
X82971195Y-51536002D01*
X83116829Y-51633311D01*
X83240689Y-51757171D01*
X83337998Y-51902805D01*
X83405029Y-52064631D01*
X83439200Y-52236420D01*
X83439200Y-52411580D01*
X83405029Y-52583369D01*
X83337998Y-52745195D01*
X83240689Y-52890829D01*
X83116829Y-53014689D01*
X82971195Y-53111998D01*
X82809369Y-53179029D01*
X82637580Y-53213200D01*
X82462420Y-53213200D01*
X82290631Y-53179029D01*
X82128805Y-53111998D01*
X81983171Y-53014689D01*
X81859311Y-52890829D01*
X81762002Y-52745195D01*
X81694971Y-52583369D01*
X81660800Y-52411580D01*
X81660800Y-52236420D01*
X81694971Y-52064631D01*
X81762002Y-51902805D01*
X81859311Y-51757171D01*
X81983171Y-51633311D01*
X82128805Y-51536002D01*
X82290631Y-51468971D01*
X82462420Y-51434800D01*
X82637580Y-51434800D01*
X82809369Y-51468971D01*
G37*
G36*
X85349369Y-51468971D02*
G01*
X85511195Y-51536002D01*
X85656829Y-51633311D01*
X85780689Y-51757171D01*
X85877998Y-51902805D01*
X85945029Y-52064631D01*
X85979200Y-52236420D01*
X85979200Y-52411580D01*
X85945029Y-52583369D01*
X85877998Y-52745195D01*
X85780689Y-52890829D01*
X85656829Y-53014689D01*
X85511195Y-53111998D01*
X85349369Y-53179029D01*
X85177580Y-53213200D01*
X85002420Y-53213200D01*
X84830631Y-53179029D01*
X84668805Y-53111998D01*
X84523171Y-53014689D01*
X84399311Y-52890829D01*
X84302002Y-52745195D01*
X84234971Y-52583369D01*
X84200800Y-52411580D01*
X84200800Y-52236420D01*
X84234971Y-52064631D01*
X84302002Y-51902805D01*
X84399311Y-51757171D01*
X84523171Y-51633311D01*
X84668805Y-51536002D01*
X84830631Y-51468971D01*
X85002420Y-51434800D01*
X85177580Y-51434800D01*
X85349369Y-51468971D01*
G37*
G36*
X117596228Y-49219703D02*
G01*
X117751100Y-49283853D01*
X117890481Y-49376985D01*
X118009015Y-49495519D01*
X118102147Y-49634900D01*
X118166297Y-49789772D01*
X118199000Y-49954184D01*
X118199000Y-50121816D01*
X118166297Y-50286228D01*
X118102147Y-50441100D01*
X118009015Y-50580481D01*
X117890481Y-50699015D01*
X117751100Y-50792147D01*
X117596228Y-50856297D01*
X117431816Y-50889000D01*
X117264184Y-50889000D01*
X117099772Y-50856297D01*
X116944900Y-50792147D01*
X116805519Y-50699015D01*
X116686985Y-50580481D01*
X116593853Y-50441100D01*
X116529703Y-50286228D01*
X116497000Y-50121816D01*
X116497000Y-49954184D01*
X116529703Y-49789772D01*
X116593853Y-49634900D01*
X116686985Y-49495519D01*
X116805519Y-49376985D01*
X116944900Y-49283853D01*
X117099772Y-49219703D01*
X117264184Y-49187000D01*
X117431816Y-49187000D01*
X117596228Y-49219703D01*
G37*
G36*
X125216228Y-49219703D02*
G01*
X125371100Y-49283853D01*
X125510481Y-49376985D01*
X125629015Y-49495519D01*
X125722147Y-49634900D01*
X125786297Y-49789772D01*
X125819000Y-49954184D01*
X125819000Y-50121816D01*
X125786297Y-50286228D01*
X125722147Y-50441100D01*
X125629015Y-50580481D01*
X125510481Y-50699015D01*
X125371100Y-50792147D01*
X125216228Y-50856297D01*
X125051816Y-50889000D01*
X124884184Y-50889000D01*
X124719772Y-50856297D01*
X124564900Y-50792147D01*
X124425519Y-50699015D01*
X124306985Y-50580481D01*
X124213853Y-50441100D01*
X124149703Y-50286228D01*
X124117000Y-50121816D01*
X124117000Y-49954184D01*
X124149703Y-49789772D01*
X124213853Y-49634900D01*
X124306985Y-49495519D01*
X124425519Y-49376985D01*
X124564900Y-49283853D01*
X124719772Y-49219703D01*
X124884184Y-49187000D01*
X125051816Y-49187000D01*
X125216228Y-49219703D01*
G37*
G36*
X125216228Y-46679703D02*
G01*
X125371100Y-46743853D01*
X125510481Y-46836985D01*
X125629015Y-46955519D01*
X125722147Y-47094900D01*
X125786297Y-47249772D01*
X125819000Y-47414184D01*
X125819000Y-47581816D01*
X125786297Y-47746228D01*
X125722147Y-47901100D01*
X125629015Y-48040481D01*
X125510481Y-48159015D01*
X125371100Y-48252147D01*
X125216228Y-48316297D01*
X125051816Y-48349000D01*
X124884184Y-48349000D01*
X124719772Y-48316297D01*
X124564900Y-48252147D01*
X124425519Y-48159015D01*
X124306985Y-48040481D01*
X124213853Y-47901100D01*
X124149703Y-47746228D01*
X124117000Y-47581816D01*
X124117000Y-47414184D01*
X124149703Y-47249772D01*
X124213853Y-47094900D01*
X124306985Y-46955519D01*
X124425519Y-46836985D01*
X124564900Y-46743853D01*
X124719772Y-46679703D01*
X124884184Y-46647000D01*
X125051816Y-46647000D01*
X125216228Y-46679703D01*
G37*
G36*
X117596228Y-46679703D02*
G01*
X117751100Y-46743853D01*
X117890481Y-46836985D01*
X118009015Y-46955519D01*
X118102147Y-47094900D01*
X118166297Y-47249772D01*
X118199000Y-47414184D01*
X118199000Y-47581816D01*
X118166297Y-47746228D01*
X118102147Y-47901100D01*
X118009015Y-48040481D01*
X117890481Y-48159015D01*
X117751100Y-48252147D01*
X117596228Y-48316297D01*
X117431816Y-48349000D01*
X117264184Y-48349000D01*
X117099772Y-48316297D01*
X116944900Y-48252147D01*
X116805519Y-48159015D01*
X116686985Y-48040481D01*
X116593853Y-47901100D01*
X116529703Y-47746228D01*
X116497000Y-47581816D01*
X116497000Y-47414184D01*
X116529703Y-47249772D01*
X116593853Y-47094900D01*
X116686985Y-46955519D01*
X116805519Y-46836985D01*
X116944900Y-46743853D01*
X117099772Y-46679703D01*
X117264184Y-46647000D01*
X117431816Y-46647000D01*
X117596228Y-46679703D01*
G37*
G36*
X117596228Y-44139703D02*
G01*
X117751100Y-44203853D01*
X117890481Y-44296985D01*
X118009015Y-44415519D01*
X118102147Y-44554900D01*
X118166297Y-44709772D01*
X118199000Y-44874184D01*
X118199000Y-45041816D01*
X118166297Y-45206228D01*
X118102147Y-45361100D01*
X118009015Y-45500481D01*
X117890481Y-45619015D01*
X117751100Y-45712147D01*
X117596228Y-45776297D01*
X117431816Y-45809000D01*
X117264184Y-45809000D01*
X117099772Y-45776297D01*
X116944900Y-45712147D01*
X116805519Y-45619015D01*
X116686985Y-45500481D01*
X116593853Y-45361100D01*
X116529703Y-45206228D01*
X116497000Y-45041816D01*
X116497000Y-44874184D01*
X116529703Y-44709772D01*
X116593853Y-44554900D01*
X116686985Y-44415519D01*
X116805519Y-44296985D01*
X116944900Y-44203853D01*
X117099772Y-44139703D01*
X117264184Y-44107000D01*
X117431816Y-44107000D01*
X117596228Y-44139703D01*
G37*
G36*
X125216228Y-44139703D02*
G01*
X125371100Y-44203853D01*
X125510481Y-44296985D01*
X125629015Y-44415519D01*
X125722147Y-44554900D01*
X125786297Y-44709772D01*
X125819000Y-44874184D01*
X125819000Y-45041816D01*
X125786297Y-45206228D01*
X125722147Y-45361100D01*
X125629015Y-45500481D01*
X125510481Y-45619015D01*
X125371100Y-45712147D01*
X125216228Y-45776297D01*
X125051816Y-45809000D01*
X124884184Y-45809000D01*
X124719772Y-45776297D01*
X124564900Y-45712147D01*
X124425519Y-45619015D01*
X124306985Y-45500481D01*
X124213853Y-45361100D01*
X124149703Y-45206228D01*
X124117000Y-45041816D01*
X124117000Y-44874184D01*
X124149703Y-44709772D01*
X124213853Y-44554900D01*
X124306985Y-44415519D01*
X124425519Y-44296985D01*
X124564900Y-44203853D01*
X124719772Y-44139703D01*
X124884184Y-44107000D01*
X125051816Y-44107000D01*
X125216228Y-44139703D01*
G37*
G36*
X125216228Y-41599703D02*
G01*
X125371100Y-41663853D01*
X125510481Y-41756985D01*
X125629015Y-41875519D01*
X125722147Y-42014900D01*
X125786297Y-42169772D01*
X125819000Y-42334184D01*
X125819000Y-42501816D01*
X125786297Y-42666228D01*
X125722147Y-42821100D01*
X125629015Y-42960481D01*
X125510481Y-43079015D01*
X125371100Y-43172147D01*
X125216228Y-43236297D01*
X125051816Y-43269000D01*
X124884184Y-43269000D01*
X124719772Y-43236297D01*
X124564900Y-43172147D01*
X124425519Y-43079015D01*
X124306985Y-42960481D01*
X124213853Y-42821100D01*
X124149703Y-42666228D01*
X124117000Y-42501816D01*
X124117000Y-42334184D01*
X124149703Y-42169772D01*
X124213853Y-42014900D01*
X124306985Y-41875519D01*
X124425519Y-41756985D01*
X124564900Y-41663853D01*
X124719772Y-41599703D01*
X124884184Y-41567000D01*
X125051816Y-41567000D01*
X125216228Y-41599703D01*
G37*
G36*
X117596228Y-41599703D02*
G01*
X117751100Y-41663853D01*
X117890481Y-41756985D01*
X118009015Y-41875519D01*
X118102147Y-42014900D01*
X118166297Y-42169772D01*
X118199000Y-42334184D01*
X118199000Y-42501816D01*
X118166297Y-42666228D01*
X118102147Y-42821100D01*
X118009015Y-42960481D01*
X117890481Y-43079015D01*
X117751100Y-43172147D01*
X117596228Y-43236297D01*
X117431816Y-43269000D01*
X117264184Y-43269000D01*
X117099772Y-43236297D01*
X116944900Y-43172147D01*
X116805519Y-43079015D01*
X116686985Y-42960481D01*
X116593853Y-42821100D01*
X116529703Y-42666228D01*
X116497000Y-42501816D01*
X116497000Y-42334184D01*
X116529703Y-42169772D01*
X116593853Y-42014900D01*
X116686985Y-41875519D01*
X116805519Y-41756985D01*
X116944900Y-41663853D01*
X117099772Y-41599703D01*
X117264184Y-41567000D01*
X117431816Y-41567000D01*
X117596228Y-41599703D01*
G37*
G36*
X117596228Y-39059703D02*
G01*
X117751100Y-39123853D01*
X117890481Y-39216985D01*
X118009015Y-39335519D01*
X118102147Y-39474900D01*
X118166297Y-39629772D01*
X118199000Y-39794184D01*
X118199000Y-39961816D01*
X118166297Y-40126228D01*
X118102147Y-40281100D01*
X118009015Y-40420481D01*
X117890481Y-40539015D01*
X117751100Y-40632147D01*
X117596228Y-40696297D01*
X117431816Y-40729000D01*
X117264184Y-40729000D01*
X117099772Y-40696297D01*
X116944900Y-40632147D01*
X116805519Y-40539015D01*
X116686985Y-40420481D01*
X116593853Y-40281100D01*
X116529703Y-40126228D01*
X116497000Y-39961816D01*
X116497000Y-39794184D01*
X116529703Y-39629772D01*
X116593853Y-39474900D01*
X116686985Y-39335519D01*
X116805519Y-39216985D01*
X116944900Y-39123853D01*
X117099772Y-39059703D01*
X117264184Y-39027000D01*
X117431816Y-39027000D01*
X117596228Y-39059703D01*
G37*
G36*
X125216228Y-39059703D02*
G01*
X125371100Y-39123853D01*
X125510481Y-39216985D01*
X125629015Y-39335519D01*
X125722147Y-39474900D01*
X125786297Y-39629772D01*
X125819000Y-39794184D01*
X125819000Y-39961816D01*
X125786297Y-40126228D01*
X125722147Y-40281100D01*
X125629015Y-40420481D01*
X125510481Y-40539015D01*
X125371100Y-40632147D01*
X125216228Y-40696297D01*
X125051816Y-40729000D01*
X124884184Y-40729000D01*
X124719772Y-40696297D01*
X124564900Y-40632147D01*
X124425519Y-40539015D01*
X124306985Y-40420481D01*
X124213853Y-40281100D01*
X124149703Y-40126228D01*
X124117000Y-39961816D01*
X124117000Y-39794184D01*
X124149703Y-39629772D01*
X124213853Y-39474900D01*
X124306985Y-39335519D01*
X124425519Y-39216985D01*
X124564900Y-39123853D01*
X124719772Y-39059703D01*
X124884184Y-39027000D01*
X125051816Y-39027000D01*
X125216228Y-39059703D01*
G37*
G36*
X117596228Y-36519703D02*
G01*
X117751100Y-36583853D01*
X117890481Y-36676985D01*
X118009015Y-36795519D01*
X118102147Y-36934900D01*
X118166297Y-37089772D01*
X118199000Y-37254184D01*
X118199000Y-37421816D01*
X118166297Y-37586228D01*
X118102147Y-37741100D01*
X118009015Y-37880481D01*
X117890481Y-37999015D01*
X117751100Y-38092147D01*
X117596228Y-38156297D01*
X117431816Y-38189000D01*
X117264184Y-38189000D01*
X117099772Y-38156297D01*
X116944900Y-38092147D01*
X116805519Y-37999015D01*
X116686985Y-37880481D01*
X116593853Y-37741100D01*
X116529703Y-37586228D01*
X116497000Y-37421816D01*
X116497000Y-37254184D01*
X116529703Y-37089772D01*
X116593853Y-36934900D01*
X116686985Y-36795519D01*
X116805519Y-36676985D01*
X116944900Y-36583853D01*
X117099772Y-36519703D01*
X117264184Y-36487000D01*
X117431816Y-36487000D01*
X117596228Y-36519703D01*
G37*
G36*
X125216228Y-36519703D02*
G01*
X125371100Y-36583853D01*
X125510481Y-36676985D01*
X125629015Y-36795519D01*
X125722147Y-36934900D01*
X125786297Y-37089772D01*
X125819000Y-37254184D01*
X125819000Y-37421816D01*
X125786297Y-37586228D01*
X125722147Y-37741100D01*
X125629015Y-37880481D01*
X125510481Y-37999015D01*
X125371100Y-38092147D01*
X125216228Y-38156297D01*
X125051816Y-38189000D01*
X124884184Y-38189000D01*
X124719772Y-38156297D01*
X124564900Y-38092147D01*
X124425519Y-37999015D01*
X124306985Y-37880481D01*
X124213853Y-37741100D01*
X124149703Y-37586228D01*
X124117000Y-37421816D01*
X124117000Y-37254184D01*
X124149703Y-37089772D01*
X124213853Y-36934900D01*
X124306985Y-36795519D01*
X124425519Y-36676985D01*
X124564900Y-36583853D01*
X124719772Y-36519703D01*
X124884184Y-36487000D01*
X125051816Y-36487000D01*
X125216228Y-36519703D01*
G37*
G36*
X85349369Y-36228971D02*
G01*
X85511195Y-36296002D01*
X85656829Y-36393311D01*
X85780689Y-36517171D01*
X85877998Y-36662805D01*
X85945029Y-36824631D01*
X85979200Y-36996420D01*
X85979200Y-37171580D01*
X85945029Y-37343369D01*
X85877998Y-37505195D01*
X85780689Y-37650829D01*
X85656829Y-37774689D01*
X85511195Y-37871998D01*
X85349369Y-37939029D01*
X85177580Y-37973200D01*
X85002420Y-37973200D01*
X84830631Y-37939029D01*
X84668805Y-37871998D01*
X84523171Y-37774689D01*
X84399311Y-37650829D01*
X84302002Y-37505195D01*
X84234971Y-37343369D01*
X84200800Y-37171580D01*
X84200800Y-36996420D01*
X84234971Y-36824631D01*
X84302002Y-36662805D01*
X84399311Y-36517171D01*
X84523171Y-36393311D01*
X84668805Y-36296002D01*
X84830631Y-36228971D01*
X85002420Y-36194800D01*
X85177580Y-36194800D01*
X85349369Y-36228971D01*
G37*
G36*
X95509369Y-36228971D02*
G01*
X95671195Y-36296002D01*
X95816829Y-36393311D01*
X95940689Y-36517171D01*
X96037998Y-36662805D01*
X96105029Y-36824631D01*
X96139200Y-36996420D01*
X96139200Y-37171580D01*
X96105029Y-37343369D01*
X96037998Y-37505195D01*
X95940689Y-37650829D01*
X95816829Y-37774689D01*
X95671195Y-37871998D01*
X95509369Y-37939029D01*
X95337580Y-37973200D01*
X95162420Y-37973200D01*
X94990631Y-37939029D01*
X94828805Y-37871998D01*
X94683171Y-37774689D01*
X94559311Y-37650829D01*
X94462002Y-37505195D01*
X94394971Y-37343369D01*
X94360800Y-37171580D01*
X94360800Y-36996420D01*
X94394971Y-36824631D01*
X94462002Y-36662805D01*
X94559311Y-36517171D01*
X94683171Y-36393311D01*
X94828805Y-36296002D01*
X94990631Y-36228971D01*
X95162420Y-36194800D01*
X95337580Y-36194800D01*
X95509369Y-36228971D01*
G37*
G36*
X87889369Y-36228971D02*
G01*
X88051195Y-36296002D01*
X88196829Y-36393311D01*
X88320689Y-36517171D01*
X88417998Y-36662805D01*
X88485029Y-36824631D01*
X88519200Y-36996420D01*
X88519200Y-37171580D01*
X88485029Y-37343369D01*
X88417998Y-37505195D01*
X88320689Y-37650829D01*
X88196829Y-37774689D01*
X88051195Y-37871998D01*
X87889369Y-37939029D01*
X87717580Y-37973200D01*
X87542420Y-37973200D01*
X87370631Y-37939029D01*
X87208805Y-37871998D01*
X87063171Y-37774689D01*
X86939311Y-37650829D01*
X86842002Y-37505195D01*
X86774971Y-37343369D01*
X86740800Y-37171580D01*
X86740800Y-36996420D01*
X86774971Y-36824631D01*
X86842002Y-36662805D01*
X86939311Y-36517171D01*
X87063171Y-36393311D01*
X87208805Y-36296002D01*
X87370631Y-36228971D01*
X87542420Y-36194800D01*
X87717580Y-36194800D01*
X87889369Y-36228971D01*
G37*
G36*
X90429369Y-36228971D02*
G01*
X90591195Y-36296002D01*
X90736829Y-36393311D01*
X90860689Y-36517171D01*
X90957998Y-36662805D01*
X91025029Y-36824631D01*
X91059200Y-36996420D01*
X91059200Y-37171580D01*
X91025029Y-37343369D01*
X90957998Y-37505195D01*
X90860689Y-37650829D01*
X90736829Y-37774689D01*
X90591195Y-37871998D01*
X90429369Y-37939029D01*
X90257580Y-37973200D01*
X90082420Y-37973200D01*
X89910631Y-37939029D01*
X89748805Y-37871998D01*
X89603171Y-37774689D01*
X89479311Y-37650829D01*
X89382002Y-37505195D01*
X89314971Y-37343369D01*
X89280800Y-37171580D01*
X89280800Y-36996420D01*
X89314971Y-36824631D01*
X89382002Y-36662805D01*
X89479311Y-36517171D01*
X89603171Y-36393311D01*
X89748805Y-36296002D01*
X89910631Y-36228971D01*
X90082420Y-36194800D01*
X90257580Y-36194800D01*
X90429369Y-36228971D01*
G37*
G36*
X92969369Y-36228971D02*
G01*
X93131195Y-36296002D01*
X93276829Y-36393311D01*
X93400689Y-36517171D01*
X93497998Y-36662805D01*
X93565029Y-36824631D01*
X93599200Y-36996420D01*
X93599200Y-37171580D01*
X93565029Y-37343369D01*
X93497998Y-37505195D01*
X93400689Y-37650829D01*
X93276829Y-37774689D01*
X93131195Y-37871998D01*
X92969369Y-37939029D01*
X92797580Y-37973200D01*
X92622420Y-37973200D01*
X92450631Y-37939029D01*
X92288805Y-37871998D01*
X92143171Y-37774689D01*
X92019311Y-37650829D01*
X91922002Y-37505195D01*
X91854971Y-37343369D01*
X91820800Y-37171580D01*
X91820800Y-36996420D01*
X91854971Y-36824631D01*
X91922002Y-36662805D01*
X92019311Y-36517171D01*
X92143171Y-36393311D01*
X92288805Y-36296002D01*
X92450631Y-36228971D01*
X92622420Y-36194800D01*
X92797580Y-36194800D01*
X92969369Y-36228971D01*
G37*
G36*
X82809369Y-36228971D02*
G01*
X82971195Y-36296002D01*
X83116829Y-36393311D01*
X83240689Y-36517171D01*
X83337998Y-36662805D01*
X83405029Y-36824631D01*
X83439200Y-36996420D01*
X83439200Y-37171580D01*
X83405029Y-37343369D01*
X83337998Y-37505195D01*
X83240689Y-37650829D01*
X83116829Y-37774689D01*
X82971195Y-37871998D01*
X82809369Y-37939029D01*
X82637580Y-37973200D01*
X82462420Y-37973200D01*
X82290631Y-37939029D01*
X82128805Y-37871998D01*
X81983171Y-37774689D01*
X81859311Y-37650829D01*
X81762002Y-37505195D01*
X81694971Y-37343369D01*
X81660800Y-37171580D01*
X81660800Y-36996420D01*
X81694971Y-36824631D01*
X81762002Y-36662805D01*
X81859311Y-36517171D01*
X81983171Y-36393311D01*
X82128805Y-36296002D01*
X82290631Y-36228971D01*
X82462420Y-36194800D01*
X82637580Y-36194800D01*
X82809369Y-36228971D01*
G37*
G36*
X72649369Y-36228971D02*
G01*
X72811195Y-36296002D01*
X72956829Y-36393311D01*
X73080689Y-36517171D01*
X73177998Y-36662805D01*
X73245029Y-36824631D01*
X73279200Y-36996420D01*
X73279200Y-37171580D01*
X73245029Y-37343369D01*
X73177998Y-37505195D01*
X73080689Y-37650829D01*
X72956829Y-37774689D01*
X72811195Y-37871998D01*
X72649369Y-37939029D01*
X72477580Y-37973200D01*
X72302420Y-37973200D01*
X72130631Y-37939029D01*
X71968805Y-37871998D01*
X71823171Y-37774689D01*
X71699311Y-37650829D01*
X71602002Y-37505195D01*
X71534971Y-37343369D01*
X71500800Y-37171580D01*
X71500800Y-36996420D01*
X71534971Y-36824631D01*
X71602002Y-36662805D01*
X71699311Y-36517171D01*
X71823171Y-36393311D01*
X71968805Y-36296002D01*
X72130631Y-36228971D01*
X72302420Y-36194800D01*
X72477580Y-36194800D01*
X72649369Y-36228971D01*
G37*
G36*
X75189369Y-36228971D02*
G01*
X75351195Y-36296002D01*
X75496829Y-36393311D01*
X75620689Y-36517171D01*
X75717998Y-36662805D01*
X75785029Y-36824631D01*
X75819200Y-36996420D01*
X75819200Y-37171580D01*
X75785029Y-37343369D01*
X75717998Y-37505195D01*
X75620689Y-37650829D01*
X75496829Y-37774689D01*
X75351195Y-37871998D01*
X75189369Y-37939029D01*
X75017580Y-37973200D01*
X74842420Y-37973200D01*
X74670631Y-37939029D01*
X74508805Y-37871998D01*
X74363171Y-37774689D01*
X74239311Y-37650829D01*
X74142002Y-37505195D01*
X74074971Y-37343369D01*
X74040800Y-37171580D01*
X74040800Y-36996420D01*
X74074971Y-36824631D01*
X74142002Y-36662805D01*
X74239311Y-36517171D01*
X74363171Y-36393311D01*
X74508805Y-36296002D01*
X74670631Y-36228971D01*
X74842420Y-36194800D01*
X75017580Y-36194800D01*
X75189369Y-36228971D01*
G37*
G36*
X77729369Y-36228971D02*
G01*
X77891195Y-36296002D01*
X78036829Y-36393311D01*
X78160689Y-36517171D01*
X78257998Y-36662805D01*
X78325029Y-36824631D01*
X78359200Y-36996420D01*
X78359200Y-37171580D01*
X78325029Y-37343369D01*
X78257998Y-37505195D01*
X78160689Y-37650829D01*
X78036829Y-37774689D01*
X77891195Y-37871998D01*
X77729369Y-37939029D01*
X77557580Y-37973200D01*
X77382420Y-37973200D01*
X77210631Y-37939029D01*
X77048805Y-37871998D01*
X76903171Y-37774689D01*
X76779311Y-37650829D01*
X76682002Y-37505195D01*
X76614971Y-37343369D01*
X76580800Y-37171580D01*
X76580800Y-36996420D01*
X76614971Y-36824631D01*
X76682002Y-36662805D01*
X76779311Y-36517171D01*
X76903171Y-36393311D01*
X77048805Y-36296002D01*
X77210631Y-36228971D01*
X77382420Y-36194800D01*
X77557580Y-36194800D01*
X77729369Y-36228971D01*
G37*
G36*
X80269369Y-36228971D02*
G01*
X80431195Y-36296002D01*
X80576829Y-36393311D01*
X80700689Y-36517171D01*
X80797998Y-36662805D01*
X80865029Y-36824631D01*
X80899200Y-36996420D01*
X80899200Y-37171580D01*
X80865029Y-37343369D01*
X80797998Y-37505195D01*
X80700689Y-37650829D01*
X80576829Y-37774689D01*
X80431195Y-37871998D01*
X80269369Y-37939029D01*
X80097580Y-37973200D01*
X79922420Y-37973200D01*
X79750631Y-37939029D01*
X79588805Y-37871998D01*
X79443171Y-37774689D01*
X79319311Y-37650829D01*
X79222002Y-37505195D01*
X79154971Y-37343369D01*
X79120800Y-37171580D01*
X79120800Y-36996420D01*
X79154971Y-36824631D01*
X79222002Y-36662805D01*
X79319311Y-36517171D01*
X79443171Y-36393311D01*
X79588805Y-36296002D01*
X79750631Y-36228971D01*
X79922420Y-36194800D01*
X80097580Y-36194800D01*
X80269369Y-36228971D01*
G37*
G36*
X101219200Y-37973200D02*
G01*
X99440800Y-37973200D01*
X99440800Y-36194800D01*
X101219200Y-36194800D01*
X101219200Y-37973200D01*
G37*
G36*
X98049369Y-36228971D02*
G01*
X98211195Y-36296002D01*
X98356829Y-36393311D01*
X98480689Y-36517171D01*
X98577998Y-36662805D01*
X98645029Y-36824631D01*
X98679200Y-36996420D01*
X98679200Y-37171580D01*
X98645029Y-37343369D01*
X98577998Y-37505195D01*
X98480689Y-37650829D01*
X98356829Y-37774689D01*
X98211195Y-37871998D01*
X98049369Y-37939029D01*
X97877580Y-37973200D01*
X97702420Y-37973200D01*
X97530631Y-37939029D01*
X97368805Y-37871998D01*
X97223171Y-37774689D01*
X97099311Y-37650829D01*
X97002002Y-37505195D01*
X96934971Y-37343369D01*
X96900800Y-37171580D01*
X96900800Y-36996420D01*
X96934971Y-36824631D01*
X97002002Y-36662805D01*
X97099311Y-36517171D01*
X97223171Y-36393311D01*
X97368805Y-36296002D01*
X97530631Y-36228971D01*
X97702420Y-36194800D01*
X97877580Y-36194800D01*
X98049369Y-36228971D01*
G37*
G36*
X118199000Y-35649000D02*
G01*
X116497000Y-35649000D01*
X116497000Y-33947000D01*
X118199000Y-33947000D01*
X118199000Y-35649000D01*
G37*
G36*
X125216228Y-33979703D02*
G01*
X125371100Y-34043853D01*
X125510481Y-34136985D01*
X125629015Y-34255519D01*
X125722147Y-34394900D01*
X125786297Y-34549772D01*
X125819000Y-34714184D01*
X125819000Y-34881816D01*
X125786297Y-35046228D01*
X125722147Y-35201100D01*
X125629015Y-35340481D01*
X125510481Y-35459015D01*
X125371100Y-35552147D01*
X125216228Y-35616297D01*
X125051816Y-35649000D01*
X124884184Y-35649000D01*
X124719772Y-35616297D01*
X124564900Y-35552147D01*
X124425519Y-35459015D01*
X124306985Y-35340481D01*
X124213853Y-35201100D01*
X124149703Y-35046228D01*
X124117000Y-34881816D01*
X124117000Y-34714184D01*
X124149703Y-34549772D01*
X124213853Y-34394900D01*
X124306985Y-34255519D01*
X124425519Y-34136985D01*
X124564900Y-34043853D01*
X124719772Y-33979703D01*
X124884184Y-33947000D01*
X125051816Y-33947000D01*
X125216228Y-33979703D01*
G37*
M02*
