G04 #@! TF.GenerationSoftware,KiCad,Pcbnew,5.1.5-52549c5~86~ubuntu18.04.1*
G04 #@! TF.CreationDate,2020-04-16T15:56:08+05:30*
G04 #@! TF.ProjectId,vga_controller,7667615f-636f-46e7-9472-6f6c6c65722e,rev?*
G04 #@! TF.SameCoordinates,Original*
G04 #@! TF.FileFunction,Legend,Top*
G04 #@! TF.FilePolarity,Positive*
%FSLAX46Y46*%
G04 Gerber Fmt 4.6, Leading zero omitted, Abs format (unit mm)*
G04 Created by KiCad (PCBNEW 5.1.5-52549c5~86~ubuntu18.04.1) date 2020-04-16 15:56:08*
%MOMM*%
%LPD*%
G04 APERTURE LIST*
%ADD10C,0.152400*%
%ADD11C,0.120000*%
%ADD12C,0.015000*%
%ADD13C,0.150000*%
G04 APERTURE END LIST*
D10*
X102489000Y-45008800D02*
G75*
G02X102489000Y-44399200I0J304800D01*
G01*
X102489000Y-37338000D02*
X101650800Y-37338000D01*
X102489000Y-44399200D02*
X102489000Y-37338000D01*
X102489000Y-45008800D02*
X102489000Y-44399200D01*
X102489000Y-52070000D02*
X102489000Y-45008800D01*
X70231000Y-52070000D02*
X71094600Y-52070000D01*
X70231000Y-37338000D02*
X70231000Y-52070000D01*
X71094600Y-37338000D02*
X70231000Y-37338000D01*
X101625400Y-52070000D02*
X102489000Y-52070000D01*
X101879400Y-148844000D02*
X102743000Y-148844000D01*
X71348600Y-134112000D02*
X70485000Y-134112000D01*
X70485000Y-134112000D02*
X70485000Y-148844000D01*
X70485000Y-148844000D02*
X71348600Y-148844000D01*
X102743000Y-148844000D02*
X102743000Y-141782800D01*
X102743000Y-141782800D02*
X102743000Y-141173200D01*
X102743000Y-141173200D02*
X102743000Y-134112000D01*
X102743000Y-134112000D02*
X101904800Y-134112000D01*
X102743000Y-141782800D02*
G75*
G02X102743000Y-141173200I0J304800D01*
G01*
D11*
X96630000Y-107128000D02*
X94980000Y-107128000D01*
X96630000Y-127568000D02*
X96630000Y-107128000D01*
X91330000Y-127568000D02*
X96630000Y-127568000D01*
X91330000Y-107128000D02*
X91330000Y-127568000D01*
X92980000Y-107128000D02*
X91330000Y-107128000D01*
X94980000Y-107128000D02*
G75*
G02X92980000Y-107128000I-1000000J0D01*
G01*
X60182000Y-111372000D02*
X61952000Y-111372000D01*
X61952000Y-111372000D02*
X61952000Y-70492000D01*
X61952000Y-70492000D02*
X56412000Y-70492000D01*
X56412000Y-70492000D02*
X56412000Y-111372000D01*
X56412000Y-111372000D02*
X58182000Y-111372000D01*
X58182000Y-111372000D02*
G75*
G02X60182000Y-111372000I1000000J0D01*
G01*
X52057359Y-80705905D02*
G75*
G02X50608000Y-80608867I-749359J-320095D01*
G01*
X52057359Y-75747905D02*
G75*
G02X50608000Y-75650867I-749359J-320095D01*
G01*
X50558641Y-69408095D02*
G75*
G02X52008000Y-69505133I749359J320095D01*
G01*
X62242641Y-64328095D02*
G75*
G02X63692000Y-64425133I749359J320095D01*
G01*
X50558641Y-64328095D02*
G75*
G02X52008000Y-64425133I749359J320095D01*
G01*
X57978095Y-64757359D02*
G75*
G02X58075133Y-63308000I-320095J749359D01*
G01*
X122158000Y-33468000D02*
G75*
G02X120158000Y-33468000I-1000000J0D01*
G01*
X120158000Y-33468000D02*
X118508000Y-33468000D01*
X118508000Y-33468000D02*
X118508000Y-51368000D01*
X118508000Y-51368000D02*
X123808000Y-51368000D01*
X123808000Y-51368000D02*
X123808000Y-33468000D01*
X123808000Y-33468000D02*
X122158000Y-33468000D01*
X124316000Y-133798000D02*
X122666000Y-133798000D01*
X124316000Y-151698000D02*
X124316000Y-133798000D01*
X119016000Y-151698000D02*
X124316000Y-151698000D01*
X119016000Y-133798000D02*
X119016000Y-151698000D01*
X120666000Y-133798000D02*
X119016000Y-133798000D01*
X122666000Y-133798000D02*
G75*
G02X120666000Y-133798000I-1000000J0D01*
G01*
X77200000Y-60900000D02*
G75*
G02X75200000Y-60900000I-1000000J0D01*
G01*
X75200000Y-60900000D02*
X73550000Y-60900000D01*
X73550000Y-60900000D02*
X73550000Y-81340000D01*
X73550000Y-81340000D02*
X78850000Y-81340000D01*
X78850000Y-81340000D02*
X78850000Y-60900000D01*
X78850000Y-60900000D02*
X77200000Y-60900000D01*
X77200000Y-107128000D02*
G75*
G02X75200000Y-107128000I-1000000J0D01*
G01*
X75200000Y-107128000D02*
X73550000Y-107128000D01*
X73550000Y-107128000D02*
X73550000Y-127568000D01*
X73550000Y-127568000D02*
X78850000Y-127568000D01*
X78850000Y-127568000D02*
X78850000Y-107128000D01*
X78850000Y-107128000D02*
X77200000Y-107128000D01*
X95996000Y-60900000D02*
G75*
G02X93996000Y-60900000I-1000000J0D01*
G01*
X93996000Y-60900000D02*
X92346000Y-60900000D01*
X92346000Y-60900000D02*
X92346000Y-81340000D01*
X92346000Y-81340000D02*
X97646000Y-81340000D01*
X97646000Y-81340000D02*
X97646000Y-60900000D01*
X97646000Y-60900000D02*
X95996000Y-60900000D01*
X123554000Y-60900000D02*
X121904000Y-60900000D01*
X123554000Y-81340000D02*
X123554000Y-60900000D01*
X118254000Y-81340000D02*
X123554000Y-81340000D01*
X118254000Y-60900000D02*
X118254000Y-81340000D01*
X119904000Y-60900000D02*
X118254000Y-60900000D01*
X121904000Y-60900000D02*
G75*
G02X119904000Y-60900000I-1000000J0D01*
G01*
X109584000Y-107128000D02*
X107934000Y-107128000D01*
X109584000Y-127568000D02*
X109584000Y-107128000D01*
X104284000Y-127568000D02*
X109584000Y-127568000D01*
X104284000Y-107128000D02*
X104284000Y-127568000D01*
X105934000Y-107128000D02*
X104284000Y-107128000D01*
X107934000Y-107128000D02*
G75*
G02X105934000Y-107128000I-1000000J0D01*
G01*
X110728000Y-84522000D02*
G75*
G02X108728000Y-84522000I-1000000J0D01*
G01*
X108728000Y-84522000D02*
X107078000Y-84522000D01*
X107078000Y-84522000D02*
X107078000Y-102422000D01*
X107078000Y-102422000D02*
X112378000Y-102422000D01*
X112378000Y-102422000D02*
X112378000Y-84522000D01*
X112378000Y-84522000D02*
X110728000Y-84522000D01*
X89804000Y-104430000D02*
X101954000Y-104430000D01*
X89054000Y-84280000D02*
X89054000Y-103680000D01*
X101204000Y-83530000D02*
X89804000Y-83530000D01*
X101954000Y-104430000D02*
X101954000Y-84280000D01*
X101954000Y-84280000D02*
G75*
G03X101204000Y-83530000I-750000J0D01*
G01*
X89804000Y-83530000D02*
G75*
G03X89054000Y-84280000I0J-750000D01*
G01*
X89054000Y-103680000D02*
G75*
G03X89804000Y-104430000I750000J0D01*
G01*
X45524000Y-125627000D02*
X49624000Y-125627000D01*
X49624000Y-125627000D02*
X49624000Y-127632000D01*
X49624000Y-127632000D02*
X58464000Y-127632000D01*
X58464000Y-127632000D02*
X58464000Y-149142000D01*
X58464000Y-149142000D02*
X49624000Y-149142000D01*
X49624000Y-149142000D02*
X49624000Y-151147000D01*
X49624000Y-151147000D02*
X45524000Y-151147000D01*
X59158338Y-147832000D02*
X59158338Y-148332000D01*
X59158338Y-148332000D02*
X58725325Y-148082000D01*
X58725325Y-148082000D02*
X59158338Y-147832000D01*
D12*
X103692105Y-50065175D02*
X105021585Y-50065175D01*
X105177995Y-49986970D01*
X105256200Y-49908766D01*
X105334404Y-49752356D01*
X105334404Y-49439537D01*
X105256200Y-49283128D01*
X105177995Y-49204923D01*
X105021585Y-49126718D01*
X103692105Y-49126718D01*
X105334404Y-47484419D02*
X105334404Y-48422876D01*
X105334404Y-47953648D02*
X103692105Y-47953648D01*
X103926719Y-48110057D01*
X104083129Y-48266467D01*
X104161334Y-48422876D01*
X103946105Y-146839175D02*
X105275585Y-146839175D01*
X105431995Y-146760970D01*
X105510200Y-146682766D01*
X105588404Y-146526356D01*
X105588404Y-146213537D01*
X105510200Y-146057128D01*
X105431995Y-145978923D01*
X105275585Y-145900718D01*
X103946105Y-145900718D01*
X104102515Y-145196876D02*
X104024310Y-145118671D01*
X103946105Y-144962262D01*
X103946105Y-144571238D01*
X104024310Y-144414829D01*
X104102515Y-144336624D01*
X104258924Y-144258419D01*
X104415334Y-144258419D01*
X104649948Y-144336624D01*
X105588404Y-145275081D01*
X105588404Y-144258419D01*
D13*
X93218095Y-105580380D02*
X93218095Y-106389904D01*
X93265714Y-106485142D01*
X93313333Y-106532761D01*
X93408571Y-106580380D01*
X93599047Y-106580380D01*
X93694285Y-106532761D01*
X93741904Y-106485142D01*
X93789523Y-106389904D01*
X93789523Y-105580380D01*
X94408571Y-106008952D02*
X94313333Y-105961333D01*
X94265714Y-105913714D01*
X94218095Y-105818476D01*
X94218095Y-105770857D01*
X94265714Y-105675619D01*
X94313333Y-105628000D01*
X94408571Y-105580380D01*
X94599047Y-105580380D01*
X94694285Y-105628000D01*
X94741904Y-105675619D01*
X94789523Y-105770857D01*
X94789523Y-105818476D01*
X94741904Y-105913714D01*
X94694285Y-105961333D01*
X94599047Y-106008952D01*
X94408571Y-106008952D01*
X94313333Y-106056571D01*
X94265714Y-106104190D01*
X94218095Y-106199428D01*
X94218095Y-106389904D01*
X94265714Y-106485142D01*
X94313333Y-106532761D01*
X94408571Y-106580380D01*
X94599047Y-106580380D01*
X94694285Y-106532761D01*
X94741904Y-106485142D01*
X94789523Y-106389904D01*
X94789523Y-106199428D01*
X94741904Y-106104190D01*
X94694285Y-106056571D01*
X94599047Y-106008952D01*
X57943904Y-111824380D02*
X57943904Y-112633904D01*
X57991523Y-112729142D01*
X58039142Y-112776761D01*
X58134380Y-112824380D01*
X58324857Y-112824380D01*
X58420095Y-112776761D01*
X58467714Y-112729142D01*
X58515333Y-112633904D01*
X58515333Y-111824380D01*
X59515333Y-112824380D02*
X58943904Y-112824380D01*
X59229619Y-112824380D02*
X59229619Y-111824380D01*
X59134380Y-111967238D01*
X59039142Y-112062476D01*
X58943904Y-112110095D01*
X60467714Y-112824380D02*
X59896285Y-112824380D01*
X60182000Y-112824380D02*
X60182000Y-111824380D01*
X60086761Y-111967238D01*
X59991523Y-112062476D01*
X59896285Y-112110095D01*
X49840380Y-80242666D02*
X49364190Y-80576000D01*
X49840380Y-80814095D02*
X48840380Y-80814095D01*
X48840380Y-80433142D01*
X48888000Y-80337904D01*
X48935619Y-80290285D01*
X49030857Y-80242666D01*
X49173714Y-80242666D01*
X49268952Y-80290285D01*
X49316571Y-80337904D01*
X49364190Y-80433142D01*
X49364190Y-80814095D01*
X49840380Y-79290285D02*
X49840380Y-79861714D01*
X49840380Y-79576000D02*
X48840380Y-79576000D01*
X48983238Y-79671238D01*
X49078476Y-79766476D01*
X49126095Y-79861714D01*
X49840380Y-75284666D02*
X49364190Y-75618000D01*
X49840380Y-75856095D02*
X48840380Y-75856095D01*
X48840380Y-75475142D01*
X48888000Y-75379904D01*
X48935619Y-75332285D01*
X49030857Y-75284666D01*
X49173714Y-75284666D01*
X49268952Y-75332285D01*
X49316571Y-75379904D01*
X49364190Y-75475142D01*
X49364190Y-75856095D01*
X48935619Y-74903714D02*
X48888000Y-74856095D01*
X48840380Y-74760857D01*
X48840380Y-74522761D01*
X48888000Y-74427523D01*
X48935619Y-74379904D01*
X49030857Y-74332285D01*
X49126095Y-74332285D01*
X49268952Y-74379904D01*
X49840380Y-74951333D01*
X49840380Y-74332285D01*
X53680380Y-70204666D02*
X53204190Y-70538000D01*
X53680380Y-70776095D02*
X52680380Y-70776095D01*
X52680380Y-70395142D01*
X52728000Y-70299904D01*
X52775619Y-70252285D01*
X52870857Y-70204666D01*
X53013714Y-70204666D01*
X53108952Y-70252285D01*
X53156571Y-70299904D01*
X53204190Y-70395142D01*
X53204190Y-70776095D01*
X52680380Y-69871333D02*
X52680380Y-69252285D01*
X53061333Y-69585619D01*
X53061333Y-69442761D01*
X53108952Y-69347523D01*
X53156571Y-69299904D01*
X53251809Y-69252285D01*
X53489904Y-69252285D01*
X53585142Y-69299904D01*
X53632761Y-69347523D01*
X53680380Y-69442761D01*
X53680380Y-69728476D01*
X53632761Y-69823714D01*
X53585142Y-69871333D01*
X65364380Y-65124666D02*
X64888190Y-65458000D01*
X65364380Y-65696095D02*
X64364380Y-65696095D01*
X64364380Y-65315142D01*
X64412000Y-65219904D01*
X64459619Y-65172285D01*
X64554857Y-65124666D01*
X64697714Y-65124666D01*
X64792952Y-65172285D01*
X64840571Y-65219904D01*
X64888190Y-65315142D01*
X64888190Y-65696095D01*
X64697714Y-64267523D02*
X65364380Y-64267523D01*
X64316761Y-64505619D02*
X65031047Y-64743714D01*
X65031047Y-64124666D01*
X53680380Y-65124666D02*
X53204190Y-65458000D01*
X53680380Y-65696095D02*
X52680380Y-65696095D01*
X52680380Y-65315142D01*
X52728000Y-65219904D01*
X52775619Y-65172285D01*
X52870857Y-65124666D01*
X53013714Y-65124666D01*
X53108952Y-65172285D01*
X53156571Y-65219904D01*
X53204190Y-65315142D01*
X53204190Y-65696095D01*
X52680380Y-64219904D02*
X52680380Y-64696095D01*
X53156571Y-64743714D01*
X53108952Y-64696095D01*
X53061333Y-64600857D01*
X53061333Y-64362761D01*
X53108952Y-64267523D01*
X53156571Y-64219904D01*
X53251809Y-64172285D01*
X53489904Y-64172285D01*
X53585142Y-64219904D01*
X53632761Y-64267523D01*
X53680380Y-64362761D01*
X53680380Y-64600857D01*
X53632761Y-64696095D01*
X53585142Y-64743714D01*
X58441333Y-62540380D02*
X58108000Y-62064190D01*
X57869904Y-62540380D02*
X57869904Y-61540380D01*
X58250857Y-61540380D01*
X58346095Y-61588000D01*
X58393714Y-61635619D01*
X58441333Y-61730857D01*
X58441333Y-61873714D01*
X58393714Y-61968952D01*
X58346095Y-62016571D01*
X58250857Y-62064190D01*
X57869904Y-62064190D01*
X59298476Y-61540380D02*
X59108000Y-61540380D01*
X59012761Y-61588000D01*
X58965142Y-61635619D01*
X58869904Y-61778476D01*
X58822285Y-61968952D01*
X58822285Y-62349904D01*
X58869904Y-62445142D01*
X58917523Y-62492761D01*
X59012761Y-62540380D01*
X59203238Y-62540380D01*
X59298476Y-62492761D01*
X59346095Y-62445142D01*
X59393714Y-62349904D01*
X59393714Y-62111809D01*
X59346095Y-62016571D01*
X59298476Y-61968952D01*
X59203238Y-61921333D01*
X59012761Y-61921333D01*
X58917523Y-61968952D01*
X58869904Y-62016571D01*
X58822285Y-62111809D01*
X120396095Y-31920380D02*
X120396095Y-32729904D01*
X120443714Y-32825142D01*
X120491333Y-32872761D01*
X120586571Y-32920380D01*
X120777047Y-32920380D01*
X120872285Y-32872761D01*
X120919904Y-32825142D01*
X120967523Y-32729904D01*
X120967523Y-31920380D01*
X121348476Y-31920380D02*
X121967523Y-31920380D01*
X121634190Y-32301333D01*
X121777047Y-32301333D01*
X121872285Y-32348952D01*
X121919904Y-32396571D01*
X121967523Y-32491809D01*
X121967523Y-32729904D01*
X121919904Y-32825142D01*
X121872285Y-32872761D01*
X121777047Y-32920380D01*
X121491333Y-32920380D01*
X121396095Y-32872761D01*
X121348476Y-32825142D01*
X120904095Y-132250380D02*
X120904095Y-133059904D01*
X120951714Y-133155142D01*
X120999333Y-133202761D01*
X121094571Y-133250380D01*
X121285047Y-133250380D01*
X121380285Y-133202761D01*
X121427904Y-133155142D01*
X121475523Y-133059904D01*
X121475523Y-132250380D01*
X122380285Y-132583714D02*
X122380285Y-133250380D01*
X122142190Y-132202761D02*
X121904095Y-132917047D01*
X122523142Y-132917047D01*
X75438095Y-59352380D02*
X75438095Y-60161904D01*
X75485714Y-60257142D01*
X75533333Y-60304761D01*
X75628571Y-60352380D01*
X75819047Y-60352380D01*
X75914285Y-60304761D01*
X75961904Y-60257142D01*
X76009523Y-60161904D01*
X76009523Y-59352380D01*
X76961904Y-59352380D02*
X76485714Y-59352380D01*
X76438095Y-59828571D01*
X76485714Y-59780952D01*
X76580952Y-59733333D01*
X76819047Y-59733333D01*
X76914285Y-59780952D01*
X76961904Y-59828571D01*
X77009523Y-59923809D01*
X77009523Y-60161904D01*
X76961904Y-60257142D01*
X76914285Y-60304761D01*
X76819047Y-60352380D01*
X76580952Y-60352380D01*
X76485714Y-60304761D01*
X76438095Y-60257142D01*
X75438095Y-105580380D02*
X75438095Y-106389904D01*
X75485714Y-106485142D01*
X75533333Y-106532761D01*
X75628571Y-106580380D01*
X75819047Y-106580380D01*
X75914285Y-106532761D01*
X75961904Y-106485142D01*
X76009523Y-106389904D01*
X76009523Y-105580380D01*
X76914285Y-105580380D02*
X76723809Y-105580380D01*
X76628571Y-105628000D01*
X76580952Y-105675619D01*
X76485714Y-105818476D01*
X76438095Y-106008952D01*
X76438095Y-106389904D01*
X76485714Y-106485142D01*
X76533333Y-106532761D01*
X76628571Y-106580380D01*
X76819047Y-106580380D01*
X76914285Y-106532761D01*
X76961904Y-106485142D01*
X77009523Y-106389904D01*
X77009523Y-106151809D01*
X76961904Y-106056571D01*
X76914285Y-106008952D01*
X76819047Y-105961333D01*
X76628571Y-105961333D01*
X76533333Y-106008952D01*
X76485714Y-106056571D01*
X76438095Y-106151809D01*
X94234095Y-59352380D02*
X94234095Y-60161904D01*
X94281714Y-60257142D01*
X94329333Y-60304761D01*
X94424571Y-60352380D01*
X94615047Y-60352380D01*
X94710285Y-60304761D01*
X94757904Y-60257142D01*
X94805523Y-60161904D01*
X94805523Y-59352380D01*
X95186476Y-59352380D02*
X95853142Y-59352380D01*
X95424571Y-60352380D01*
X120142095Y-59352380D02*
X120142095Y-60161904D01*
X120189714Y-60257142D01*
X120237333Y-60304761D01*
X120332571Y-60352380D01*
X120523047Y-60352380D01*
X120618285Y-60304761D01*
X120665904Y-60257142D01*
X120713523Y-60161904D01*
X120713523Y-59352380D01*
X121237333Y-60352380D02*
X121427809Y-60352380D01*
X121523047Y-60304761D01*
X121570666Y-60257142D01*
X121665904Y-60114285D01*
X121713523Y-59923809D01*
X121713523Y-59542857D01*
X121665904Y-59447619D01*
X121618285Y-59400000D01*
X121523047Y-59352380D01*
X121332571Y-59352380D01*
X121237333Y-59400000D01*
X121189714Y-59447619D01*
X121142095Y-59542857D01*
X121142095Y-59780952D01*
X121189714Y-59876190D01*
X121237333Y-59923809D01*
X121332571Y-59971428D01*
X121523047Y-59971428D01*
X121618285Y-59923809D01*
X121665904Y-59876190D01*
X121713523Y-59780952D01*
X105695904Y-105580380D02*
X105695904Y-106389904D01*
X105743523Y-106485142D01*
X105791142Y-106532761D01*
X105886380Y-106580380D01*
X106076857Y-106580380D01*
X106172095Y-106532761D01*
X106219714Y-106485142D01*
X106267333Y-106389904D01*
X106267333Y-105580380D01*
X107267333Y-106580380D02*
X106695904Y-106580380D01*
X106981619Y-106580380D02*
X106981619Y-105580380D01*
X106886380Y-105723238D01*
X106791142Y-105818476D01*
X106695904Y-105866095D01*
X107886380Y-105580380D02*
X107981619Y-105580380D01*
X108076857Y-105628000D01*
X108124476Y-105675619D01*
X108172095Y-105770857D01*
X108219714Y-105961333D01*
X108219714Y-106199428D01*
X108172095Y-106389904D01*
X108124476Y-106485142D01*
X108076857Y-106532761D01*
X107981619Y-106580380D01*
X107886380Y-106580380D01*
X107791142Y-106532761D01*
X107743523Y-106485142D01*
X107695904Y-106389904D01*
X107648285Y-106199428D01*
X107648285Y-105961333D01*
X107695904Y-105770857D01*
X107743523Y-105675619D01*
X107791142Y-105628000D01*
X107886380Y-105580380D01*
X108489904Y-82974380D02*
X108489904Y-83783904D01*
X108537523Y-83879142D01*
X108585142Y-83926761D01*
X108680380Y-83974380D01*
X108870857Y-83974380D01*
X108966095Y-83926761D01*
X109013714Y-83879142D01*
X109061333Y-83783904D01*
X109061333Y-82974380D01*
X110061333Y-83974380D02*
X109489904Y-83974380D01*
X109775619Y-83974380D02*
X109775619Y-82974380D01*
X109680380Y-83117238D01*
X109585142Y-83212476D01*
X109489904Y-83260095D01*
X110442285Y-83069619D02*
X110489904Y-83022000D01*
X110585142Y-82974380D01*
X110823238Y-82974380D01*
X110918476Y-83022000D01*
X110966095Y-83069619D01*
X111013714Y-83164857D01*
X111013714Y-83260095D01*
X110966095Y-83402952D01*
X110394666Y-83974380D01*
X111013714Y-83974380D01*
X87506380Y-94789523D02*
X88506380Y-94122857D01*
X87506380Y-94122857D02*
X88506380Y-94789523D01*
X88506380Y-93218095D02*
X88506380Y-93789523D01*
X88506380Y-93503809D02*
X87506380Y-93503809D01*
X87649238Y-93599047D01*
X87744476Y-93694285D01*
X87792095Y-93789523D01*
X58656380Y-138720333D02*
X59370666Y-138720333D01*
X59513523Y-138767952D01*
X59608761Y-138863190D01*
X59656380Y-139006047D01*
X59656380Y-139101285D01*
X59656380Y-137720333D02*
X59656380Y-138291761D01*
X59656380Y-138006047D02*
X58656380Y-138006047D01*
X58799238Y-138101285D01*
X58894476Y-138196523D01*
X58942095Y-138291761D01*
M02*
